<?xml version="1.0" standalone="no"?>
<!DOCTYPE svg PUBLIC "-//W3C//DTD SVG 1.1//EN" "http://www.w3.org/Graphics/SVG/1.1/DTD/svg11.dtd" >
<svg>
<metadata>
Created by FontForge 20090914 at Wed Mar 22 14:37:39 2017
 By www-data
Cyrillic adaptation By He Rez AD. SIL Open Font License
</metadata>
<defs>
<font id="CitricaCyrillic" horiz-adv-x="431" >
  <font-face 
    font-family="Citrica Cyrillic"
    font-weight="400"
    font-stretch="normal"
    units-per-em="1024"
    panose-1="0 0 0 0 0 0 0 0 0 0"
    ascent="819"
    descent="-205"
    x-height="428"
    cap-height="731"
    bbox="-3 -308 1279.01 908"
    underline-thickness="1"
    underline-position="-2"
    unicode-range="U+0020-U+FFFC"
  />
<missing-glyph horiz-adv-x="543" 
d="M0 686h410v-635h-410v635zM51 102h307v533h-307v-533z" />
    <glyph glyph-name=".notdef" horiz-adv-x="543" 
d="M0 686h410v-635h-410v635zM51 102h307v533h-307v-533z" />
    <glyph glyph-name="NULL" horiz-adv-x="0" 
 />
    <glyph glyph-name="NULL" horiz-adv-x="0" 
 />
    <glyph glyph-name="space" unicode=" " horiz-adv-x="276" 
 />
    <glyph glyph-name="exclam" unicode="!" horiz-adv-x="103" 
d="M49 158h-31v550c0 8 3 15 9 21s13.333 9 22 9h30v-553c-1.33301 -7.33301 -4.33301 -13.333 -9 -18c-6 -6 -13 -9 -21 -9zM57 4h-38v37c0 10.667 3.66699 19.667 11 27s16.333 11 27 11s19.667 -3.66699 27 -11s11 -16.333 11 -27c0 -10 -3.66699 -18.667 -11 -26
s-16.333 -11 -27 -11z" />
    <glyph glyph-name="quotedbl" unicode="&#x22;" horiz-adv-x="184" 
d="M21 658v80h33c8.66699 0 16 -2.66699 22 -8c6.66699 -6 10.667 -13 12 -21v-84h-34c-9.33301 0 -17.333 3 -24 9c-6 6.66699 -9 14.667 -9 24zM103 658v80h33c8.66699 0 16 -2.66699 22 -8c6.66699 -6 10.667 -13 12 -21v-84h-34c-9.33301 0 -17.333 3 -24 9
c-6 6.66699 -9 14.667 -9 24z" />
    <glyph glyph-name="numbersign" unicode="#" horiz-adv-x="574" 
d="M490 426c-3.33301 0 -6 0.333008 -8 1h-46l-55 -136h23v-1h30v-30c0 -8 -3 -15 -9 -21c-6 -5.33301 -13 -8 -21 -8h-48l-86 -209c-1.33301 -5.33301 -4 -10 -8 -14c-6 -6 -13 -9 -21 -9h-18l-12 -1v15c-0.666992 6 -1 11 -1 15c0 6.66699 2 12.667 6 18l75 185h-120
l-86 -209c-1.33301 -5.33301 -4 -10 -8 -14c-5.33301 -6 -12.333 -9 -21 -9h-18l-12 -1v30c0 5.33301 1.33301 10.333 4 15l77 188h-51v30c0 8 3 15 9 21s13 9 21 9h46l56 136h-84v29c0 8.66699 2.66699 15.667 8 21c6 6 13 9 21 9h79l90 218
c0.666992 8 4.33398 14.667 11.001 20c5.33301 5.33301 11.666 8 18.999 8c0.666992 0 1.33398 -0.333008 2.00098 -1c4 0 10 -0.333008 18 -1l12 -1c0 -4 -0.333008 -8.66699 -1 -14c-0.666992 -6 -1 -11.333 -1 -16c-0.666992 -3.33301 -1.33398 -6.33301 -2.00098 -9
l-84 -204h120l91 222c1.33301 6 4.66602 11.333 9.99902 16c6 5.33301 13 8 21 8c0.666992 0 1.33398 -0.333008 2.00098 -1c3.33301 0 9 -0.333008 17 -1l12 -1c0 -4 -0.333008 -8.66699 -1 -14c-0.666992 -6 -1 -11.333 -1 -16c-0.666992 -7.33301 -3 -13.333 -7 -18
l-80 -195h34v-1h26v-29c0 -8.66699 -3 -15.667 -9 -21c-6 -6 -13 -9 -21 -9zM196 291h120l56 136h-121z" />
    <glyph glyph-name="dollar" unicode="$" horiz-adv-x="410" 
d="M159 738l39.0029 -0.00195312c10.667 0 19.667 -3.66699 27 -11c8 -7.33301 12 -16.333 12 -27v-44c13.333 -2 25.666 -5.33301 36.999 -10c28 -12 48.667 -22.333 62 -31c4 -2.66699 6.33301 -6.66699 7 -12c0.666992 -4.66699 -0.333008 -9 -3 -13
c-3.33301 -3.33301 -8 -8.33301 -14 -15c-4 -4 -9.33301 -10 -16 -18c-2.66699 -3.33301 -6 -5.33301 -10 -6s-7.66699 0 -11 2c-10 6 -24.333 12.667 -43 20c-2.66699 0.666992 -5.66699 1.66699 -9 3v-170c20.667 -10 40.667 -20.667 60 -32c34 -20 56 -44.333 66 -73
c8.66699 -26 13 -50.667 13 -74c0 -19.333 -3 -37.666 -9 -54.999c-13.333 -38.667 -39 -64.667 -77 -78c-17.333 -5.33301 -34.333 -9.66602 -51 -12.999c-0.666992 0 -1.33398 -0.333008 -2.00098 -1v-82h-39c-10.667 0 -19.667 4 -27 12
c-6.66699 6 -10.667 13.333 -12 22v46c-16.667 2 -33.334 5.33301 -50.001 10c-26.667 8 -53.334 20 -80.001 36c-4 2.66699 -6.66699 6.33398 -8 11.001c-0.666992 1.33301 -1 2.66602 -1 3.99902c0 2.66699 1 5.33398 3 8.00098l24 38c2.66699 4 6 6.33301 10 7
c4 1.33301 8 1 12 -1c33.333 -20 63.333 -31.667 90 -35v204l-1 1l-46 22c-14.667 7.33301 -27 14.666 -37 21.999c-16.667 11.333 -29.667 26 -39 44c-8.66699 18 -13 38 -13 60c0 14 1.33301 26.333 4 37c2.66699 10 4.33398 16.333 5.00098 19
c5.33301 16 19 34.667 41 56c19.333 19.333 48 31.333 86 36v81zM263.003 168.998c22.667 8 34 24.001 34 48.001c0.666992 24 -2 44.333 -8 61c-4 13.333 -21.333 27.666 -52 42.999v-160c9.33301 2 18 4.66699 26 8zM159.003 577.999c-17.333 -3.33301 -29.667 -9 -37 -17
c-10 -11.333 -15.667 -18.666 -17 -21.999v-1c0 -0.666992 -1.66699 -10.334 -5 -29.001c-2.66699 -18 3.33301 -32.333 18 -43c8 -5.33301 18.667 -11 32 -17l9 -5v134z" />
    <glyph glyph-name="percent" unicode="%" horiz-adv-x="411" 
d="M49 1c-3.33301 0 -9 -0.332031 -17 -0.999023h-12v14c-0.666992 6 -1 11 -1 15c0 4.66699 1 9 3 13l274 680c2 3.33301 4.66699 6.66602 8 9.99902c5.33301 5.33301 12 7.66602 20 6.99902h2c4 0 10 -0.333008 18 -1l11 -1c0 -4 -0.333008 -8.66699 -1 -14
c-0.666992 -6 -1 -11 -1 -15c-0.666992 -7.33301 -3 -13.666 -7 -18.999l-269 -671h-1c-1.33301 -3.33301 -3.33301 -6.33301 -6 -9c-6 -6 -13 -8.66699 -21 -8zM274 151.001c0 14 5 26 15 36c9.33301 9.33301 21 14 35 14s26 -4.66699 36 -14c10 -10 15 -22 15 -36v-50h-51
c-14 0 -25.667 4.66699 -35 14c-10 10 -15 22 -15 36zM127 586.001c0 -14 -5 -26 -15 -36c-9.33301 -9.33301 -21 -14 -35 -14s-26 4.66699 -36 14c-10 10 -15 22 -15 36v50h51c13.333 0 25 -5 35 -15s15 -21.667 15 -35z" />
    <glyph glyph-name="ampersand" unicode="&#x26;" horiz-adv-x="616" 
d="M476 562l-36.9961 0.000976562c-2 0 -4 0.666992 -6 2c-1.33301 1.33301 -2 3 -2 5c-5.33301 28.667 -18.666 53.667 -39.999 75c-22 21.333 -49 33.666 -81 36.999c-31.333 3.33301 -60.666 -4 -87.999 -22c-26.667 -17.333 -45 -41.333 -55 -72
c-6.66699 -22 -8 -43.667 -4 -65s12 -40.333 24 -57l266 -266c1.33301 4.66699 2.33301 10.667 3 18c0.666992 6.66699 1.33398 12.667 2.00098 18c0 2 0.666992 3.66699 2 5c2 1.33301 4 2 6 2h38c2 0 4 -0.666992 6 -2c1.33301 -1.33301 2 -3.33301 2 -6
c-0.666992 -13.333 -2.33398 -26.666 -5.00098 -39.999c-2.66699 -12.667 -6.33398 -25.334 -11.001 -38.001l98 -99c3.33301 -3.33301 5 -7 5 -11c0 -4.66699 -1.66699 -8.66699 -5 -12l-14 -14c-3.33301 -3.33301 -7.33301 -5 -12 -5s-8.66699 1.66699 -12 5l-87 87
c-22 -32 -50.333 -57.333 -85 -76c-34 -18 -71 -27.333 -111 -28h-4c-22.667 0.666992 -44.334 4 -65.001 10c-20.667 6.66699 -40.334 15.667 -59.001 27c-33.333 21.333 -60.333 49.666 -81 84.999s-31.334 74 -32.001 116v2c0 41.333 9.66699 79 29 113
c19.333 35.333 45 63.666 77 84.999c-14.667 22.667 -24.334 48.334 -29.001 77.001c-4.66699 28 -2.33398 56.333 6.99902 85c12.667 42.667 38 76.334 76 101.001c32 21.333 66.667 32 104 32c6 0 12 -0.333008 18 -1c46 -4.66699 84.667 -22.667 116 -54
s49.666 -68 54.999 -110c0.666992 -2.66699 0 -5 -2 -7c-1.33301 -2 -3.66602 -2.66699 -6.99902 -2zM86.0039 243.001c0 -51.333 18.333 -95.333 55 -132c36 -36 80 -54 132 -54c33.333 0 64 8 92 24c27.333 16 49.333 37.333 66 64l-256 256
c-26.667 -16.667 -48 -38.667 -64 -66c-16.667 -28 -25 -58.667 -25 -92z" />
    <glyph glyph-name="quotesingle" unicode="'" horiz-adv-x="103" 
d="M19 658v80h33c8.66699 0 16 -2.66699 22 -8c6.66699 -6 10.667 -13 12 -21v-84h-34c-9.33301 0 -17.333 3 -24 9c-6 6.66699 -9 14.667 -9 24z" />
    <glyph glyph-name="parenleft" unicode="(" horiz-adv-x="205" 
d="M132 0c-24.667 38 -44.666 78.333 -59.999 121c-15.333 43.333 -26 88 -32 134c-3.33301 27.333 -5 55.333 -5 84v31c2 38.667 7 78.667 15 120c12.667 68.667 28.667 125 48 169s29.333 67 30 69l37 -21c4 -2 9 -4.33301 15 -7l4 -2c-0.666992 0 -10 -21 -28 -63
c-18.667 -41.333 -34 -94.333 -46 -159c-6.66699 -37.333 -10.667 -74 -12 -110c-2 -36 -0.666992 -70.667 4 -104c5.33301 -42 14.666 -82 27.999 -120c14 -38 32 -74 54 -108zM156.001 713c1.33301 -0.666992 3 -1.66699 5 -3z" />
    <glyph glyph-name="parenright" unicode=")" horiz-adv-x="226" 
d="M97 -11l-56 36.001c23.333 35.333 42 73 56 113c14.667 40 24.667 82 30 126c4.66699 34.667 6 71 4 109c-1.33301 37.333 -5.66602 75.666 -12.999 114.999c-12.667 66.667 -28.334 121.334 -47.001 164.001c-19.333 42.667 -29 64.334 -29 65.001
c12.667 7.33301 32 17.666 58 30.999c1.33301 -2 12 -26 32 -72c20.667 -46 37.667 -104.667 51 -176c8 -42.667 12.667 -84.334 14 -125.001c0.666992 -10.667 1 -21 1 -31c0 -30 -1.66699 -59.667 -5 -89c-6.66699 -48 -18 -94.333 -34 -139s-36.667 -87 -62 -127z" />
    <glyph glyph-name="asterisk" unicode="*" horiz-adv-x="574" 
d="M433 693c-2 2.66699 -4.66699 5.33008 -8 7.99707l-4 4c2 2 4 4.33301 6 7l7 7c4 3.33301 8.33301 5 13 5h1c4.66699 0 8.66699 -1.33301 12 -4l13 -13v31h20c4.66699 0 8.66699 -1.33301 12 -4c3.33301 -3.33301 5.66602 -7.33301 6.99902 -12v-20
c4 4.66699 8.33301 9.33398 13 14.001c2 1.33301 4.66699 4 8 8l6 5c1.33301 -2 3.33301 -4 6 -6l7 -7c4 -4 6 -8.66699 6 -14s-2 -9.66602 -6 -12.999l-14 -14h37v-19c0 -5.33301 -2 -9.66602 -6 -12.999c-3.33301 -4 -7.66602 -6 -12.999 -6h-13l21 -21
c-2 -2 -4 -4.33301 -6 -7l-7 -7c-4 -3.33301 -8.66699 -5 -14 -5s-9.66602 1.66699 -12.999 5l-12 12v-40h-19c-5.33301 0 -10 1.66699 -14 5c-4 4 -6 8.66699 -6 14v16l-10 -10c-0.666992 0 -1.33398 -0.333008 -2.00098 -1l-12 -12c-1.33301 2 -3.33301 4.33301 -6 7l-7 7
c-3.33301 3.33301 -5.33301 7.33301 -6 12v1c0 4.66699 1.33301 8.66699 4 12l12 12h-36v19c0 4.66699 1.66699 9 5 13c3.33301 3.33301 7.33301 5.33301 12 6h24z" />
    <glyph glyph-name="plus" unicode="+" horiz-adv-x="390" 
d="M154 440v131.999h40c10 0 19 -3.33301 27 -10c7.33301 -6.66699 11.666 -15 12.999 -25v-97h135v-40c0 -11.333 -3.66699 -20.666 -11 -27.999c-8 -8 -17.667 -12 -29 -12h-95v-134h-40c-11.333 0 -20.666 4 -27.999 12c-8 8 -12 17.333 -12 28v94h-91v-1h-40v40
c0 10.667 3.33301 19.667 10 27c6.66699 8 15 12.667 25 14h96z" />
    <glyph glyph-name="comma" unicode="," horiz-adv-x="164" 
d="M37 58v126.999h53c13.333 0 25 -4.66699 35 -14c10.667 -9.33301 17 -20.666 19 -33.999v-133h-54c-14.667 0 -27 5.33301 -37 16c-10.667 10 -16 22.667 -16 38z" />
    <glyph glyph-name="hyphen" unicode="-" horiz-adv-x="370" 
d="M306 349l-285.001 0.00195312v37c0 9.33301 3 17.666 9 24.999c6.66699 7.33301 14.334 11.666 23.001 12.999h290v-37c0 -10.667 -3.66699 -19.667 -11 -27s-16 -11 -26 -11z" />
    <glyph glyph-name="period" unicode="." horiz-adv-x="144" 
d="M106 43c0 -12 -4 -22.333 -12 -31c-8.66699 -8 -19 -12 -31 -12s-22 4.33301 -30 13c-8 8 -12 18 -12 30v43h42c12 0 22 -4.33301 30 -13c8.66699 -8 13 -18 13 -30z" />
    <glyph glyph-name="slash" unicode="/" horiz-adv-x="390" 
d="M342 746c4 0 10.001 -0.333984 18.001 -1.00098l12 -1c-0.666992 -4 -1 -9 -1 -15c-0.666992 -6 -1.33398 -11 -2.00098 -15c-0.666992 -7.33301 -3 -13.333 -7 -18l-274 -672c-2 -5.33301 -4.66699 -9.66602 -8 -12.999c-5.33301 -6 -12.333 -9 -21 -9h-30v29
c0 6.66699 1.66699 12.667 5 18l277 680c2 4 4.66699 7.33301 8 10c6 4.66699 13 7 21 7h2z" />
    <glyph glyph-name="zero" unicode="0" horiz-adv-x="349" 
d="M216 0h-75c-28 0 -51.667 9.66699 -71 29s-29 43 -29 71v538c0 28 9.66699 51.667 29 71s43 29 71 29h75c27.333 0 50.666 -9.66699 69.999 -29c20 -19.333 30 -43 30 -71v-538c0 -28 -10 -51.667 -30 -71c-19.333 -19.333 -42.666 -29 -69.999 -29zM141 679
c-11.333 0 -21 -4 -29 -12s-12 -17.667 -12 -29v-538c0 -11.333 4 -21 12 -29s17.667 -12 29 -12h75c11.333 0 21 4 29 12s12 17.667 12 29v538c0 11.333 -4 21 -12 29s-17.667 12 -29 12h-75z" />
    <glyph glyph-name="one" unicode="1" horiz-adv-x="226" 
d="M100 10v617h-55v54c0 15.333 5.33301 28.333 16 39s23.667 16 39 16h58c2.66699 0 5 -1 7 -3s3 -4.33301 3 -7v-716c0 -2.66699 -1 -5 -3 -7s-4.33301 -3 -7 -3h-48c-3.33301 0 -6 1 -8 3c-1.33301 2 -2 4.33301 -2 7z" />
    <glyph glyph-name="two" unicode="2" horiz-adv-x="308" 
d="M28 684v40.9971c0 2.66699 1 5 3 7c1.33301 2 3.66602 3 6.99902 3c36.667 -2 71.667 -12.333 105 -31s59 -43 77 -73c9.33301 -15.333 16 -32.333 20 -51c3.33301 -18 3.33301 -36.667 0 -56l-6 -26c-3.33301 -11.333 -7 -24.666 -11 -39.999
c-7.33301 -28.667 -16.666 -62 -27.999 -100l-33 -113l-31 -106l-22 -73h146c2.66699 0 5 -1 7 -3c2 -1.33301 3 -3.66602 3 -6.99902v-40c0 -3.33301 -1 -5.66602 -3 -6.99902c-2 -2 -4.33301 -3 -7 -3h-199c-2.66699 0 -5 1 -7 3c-2 1.33301 -3 3.66602 -3 6.99902
c0 10.667 0.333008 27.334 1 50.001l133 457c0 40 -14 74.667 -42 104c-27.333 29.333 -61 45 -101 47c-2.66699 0 -4.66699 1 -6 3c-2 2 -3 4.33301 -3 7z" />
    <glyph glyph-name="three" unicode="3" horiz-adv-x="308" 
d="M155 414c-3.33301 -2 -5 -4.66797 -5 -8.00098c0 -4 1.66699 -7 5 -9c31.333 -19.333 56.333 -48.333 75 -87c18.667 -39.333 28 -76.666 28 -111.999c0 -52.667 -20 -98.334 -60 -137.001c-40 -38 -88.667 -58.333 -146 -61c-3.33301 0 -6 1 -8 3s-3 4.33301 -3 7v35
c0 2.66699 1 5 3 7s4 3 6 3c41.333 2.66699 76 17.667 104 45c28.667 27.333 43 59.666 43 96.999c0 26 -6.66699 52 -20 78c-13.333 26.667 -31.333 48.667 -54 66c-11.333 9.33301 -24 16.666 -38 21.999c-14 6 -28.667 9 -44 9v56c38 4.66699 70 15.334 96 32.001
c26 16 39 42 39 78c0 34 -12 64.333 -36 91c-24 26 -54 42.333 -90 49c-2.66699 0.666992 -4.66699 2 -6 4c-2 1.33301 -3 3.33301 -3 6v36c0 2.66699 1.33301 5 4 7c2 2 4 3 6 3h1c52.667 -7.33301 96.667 -29.666 132 -66.999c35.333 -36.667 53 -79.667 53 -129
c0 -31.333 -7.33301 -55.666 -22 -72.999c-15.333 -18 -35.333 -35 -60 -51z" />
    <glyph glyph-name="four" unicode="4" horiz-adv-x="349" 
d="M259 738l38.999 0.00195312c3.33301 0 5.66602 -0.666992 6.99902 -2c2 -2 3 -4.66699 3 -8v-717c0 -2.66699 -1 -5 -3 -7c-1.33301 -2 -3.66602 -3 -6.99902 -3h-39c-2.66699 0 -5 1 -7 3s-3 4.33301 -3 7v348c0 2.66699 -1 5 -3 7c-2 1.33301 -4 2.33301 -6 3
c-52.667 3.33301 -97.667 22.666 -135 57.999c-38 35.333 -59 79.333 -63 132h-1v173c0 2.66699 1 5 3 7s4.33301 3 7 3h39c2.66699 0 5 -1 7 -3s3 -4.33301 3 -7v-168c2.66699 -36.667 17.334 -67.334 44.001 -92.001c26.667 -24 58 -37.667 94 -41
c3.33301 -0.666992 6 0 8 2s3 4.33301 3 7v288c0 3.33301 1 6 3 8c2 1.33301 4.33301 2 7 2z" />
    <glyph glyph-name="five" unicode="5" horiz-adv-x="390" 
d="M102 632v-185.003c0 -2.66699 0.666992 -5 2 -7c2 -2 4.33301 -3 7 -3h230c2 0 4 -1 6 -3c2 -1.33301 3 -3.66602 3 -6.99902v-315c0 -31.333 -11 -57.666 -33 -78.999c-22 -22 -48.333 -33 -79 -33h-85c-31.333 0 -57.666 11 -78.999 33c-22 22 -33 48.333 -33 79v55
c0 2.66699 1 5 3 7c1.33301 2 3.66602 3 6.99902 3h40c2.66699 0 5 -1 7 -3c2 -1.33301 3 -3.66602 3 -6.99902v-55c0 -14.667 5 -27 15 -37s22.333 -15 37 -15h84c14.667 0 27 5 37 15s15 22.333 15 37v255c0 2.66699 -1 5 -3 7c-1.33301 2 -3.66602 3 -6.99902 3h-228
c-2.66699 0 -5 1 -7 3c-2 1.33301 -3 3.33301 -3 6v246c0 30.667 11 57 33 79c21.333 22 47.666 33 78.999 33h196c2.66699 0 5 -1 7 -3c1.33301 -2 2 -4.33301 2 -7v-41c0 -2.66699 -0.666992 -5 -2 -7c-2 -1.33301 -4.33301 -2 -7 -2h-196c-14.667 0 -27 -5.33301 -37 -16
c-10 -10 -14.667 -22 -14 -36z" />
    <glyph glyph-name="six" unicode="6" horiz-adv-x="349" 
d="M326 323v-214c0 -30.667 -10.667 -56.667 -32 -78c-22 -21.333 -48 -32 -78 -32h-95c-28 0 -51.667 11.667 -71 35c-19.333 24 -29 61.667 -29 113v583c0 3.33301 0.666992 6 2 8c2 2 4.66699 3 8 3h39c2.66699 0 5 -1 7 -3s2.66699 -4.66699 2 -8v-286
c0 -3.33301 1 -6 3 -8s4.33301 -3 7 -3h127c30.667 0 56.667 -10.667 78 -32s32 -47.333 32 -78zM216 374h-127c-2.66699 0 -5 -1 -7 -3s-3 -4.33301 -3 -7v-255c0 -14 5 -26 15 -36s22 -15 36 -15h85c14 0 26 5 36 15s15 22 15 36v215c0 14 -4.66699 25.667 -14 35
c-10 10 -22 15 -36 15z" />
    <glyph glyph-name="seven" unicode="7" horiz-adv-x="287" 
d="M43 679h-6v60h5c58.667 0 108.667 -20.667 150 -62s62 -91.333 62 -150v-161h-1v-363h-60v363h-156v60h158v101c0 42 -15 77.667 -45 107c-29.333 30 -65 45 -107 45z" />
    <glyph glyph-name="eight" unicode="8" horiz-adv-x="369" 
d="M338 632l0.00292969 -182.999h-2c-2 -9.33301 -5.33301 -18.666 -10 -27.999c-5.33301 -8.66699 -11.333 -16.334 -18 -23.001c9.33301 -8.66699 16.666 -19 21.999 -31c5.33301 -12.667 8 -25.667 8 -39v-246h-2c-4.66699 -22.667 -16 -41.334 -34 -56.001
c-17.333 -14.667 -38 -22 -62 -22h-101c-26.667 0 -49.334 9 -68.001 27c-19.333 18.667 -29.333 41.334 -30 68.001v228c0 14 2.66699 27 8 39s12.666 22.667 21.999 32c-8.66699 8.66699 -15.667 18.667 -21 30c-6 12 -9 24.667 -9 38v165c0 27.333 9.66699 50.333 29 69
c18.667 19.333 41.667 29 69 29h102c26.667 0 49.667 -9.66699 69 -29c18.667 -18.667 28 -41.334 28 -68.001zM244.003 368.001l-110.002 0.00195312c-1.33301 -0.666992 -2.33301 -1 -3 -1h-2c-0.666992 0 -1.66699 -0.333008 -3 -1c-0.666992 0 -2 -0.333008 -4 -1
c0 -0.666992 -0.666992 -1 -2 -1c-3.33301 -2 -6.66602 -4.66699 -9.99902 -8c-5.33301 -5.33301 -8.66602 -11.333 -9.99902 -18c-0.666992 -0.666992 -1 -1.33398 -1 -2.00098v-234c0 -10 2.66699 -18.667 8 -26c1.33301 -0.666992 2.33301 -1.33398 3 -2.00098
c8 -7.33301 17.667 -11 29 -11h102c10.667 0 20 3.66699 28 11c7.33301 8 11.333 17 12 27v2h-1v225c0 10.667 -4 20 -12 28c-6.66699 6.66699 -14.667 10.667 -24 12zM241.001 671.003h-101.999c-11.333 0 -21 -3.66699 -29 -11c-7.33301 -8 -11 -17.667 -11 -29v-163
c0 -10.667 3.66699 -20 11 -28c8 -8 17.667 -12 29 -12h101c11.333 0 20.666 4 27.999 12c8 8 12 17.333 12 28v164c0 10.667 -3.66699 19.667 -11 27c-8 8 -17.333 12 -28 12z" />
    <glyph glyph-name="nine" unicode="9" horiz-adv-x="390" 
d="M41 477l-0.000976562 141.999c0 30.667 10.667 56.667 32 78s47.333 32 78 32h93c27.333 0 51 -11.667 71 -35c19.333 -23.333 29.333 -60.666 30 -111.999v-578c0 -2.66699 -1 -5 -3 -7s-4.33301 -3 -7 -3h-39c-3.33301 0 -5.66602 1 -6.99902 3c-2 2 -3 4.33301 -3 7
v354c0 2.66699 -1 5 -3 7s-4.33301 3 -7 3h-125c-30.667 0 -56.667 10.667 -78 32s-32 47 -32 77zM150.999 426.999h125c2.66699 0 5 0.666992 7 2c2 2 3 4.66699 3 8v182c0 14 -5 26 -15 36s-22 15 -36 15h-84c-14.667 0 -26.667 -5 -36 -15c-10 -10 -15 -22 -15 -36v-142
c0 -14 5 -26 15 -36c9.33301 -9.33301 21.333 -14 36 -14z" />
    <glyph glyph-name="colon" unicode=":" horiz-adv-x="184" 
d="M94 406h-53.001v53c0 14.667 5 27.334 15 38.001c10.667 10 23.334 15 38.001 15s27 -5 37 -15c10.667 -10.667 16 -23.334 16 -38.001c0 -14 -5.33301 -26.333 -16 -37s-23 -16 -37 -16zM146.999 103c0 -14.667 -5.33203 -27.333 -15.999 -38
c-10 -10 -22.333 -15 -37 -15s-27.334 5.33301 -38.001 16c-10 10 -15 22.333 -15 37v53h53c14 0 26.333 -5.33301 37 -16c10.667 -10 16 -22.333 16 -37z" />
    <glyph glyph-name="semicolon" unicode=";" horiz-adv-x="144" 
d="M42 98l0.000976562 35h39c10 0 18.667 -3.33301 26 -10s11.666 -15 12.999 -25v-98h-40c-10.667 0 -20 3.66699 -28 11c-7.33301 8 -11 17.333 -11 28v55c0 0.666992 0.333008 2 1 4zM86.001 421h-46.999v47c0 13.333 4.33301 24.333 13 33
c9.33301 9.33301 20.666 14 33.999 14c12.667 0 23.667 -4.66699 33 -14c9.33301 -8.66699 14 -19.667 14 -33c0 -12.667 -4.66699 -23.667 -14 -33s-20.333 -14 -33 -14z" />
    <glyph glyph-name="less" unicode="&#x3c;" horiz-adv-x="348" 
d="M230 169l-170.996 170.003c-2 2 -4 4.33301 -6 7l-19 20l10 10c6.66699 7.33301 11.667 12.666 15 15.999l173 173h1c6 5.33301 13.333 8 22 8h2c9.33301 -0.666992 17.333 -4.33398 24 -11.001c3.33301 -4 7.33301 -8.33301 12 -13
c5.33301 -4.66699 9.66602 -8.66699 12.999 -12l-8 -9c-6 -5.33301 -11 -10 -15 -14c-0.666992 -0.666992 -1.33398 -1.66699 -2.00098 -3l-146 -146l148 -148c5.33301 -6.66699 8 -14 8 -22v-3c-0.666992 -8.66699 -4.33398 -16.334 -11.001 -23.001l-25 -25l-9 8l-14 14
c-0.666992 0.666992 -1.33398 1.66699 -2.00098 3z" />
    <glyph glyph-name="equal" unicode="=" horiz-adv-x="451" 
d="M381 310l-339 -0.000976562v36c0 10.667 3.66699 19.334 11 26.001c6.66699 6 15 9.33301 25 10h332v-36c0 -10 -3.33301 -18.333 -10 -25c-6 -6 -12.333 -9.66699 -19 -11zM381 500.999h-296.999v1h-29v36c0 10 3.33301 18.667 10 26
c5.33301 4.66699 11.666 7.66699 18.999 9v1h326v-36c0 -10 -3.33301 -18.667 -10 -26c-6 -6 -12.333 -9.66699 -19 -11z" />
    <glyph glyph-name="greater" unicode="&#x3e;" horiz-adv-x="329" 
d="M95 167c-4 -4.66699 -8.66699 -9.66699 -14 -15l-9 -8l-12 12c-5.33301 5.33301 -10 9.66602 -14 12.999c-6.66699 6.66699 -10 14.667 -10 24v2c0 8.66699 2.66699 16.334 8 23.001l148 149l-148 148c-4.66699 4 -9.66699 9 -15 15l-8 8
c3.33301 3.33301 7.33301 7.66602 12 12.999c5.33301 4.66699 9.66602 9 12.999 13c6.66699 6.66699 14.667 10.334 24 11.001h2c8.66699 0 16.334 -2.66699 23.001 -8l199 -199c-3.33301 -3.33301 -7.33301 -7.66602 -12 -12.999l-8 -7c-2 -2.66699 -4 -5 -6 -7l-171 -172
c0 -0.666992 -0.666992 -1.33398 -2 -2.00098z" />
    <glyph glyph-name="question" unicode="?" horiz-adv-x="329" 
d="M306 482c0 -36.667 -5.33398 -69.666 -16.001 -98.999c-11.333 -30 -28.333 -55.667 -51 -77c-24.667 -24 -52 -41 -82 -51c-26.667 -9.33301 -50 -15.333 -70 -18v-118h-26c-6 0 -11.333 2 -16 6c-5.33301 4.66699 -8.33301 10.334 -9 17.001v143h3l28 1
c18 1.33301 39 6 63 14c12.667 4 25.334 9.33301 38.001 16c13.333 7.33301 25.666 16.333 36.999 27c16.667 16.667 29.334 36.667 38.001 60c8.66699 22.667 13 49 13 79c0 28.667 -4 54.334 -12 77.001c-8.66699 23.333 -21.667 43.333 -39 60
c-10.667 10.667 -22.334 19.667 -35.001 27c-13.333 7.33301 -26.333 13.666 -39 18.999c-23.333 8.66699 -44.333 13.667 -63 15c-18 1.33301 -27.333 2 -28 2h-4v51h16c7.33301 -0.666992 17 -2 29 -4c20.667 -2.66699 46.334 -9.33398 77.001 -20.001
c30 -10.667 57.667 -29 83 -55c22 -21.333 38.333 -46.333 49 -75s16 -60.334 16 -95.001v-2zM20.999 36.001c0 11.333 3.66797 20.666 11.001 27.999c8 8 17.667 12 29 12s20.666 -4 27.999 -12c8 -7.33301 12 -16.666 12 -27.999v-41h-40c-11.333 0 -21 4 -29 12
c-7.33301 8 -11 17.667 -11 29z" />
    <glyph glyph-name="at" unicode="@" horiz-adv-x="657" 
d="M330 2c-54.667 0 -104.664 13.334 -149.997 40.001c-46 26.667 -82.667 61.667 -110 105c-14 23.333 -25 48.666 -33 75.999c-8.66699 27.333 -13 55.666 -13 84.999c0 54.667 13.333 105 40 151c26.667 45.333 61.667 81.666 105 108.999
c23.333 14.667 48.666 26 75.999 34s55.666 12 84.999 12s57.666 -4 84.999 -12s52.666 -19.333 75.999 -34c43.333 -27.333 78.333 -63.666 105 -108.999c26.667 -46 40 -96.333 40 -151v-1c0 -29.333 -4 -57.333 -12 -84c-8 -27.333 -19.333 -52.666 -34 -75.999
c-26.667 -43.333 -63 -78.333 -109 -105c-45.333 -26.667 -95.666 -40 -150.999 -40zM493.003 315.001l0.00292969 -126.999h66c20 36.667 30 76.667 30 120v1c0 24.667 -3.33301 48.334 -10 71.001s-16.334 44 -29.001 64c-22.667 36.667 -53.334 66.334 -92.001 89.001
s-81.334 34 -128.001 34c-24.667 0 -48.667 -3.33301 -72 -10c-22.667 -6.66699 -44 -16.334 -64 -29.001c-36.667 -22.667 -66.334 -53.334 -89.001 -92.001s-34 -81.334 -34 -128.001c0 -24.667 3.33301 -48.667 10 -72c7.33301 -23.333 17 -44.666 29 -63.999
c23.333 -36.667 54.333 -66.334 93 -89.001s81 -34 127 -34c25.333 0 49.333 3.33301 72 10c23.333 7.33301 44.666 17 63.999 29c22 14 41.333 30.667 58 50h-34c-1.33301 -0.666992 -2.66602 -1 -3.99902 -1h-169c-46.667 0 -88 16.667 -124 50
c-36 34 -54.667 74.667 -56 122v7c0 49.333 17.333 91.333 52 126s76.334 52 125.001 52h8c47.333 -1.33301 88 -20 122 -56c32.667 -35.333 49 -76.333 49 -123zM443.006 196.002l0.000976562 118.001c0 34.667 -11.667 64.667 -35 90c-24 24.667 -53.333 37.667 -88 39h-5
c-34.667 0 -64.667 -12.333 -90 -37c-24.667 -24.667 -37 -54.334 -37 -89.001v-6c1.33301 -34.667 14.666 -63.667 39.999 -87c25.333 -24 55.333 -36 90 -36h118c2 0 3.66699 0.666992 5 2c1.33301 2 2 4 2 6z" />
    <glyph glyph-name="A" unicode="A" horiz-adv-x="595" 
d="M574 412l0.000976562 -400.001c0 -3.33301 -1.33301 -6 -4 -8c-2 -2.66699 -4.66699 -4 -8 -4h-38c-3.33301 0 -6 1.33301 -8 4c-2.66699 2 -4 4.66699 -4 8v145h-426v-143c0 -3.33301 -1 -6 -3 -8c-2.66699 -2.66699 -5.66699 -4 -9 -4h-37c-3.33301 0 -6 1.33301 -8 4
c-2.66699 2 -4 4.66699 -4 8v401c0 1.33301 0.333008 6.33301 1 15c0 8.66699 1 20 3 34c4 25.333 12.333 56.666 25 93.999c13.333 36.667 35.333 70.334 66 101.001c24 23.333 51.667 42 83 56s66 21 104 21s71.667 -7.33301 101 -22
c29.333 -15.333 55.666 -34.666 78.999 -57.999c15.333 -16 28.333 -33.333 39 -52c10 -18 18.333 -36.333 25 -55c12 -34 18.667 -64.333 20 -91c2 -26.667 3 -42 3 -46zM512.001 412.999c0 0.666992 -0.333984 12.333 -1.00098 35c-1.33301 22 -6.66602 47.333 -15.999 76
c-5.33301 15.333 -12.333 30.666 -21 45.999c-8.66699 16 -19.334 30.667 -32.001 44c-17.333 18 -37.333 32.667 -60 44c-23.333 11.333 -50 17 -80 17c-28 -0.666992 -53.667 -6.33398 -77 -17.001c-24 -11.333 -44.667 -25.666 -62 -42.999
c-13.333 -13.333 -24.333 -28 -33 -44c-9.33301 -15.333 -16.666 -30.666 -21.999 -45.999c-10.667 -28.667 -17 -54 -19 -76s-3 -33.333 -3 -34v-202h426v200z" />
    <glyph glyph-name="B" unicode="B" horiz-adv-x="554" 
d="M324 0l-285.001 0.000976562c-3.33301 0 -6 1.33301 -8 4c-2.66699 2 -4 4.66699 -4 8v714c0 3.33301 1.33301 6.33301 4 9c2 2 4.66699 3 8 3h261c51.333 -0.666992 95.333 -19.334 132 -56.001c36 -36.667 54 -80.667 54 -132c0 -27.333 -5.33301 -53.333 -16 -78
c-11.333 -24 -26.666 -44.667 -45.999 -62c-3.33301 -2 -5 -5 -5 -9c0.666992 -4.66699 2.66699 -8 6 -10c29.333 -18.667 53 -43.667 71 -75c17.333 -31.333 26 -66 26 -104c0 -56 -19 -104.667 -57 -146c-38.667 -40.667 -85.667 -62.667 -141 -66zM459.999 212.001
c0 41.333 -14.668 76.666 -44.001 105.999s-64.666 44 -105.999 44h-207c-3.33301 0 -6.33301 -1.33301 -9 -4c-2.66699 -2 -4 -4.66699 -4 -8v-275c0 -3.33301 1.33301 -6.33301 4 -9c2.66699 -2 5.66699 -3 9 -3h221c38 3.33301 70 19.333 96 48
c26.667 28.667 40 62.334 40 101.001zM299.998 676.001l-197 -0.000976562c-3.33301 0 -6.33301 -1.33301 -9 -4s-4 -5.66699 -4 -9v-226c0 -3.33301 1.33301 -6.33301 4 -9c2.66699 -2 5.66699 -3 9 -3h207c32 2.66699 59 16 81 40s33 52.333 33 85
c0 34.667 -12 64.334 -36 89.001c-24.667 24 -54 36.333 -88 37z" />
    <glyph glyph-name="C" unicode="C" horiz-adv-x="677" 
d="M649 100c-33.333 -31.333 -71.666 -55.667 -114.999 -73c-44 -18 -90.333 -27 -139 -27c-36 0 -70.667 5 -104 15c-33.333 9.33301 -64.333 23 -93 41c-53.333 33.333 -96.333 78 -129 134c-32 56 -48 117.333 -48 184c0 36.667 4.66699 71.667 14 105
c10 33.333 24 64 42 92c32.667 53.333 77 96.333 133 129s117.667 49 185 49c45.333 0 88.333 -7.66699 129 -23c41.333 -16 78 -37.333 110 -64l-45 -46c-27.333 21.333 -57.333 38.333 -90 51c-33.333 12 -68.333 18 -105 18c-55.333 0 -106.333 -13.333 -153 -40
c-46 -27.333 -82.667 -63 -110 -107c-14.667 -23.333 -26.334 -49 -35.001 -77c-8 -27.333 -12 -56 -12 -86c0 -55.333 13.667 -106.333 41 -153c26.667 -46 62 -83 106 -111c23.333 -14.667 49 -26 77 -34c27.333 -8 56 -12 86 -12c40.667 0 78.667 7 114 21
c36 14.667 67.667 34.667 95 60z" />
    <glyph glyph-name="D" unicode="D" horiz-adv-x="615" 
d="M593 364c0 -66 -15.668 -126.333 -47.001 -181c-31.333 -55.333 -72.666 -99.333 -123.999 -132c-28 -18 -58.333 -32 -91 -42c-32 -10 -65.667 -15.667 -101 -17h-168c-3.33301 0 -6.33301 1.33301 -9 4c-2 2.66699 -3 5.66699 -3 9v719c0 3.33301 1 6.33301 3 9
c2.66699 2 5.66699 3 9 3h168c35.333 -0.666992 69 -6 101 -16c32.667 -10 62.667 -24 90 -42c52 -33.333 93.667 -77.333 125 -132c31.333 -55.333 47 -116 47 -182zM225.999 672l-99.999 0.00195312c-4 0 -7 -1 -9 -3c-2.66699 -2.66699 -4 -5.66699 -4 -9v-592
c0 -3.33301 1.33301 -6.33301 4 -9c2 -2 5 -3 9 -3h100c29.333 0 57.666 4.33301 84.999 13c26.667 8.66699 51.667 20.334 75 35.001c43.333 27.333 78 63.666 104 108.999c26 46 39 96.333 39 151c0 29.333 -4 57.666 -12 84.999s-19 52.666 -33 75.999
c-26.667 43.333 -62.667 78.666 -108 105.999c-45.333 26.667 -95.333 40.334 -150 41.001z" />
    <glyph glyph-name="E" unicode="E" horiz-adv-x="472" 
d="M436 0h-400c-3.33301 -0 -6 1.33301 -8 4c-2.66699 2 -4 4.66699 -4 8v714c0 3.33301 1.33301 6.33301 4 9c2 2 4.66699 3 8 3h402c3.33301 0 6.33301 -1.33301 9 -4s4 -5.66699 4 -9v-34c0 -3.33301 -1.33301 -6 -4 -8c-2.66699 -2.66699 -5.66699 -4 -9 -4h-343
c-3.33301 0 -6.33301 -1.33301 -9 -4c-2 -2 -3 -5 -3 -9v-220c0 -4 1 -7 3 -9c2.66699 -2.66699 5.66699 -4 9 -4h247c3.33301 0 6.33301 -1.33301 9 -4c2.66699 -2 4 -4.66699 4 -8v-34c0 -3.33301 -1.33301 -6.33301 -4 -9s-5.66699 -4 -9 -4h-247
c-3.33301 0 -6.33301 -1 -9 -3c-2 -2.66699 -3 -5.66699 -3 -9v-306h353c4 0 7 -1.33301 9 -4c2.66699 -2 4 -5 4 -9v-31c0 -3.33301 -1.33301 -6 -4 -8c-2 -2.66699 -5 -4 -9 -4z" />
    <glyph glyph-name="F" unicode="F" horiz-adv-x="452" 
d="M440 678h-348c-3.33301 0 -6 -1 -8 -3c-2.66699 -2.66699 -4 -5.66699 -4 -9v-224c0 -3.33301 1.33301 -6 4 -8c2 -2.66699 4.66699 -4 8 -4h250c4 0 7 -1.33301 9 -4c2.66699 -2.66699 4 -5.66699 4 -9v-34c0 -3.33301 -1.33301 -6.33301 -4 -9c-2 -2.66699 -5 -4 -9 -4
h-250c-3.33301 0 -6 -1 -8 -3c-2.66699 -2.66699 -4 -5.66699 -4 -9v-350c0 -4 -1.33301 -7 -4 -9c-2.66699 -2.66699 -5.66699 -4 -9 -4h-34c-3.33301 0 -6.33301 1.33301 -9 4c-2 2 -3 5 -3 9v718c0 3.33301 1 6.33301 3 9c2.66699 2 5.66699 3 9 3h407
c3.33301 0 6 -1.33301 8 -4c2.66699 -2.66699 4 -5.66699 4 -9v-34c0 -3.33301 -1.33301 -6.33301 -4 -9c-2 -2.66699 -4.66699 -4 -8 -4z" />
    <glyph glyph-name="G" unicode="G" horiz-adv-x="739" 
d="M695 223c0 -26.667 -3.33887 -50.333 -10.0059 -71c-7.33301 -20 -18.333 -38 -33 -54l-1 -1v-1c-5.33301 -5.33301 -11.333 -10.333 -18 -15c-6 -5.33301 -12.667 -10.333 -20 -15c-30 -20.667 -62.667 -37 -98 -49c-35.333 -11.333 -72.333 -17 -111 -17
c-64.667 0 -124.334 16 -179.001 48c-54.667 31.333 -98 73 -130 125c-17.333 28 -30.666 58 -39.999 90s-14 65.667 -14 101v1c0 35.333 5 69 15 101c9.33301 32.667 22.666 62.667 39.999 90c32 52 75.333 93.667 130 125c54 31.333 113.667 47 179 47
c42 0 81.667 -6.66699 119 -20c38 -13.333 72.333 -32 103 -56c2.66699 -2 4.33398 -5 5.00098 -9c0 -3.33301 -1 -6.33301 -3 -9l-27 -27c-2.66699 -2.66699 -5.33398 -4 -8.00098 -4c-3.33301 0 -6 0.666992 -8 2c-25.333 19.333 -53.333 34.333 -84 45
c-30.667 10 -63 15 -97 15c-29.333 0 -57.666 -4 -84.999 -12s-52.666 -19.333 -75.999 -34c-43.333 -27.333 -77.666 -64.333 -102.999 -111c-26 -46 -38.333 -96.667 -37 -152c1.33301 -52 15 -99.667 41 -143c25.333 -43.333 59 -78 101 -104c22 -14 46 -25 72 -33
s53 -12.333 81 -13c18.667 0 37.334 1.33301 56.001 4c18 3.33301 35.333 8 52 14l27 12l24 12c4.66699 2.66699 9.33398 5.66699 14.001 9c4.66699 2.66699 9.33398 5.66699 14.001 9c15.333 12.667 27 27 35 43c8.66699 16 13.334 35 14.001 57v125
c0 3.33301 -1 6.33301 -3 9c-2.66699 2 -5.66699 3 -9 3h-172c-3.33301 0 -6.33301 1.33301 -9 4c-2 2.66699 -3 5.66699 -3 9v38c0 3.33301 1 6 3 8c2.66699 2.66699 5.66699 4 9 4h232c3.33301 0 6.33301 -1.33301 9 -4c2 -2 3 -4.66699 3 -8v-188z" />
    <glyph glyph-name="H" unicode="H" horiz-adv-x="594" 
d="M502 743h40c3.33301 0 6.33301 -1 9 -3c2 -2.66699 3 -5.66699 3 -9v-720c0 -3.33301 -1 -6.33301 -3 -9c-2.66699 -2 -5.66699 -3 -9 -3h-40c-3.33301 0 -6.33301 1 -9 3c-2 2.66699 -3 5.66699 -3 9v340c0 3.33301 -1.33301 6.33301 -4 9c-2.66699 2 -5.66699 3 -9 3
h-359c-3.33301 0 -6.33301 -1 -9 -3c-2 -2.66699 -3 -5.66699 -3 -9v-342c0 -3.33301 -1.33301 -6.33301 -4 -9c-2.66699 -2 -5.66699 -3 -9 -3h-39c-4 0 -7 1 -9 3c-2.66699 2.66699 -4 5.66699 -4 9v720c0 3.33301 1.33301 6.33301 4 9c2 2.66699 5 4 9 4h39
c3.33301 0 6.33301 -1.33301 9 -4s4 -5.66699 4 -9v-288c0 -3.33301 1 -6.33301 3 -9c2.66699 -2.66699 5.66699 -4 9 -4h358c3.33301 0 6.33301 1.33301 9 4s4 5.66699 4 9v290c0 3.33301 1.33301 6.33301 4 9c2.66699 2 5.66699 3 9 3z" />
    <glyph glyph-name="I" unicode="I" horiz-adv-x="144" 
d="M49 0c-2 0 -4 0.666992 -6 2c-1.33301 2 -2 4 -2 6v721c0 2.66699 1 5 3 7s4.33301 3 7 3h41c2.66699 0 5 -1 7 -3c1.33301 -2 2 -4.33301 2 -7v-721c0 -2 -0.666992 -4 -2 -6c-1.33301 -1.33301 -3.33301 -2 -6 -2h-44z" />
    <glyph glyph-name="J" unicode="J" horiz-adv-x="493" 
d="M457 209c0 -38.667 -12.998 -77.333 -38.998 -116c-26 -38 -57.333 -64 -94 -78c-28.667 -10.667 -56.334 -16 -83.001 -16c-19.333 0 -38.333 3 -57 9c-44 12.667 -79.667 35.667 -107 69c-14.667 17.333 -26.667 37.333 -36 60c-8.66699 22 -13.334 45.333 -14.001 70
c0 3.33301 1 6 3 8s4.33301 3 7 3h42c2.66699 0 5 -1 7 -3s3 -4.33301 3 -7c2.66699 -40 18.667 -74.333 48 -103s64.333 -43 105 -43s76 14 106 42c29.333 28 45.333 62 48 102v521c0 3.33301 1.33301 6 4 8c2.66699 2.66699 5.66699 4 9 4h36c3.33301 0 6 -1.33301 8 -4
c2.66699 -2 4 -4.33301 4 -7v-519z" />
    <glyph glyph-name="K" unicode="K" horiz-adv-x="553" 
d="M210 462l326 -441.999c2 -2 3 -4.33301 3 -7c0 -2 -0.333008 -4 -1 -6c-2.66699 -4.66699 -6.66699 -7 -12 -7h-48c-2 0 -3.66699 0.333008 -5 1c-2 1.33301 -3.66699 2.66602 -5 3.99902l-297 403c-2.66699 3.33301 -6 5 -10 5s-7.33301 -1.33301 -10 -4l-51 -60
c-1.33301 -1.33301 -2.33301 -2.66602 -3 -3.99902s-1 -2.66602 -1 -3.99902v-327c0 -3.33301 -1 -6.33301 -3 -9c-2.66699 -2.66699 -5.66699 -4 -9 -4h-39c-3.33301 0 -6.33301 1.33301 -9 4c-2 2.66699 -3 5.66699 -3 9v725h32c8.66699 0 16 -3.33301 22 -10
c4.66699 -5.33301 7.66699 -11.333 9 -18v-235c0 -6 2.66699 -10 8 -12s10 -0.666992 14 4l175 201l4 4c1.33301 0.666992 3 1 5 1h51c5.33301 0 9.33301 -2.33301 12 -7c2 -5.33301 1.33301 -10 -2 -14l-152 -175c-2 -2.66699 -3 -5.33398 -3 -8.00098
s0.666992 -5.33398 2 -8.00098z" />
    <glyph glyph-name="L" unicode="L" horiz-adv-x="349" 
d="M215 63l76.998 -0.000976562c7.33301 -0.666992 15 -3.33398 23 -8.00098c8.66699 -5.33301 13.334 -12 14.001 -20v-34h-116c-34 1.33301 -63.333 10.333 -88 27c-25.333 16 -45.666 39.667 -60.999 71c-10 22 -16.333 42.333 -19 61c-2.66699 18 -4 27.333 -4 28v543
h31c8.66699 0 16.334 -3.33301 23.001 -10c5.33301 -5.33301 8.33301 -11.666 9 -18.999v-512c0 -2 1 -9.66699 3 -23c2.66699 -13.333 7.66699 -27.666 15 -42.999c9.33301 -20 21.666 -35 36.999 -45s34 -15.333 56 -16z" />
    <glyph glyph-name="M" unicode="M" horiz-adv-x="676" 
d="M92 -2h-38c-4 0 -7 1.33301 -9 4c-2.66699 2 -4 5 -4 9v721c0 5.33301 2.66699 9.33301 8 12c2 0.666992 3.66699 1 5 1c3.33301 0 6 -1.33301 8 -4l271 -271c2.66699 -2.66699 5.66699 -4 9 -4s6.33301 1.33301 9 4l260 260c4 4 8.66699 5 14 3c4.66699 -2 7 -6 7 -12
v-708c0 -4 -1 -7 -3 -9c-2.66699 -2.66699 -5.66699 -4 -9 -4h-39c-3.33301 -0 -6.33301 1.33301 -9 4c-2.66699 2 -4 5 -4 9v554c0 5.33301 -2.33301 9.33301 -7 12c-5.33301 2 -10 1 -14 -3l-196 -197c-2.66699 -2 -5.66699 -3 -9 -3s-6.33301 1 -9 3l-207 207
c-4 4.66699 -8.33301 5.66699 -13 3c-5.33301 -2 -8 -5.66699 -8 -11v-568c0 -3.33301 -1.33301 -6.33301 -4 -9c-2 -2 -5 -3 -9 -3z" />
    <glyph glyph-name="N" unicode="N" horiz-adv-x="657" 
d="M623 -5l-37.002 -0.00390625c-3.33301 0 -6 1.33301 -8 4c-2.66699 2 -4 4.66699 -4 8v401l-1 34c-1.33301 22 -6.66602 47.333 -15.999 76c-5.33301 15.333 -12.333 31 -21 47c-8.66699 15.333 -19.334 29.666 -32.001 42.999c-20 20.667 -44 36.334 -72 47.001
s-59.667 16 -95 16c-34.667 -0.666992 -66 -6 -94 -16c-27.333 -10.667 -51 -26 -71 -46c-13.333 -13.333 -24.666 -28 -33.999 -44c-8.66699 -15.333 -16 -30.666 -22 -45.999c-10.667 -28.667 -16.667 -54 -18 -76l-3 -33v-401c0 -3.33301 -1.33301 -6 -4 -8
c-2 -2.66699 -4.66699 -4 -8 -4h-37c-3.33301 0 -6.33301 1.33301 -9 4c-2 2 -3 4.66699 -3 8v401c0 2 1 16 3 42c2 26.667 9.66699 57.334 23 92.001c6.66699 18 15.667 36.333 27 55s25 36.334 41 53.001c26.667 26.667 57.334 46.334 92.001 59.001
c34.667 13.333 73.667 20 117 20c44 0 83.667 -6.66699 119 -20c35.333 -14 66 -34.333 92 -61c16 -16 29.333 -33.333 40 -52c10 -18.667 18.333 -37 25 -55c12 -33.333 18.667 -63.333 20 -90c1.33301 -24 2 -39 2 -45v-400c0 -4 -1 -7 -3 -9
c-2.66699 -2.66699 -5.66699 -4 -9 -4z" />
    <glyph glyph-name="O" unicode="O" horiz-adv-x="779" 
d="M390 -1c-34.667 0 -68.001 4.99902 -100.001 14.999c-32 9.33301 -62 22.333 -90 39c-50.667 32 -91.667 75 -123 129c-31.333 53.333 -47 112.333 -47 177c0 34.667 4.66699 68 14 100c10 32 23.333 61.667 40 89c32 50.667 75 91.667 129 123
c53.333 31.333 112.333 47 177 47c64 0 123 -15.333 177 -46c54 -31.333 97 -72.666 129 -123.999c16.667 -27.333 29.667 -57 39 -89c10 -32 15 -65.333 15 -100c0 -35.333 -5 -69 -15 -101c-9.33301 -32 -22.666 -61.667 -39.999 -89
c-31.333 -50.667 -74 -91.667 -128 -123s-113 -47 -177 -47zM392.999 655.999c-29.333 0 -57 -3.99805 -83 -11.998c-26.667 -8 -51.334 -19 -74.001 -33c-42.667 -26 -76.667 -61.333 -102 -106c-26 -44.667 -39 -93.667 -39 -147c0 -28.667 4 -56.334 12 -83.001
c7.33301 -26.667 18 -51.334 32 -74.001c26.667 -42.667 62.334 -76.667 107.001 -102c44.667 -26 93.667 -39 147 -39c28.667 0 56.334 4 83.001 12c26 7.33301 50.667 18.333 74 33c42 26 76 61.333 102 106s39 93.667 39 147s-13 102.333 -39 147s-60.333 80 -103 106
c-22.667 14 -47.334 25 -74.001 33c-26 8 -53.333 12 -82 12z" />
    <glyph glyph-name="P" unicode="P" horiz-adv-x="471" 
d="M239 677c-43.333 -0.666992 -80 -17.001 -110 -49.001c-30.667 -31.333 -46 -68.666 -46 -111.999v-145c0 -2.66699 1 -5 3 -7s4.66699 -3 8 -3h147c44 0 81.333 15.333 112 46s46 68 46 112s-15.667 81.333 -47 112c-30.667 30.667 -68 46 -112 46h-1zM462 515.999
c-0.666992 -60.667 -23.001 -112.336 -67.001 -155.003c-43.333 -42 -95.333 -63 -156 -63h-146c-2.66699 0 -5 -1 -7 -3c-2 -1.33301 -3 -3.66602 -3 -6.99902v-260c0 -8.66699 -2.66699 -16 -8 -22c-5.33301 -5.33301 -12 -8.66602 -20 -9.99902h-35v520
c0 60.667 21.333 113 64 157c42.667 43.333 94.334 65.333 155.001 66h2c20.667 0 40.667 -2.66699 60 -8c20 -5.33301 38.667 -13.333 56 -24c32 -20 57.667 -46.667 77 -80c18.667 -33.333 28 -69.666 28 -108.999v-2z" />
    <glyph glyph-name="Q" unicode="Q" horiz-adv-x="780" 
d="M392 4c-35.333 0 -69.001 5.00098 -101.001 15.001c-32.667 9.33301 -62.667 22.666 -90 39.999c-52 32 -93.667 75 -125 129s-47 113.667 -47 179c0 64.667 15.667 124.334 47 179.001c31.333 54 73 97 125 129c28 17.333 58 30.666 90 39.999c32 10 65.667 15 101 15
c34.667 0 68.334 -5 101.001 -15c32 -9.33301 62 -22.666 90 -39.999c51.333 -32 92.666 -75 123.999 -129c32 -54.667 48 -114.334 48 -179.001c0 -35.333 -5 -69 -15 -101c-9.33301 -32.667 -22.666 -62.667 -39.999 -90c-13.333 -22 -28.666 -42 -45.999 -60l92 -73
l-10 -12c-4 -4.66699 -7.33301 -9 -10 -13c-5.33301 -6.66699 -12.333 -10.667 -21 -12h-5c-6.66699 0.666992 -13 3 -19 7l-76 60c-10.667 -8 -22 -15.333 -34 -22c-54.667 -31.333 -114.334 -47 -179.001 -47zM491.999 166.001l9.99902 11.999l10 12
c5.33301 6.66699 11.666 10.667 18.999 12h6c6 0 11.333 -1.66699 16 -5l52 -42c18 18.667 34 39.667 48 63c26 45.333 39 95 39 149c0 28.667 -4 56.334 -12 83.001c-7.33301 26.667 -18.333 51.667 -33 75c-26.667 42.667 -62.334 77 -107.001 103
c-45.333 26 -94.666 39 -147.999 39c-29.333 0 -57.333 -4 -84 -12c-26.667 -7.33301 -51.667 -18.333 -75 -33c-42.667 -26 -77 -61.667 -103 -107c-26 -44.667 -39 -94 -39 -148c0 -29.333 4 -57.333 12 -84s19 -51.667 33 -75c26.667 -42.667 62.334 -77 107.001 -103
c45.333 -26 95 -39 149 -39c28.667 0 56.334 4 83.001 12s51.667 19 75 33l5 3z" />
    <glyph glyph-name="R" unicode="R" horiz-adv-x="513" 
d="M476 -6l-46.999 -0.00195312c-2 0 -4 0.666992 -6 2c-2.66699 1.33301 -4.33398 3 -5.00098 5l-144 294h-180c-2.66699 0 -5 -1 -7 -3s-3 -4.33301 -3 -7v-262c0 -8.66699 -2.66699 -16 -8 -22c-6 -6 -13 -9.33301 -21 -10h-34v523c0 60.667 21.333 113 64 157
s94.334 66.333 155.001 67h6c60.667 -0.666992 112.334 -22.667 155.001 -66c42.667 -44 63.334 -96.667 62.001 -158c-0.666992 -25.333 -5.33398 -49.666 -14.001 -72.999s-20.334 -44.333 -35.001 -63c-5.33301 -5.33301 -9.5 -9.66602 -12.5 -12.999
s-12.5 -12 -28.5 -26l-1 -1c-5.33301 -4.66699 -11 -8.66699 -17 -12s-12 -6.33301 -18 -9l150 -304c1.33301 -2 2 -4 2 -6c0 -2.66699 -0.666992 -5 -2 -7c-2.66699 -4 -6.33398 -6 -11.001 -6zM401.001 517.998c0 44 -15.668 81.667 -47.001 113
c-31.333 30.667 -68.666 46 -111.999 46h-2c-43.333 -0.666992 -80 -16.667 -110 -48c-30.667 -32 -46 -70 -46 -114v-146c0 -2.66699 1 -5 3 -7s4.33301 -3 7 -3h149c43.333 0 80.333 15.667 111 47c31.333 30.667 47 68 47 112z" />
    <glyph glyph-name="S" unicode="S" horiz-adv-x="492" 
d="M232 -2l-14.999 0.00683594c-4.66699 0 -9.33398 0.333008 -14.001 1c-30.667 2.66699 -61.334 9.33398 -92.001 20.001c-30.667 11.333 -61.667 26.333 -93 45c-2.66699 2 -4.33398 4.66699 -5.00098 8v3c0 2 0.666992 4 2 6c4 7.33301 10.667 18 20 32
c2 2.66699 4.66699 4.66699 8 6c3.33301 0.666992 6.33301 0 9 -2c65.333 -39.333 122 -58.333 170 -57c48 2 87.333 8.66699 118 20c18 6.66699 35 23.667 51 51c16.667 27.333 15.334 68.333 -3.99902 123c-4.66699 14 -17.334 28.333 -38.001 43
c-20 14 -42.667 27.667 -68 41l-41 21l-41 19l-60 29c-19.333 9.33301 -35.333 18.666 -48 27.999c-20.667 14 -36 31.333 -46 52c-10.667 21.333 -15.667 45.666 -15 72.999c0 18 1.66699 33.333 5 46c3.33301 13.333 5.33301 21 6 23s2.33398 6 5.00098 12
s7.33398 13.333 14.001 22c10.667 14.667 28 30.667 52 48c24.667 16.667 58.667 26.667 102 30c10.667 0.666992 21 1 31 1c40 0 75 -7 105 -21c37.333 -17.333 63 -31 77 -41c2.66699 -2 4 -5 4 -9c0.666992 -3.33301 -0.333008 -6.33301 -3 -9
c-2.66699 -3.33301 -6.66699 -8 -12 -14c-2.66699 -3.33301 -7 -8.33301 -13 -15c-2 -2.66699 -4.66699 -4.33398 -8 -5.00098c-2.66699 0 -5.33398 1 -8.00098 3c-11.333 8 -31.666 18.667 -60.999 32c-30 14 -65.667 19.333 -107 16
c-30 -2.66699 -53.333 -9.33398 -70 -20.001c-17.333 -10.667 -29.666 -21 -36.999 -31c-4 -4.66699 -7 -9 -9 -13c-1.33301 -4 -2.33301 -6.33301 -3 -7l-1 -1c0 -1.33301 -1.66699 -9 -5 -23c-4 -14.667 -4.33301 -30.667 -1 -48c2 -8.66699 5.33301 -17.334 10 -26.001
c5.33301 -8.66699 12.666 -16.334 21.999 -23.001c11.333 -8 26 -16.333 44 -25l56 -27c48.667 -22.667 94.667 -46.334 138 -71.001c42.667 -25.333 70 -55 82 -89c9.33301 -24.667 14.666 -49.667 15.999 -75c0.666992 -6 1 -12 1 -18c0 -18 -2 -35 -6 -51
c-6 -26.667 -17.333 -49.334 -34 -68.001s-37.334 -32.667 -62.001 -42c-21.333 -7.33301 -42.666 -13 -63.999 -17s-42.666 -6 -63.999 -6z" />
    <glyph glyph-name="T" unicode="T" horiz-adv-x="452" 
d="M428 728l-0.000976562 -39c0 -4 -1.33301 -7 -4 -9c-2.66699 -2.66699 -5.66699 -4 -9 -4h-144c-3.33301 0 -6.33301 -1.33301 -9 -4c-2.66699 -2 -4 -5 -4 -9v-654c0 -4 -1.33301 -7 -4 -9c-2 -2.66699 -5 -4 -9 -4h-39c-3.33301 0 -6.33301 1.33301 -9 4
c-2 2 -3 5 -3 9v654c0 4 -1.33301 7 -4 9c-2.66699 2.66699 -5.66699 4 -9 4h-144c-4 0 -7 1.33301 -9 4c-2.66699 2 -4 5 -4 9v39c0 3.33301 1.33301 6.33301 4 9c2 2.66699 5 4 9 4h377c4 0 7 -1.33301 9 -4c2.66699 -2.66699 4.33398 -5.66699 5.00098 -9z" />
    <glyph glyph-name="U" unicode="U" horiz-adv-x="677" 
d="M42 740h38.0029c3.33301 0 6.33301 -1.33301 9 -4c2 -2.66699 3 -5.66699 3 -9v-407c0 -0.666992 0.666992 -12.334 2 -35.001c1.33301 -22 6.66602 -47.667 15.999 -77c5.33301 -16 12.333 -32 21 -48s19.667 -30.667 33 -44c20 -21.333 44.333 -37.333 73 -48
s61 -16 97 -16c35.333 0 67 5.33301 95 16c28 10 52.333 25.333 73 46c13.333 14 24.666 28.667 33.999 44c9.33301 16 16.666 32 21.999 48c11.333 28.667 17.666 54.334 18.999 77.001l3 34v408c0 3.33301 1.33301 6.33301 4 9c2 2 4.66699 3 8 3h38
c3.33301 0 6.33301 -1 9 -3c2 -2.66699 3 -5.66699 3 -9v-407c0 -2 -1 -16.333 -3 -43c-2 -27.333 -9.66699 -58.333 -23 -93c-7.33301 -18.667 -16.666 -37.667 -27.999 -57c-11.333 -18.667 -25.333 -36.334 -42 -53.001c-26.667 -26.667 -57.667 -46.667 -93 -60
c-35.333 -14 -75 -21 -119 -21c-45.333 0 -86 7 -122 21s-67 34.667 -93 62c-30 30.667 -51 64.334 -63 101.001s-19.667 68 -23 94c-1.33301 14 -2.33301 25.667 -3 35v423c0 3.33301 1.33301 6.33301 4 9c2 2.66699 4.66699 4 8 4z" />
    <glyph glyph-name="V" unicode="V" horiz-adv-x="554" 
d="M96 -1c-8.66699 0 -15.333 0.333008 -20 1c-19.333 2.66699 -30 5.33398 -32 8.00098c-2 2 -3 4.66699 -3 8v708c0 3.33301 1.33301 6 4 8c2 2.66699 4.66699 4 8 4h37c3.33301 0 6.33301 -1.33301 9 -4c2 -2 3 -4.66699 3 -8v-651c0 -3.33301 1.33301 -6.33301 4 -9
c2.66699 -2 5.66699 -3 9 -3c19.333 1.33301 43.666 6.66602 72.999 15.999c29.333 10 59.333 28 90 54c25.333 22.667 48.333 50 69 82s38.334 68.667 53.001 110c18 50.667 31.667 108 41 172s14.333 134.333 15 211c0 3.33301 1.33301 6 4 8c2 2.66699 4.66699 4 8 4h37
c3.33301 0 6.33301 -1.33301 9 -4c2 -2 3 -4.66699 3 -8c-0.666992 -80 -6 -154 -16 -222s-24.667 -129 -44 -183c-16.667 -46 -36.667 -87 -60 -123c-23.333 -36.667 -50 -68 -80 -94c-43.333 -36.667 -85.333 -60 -126 -70c-41.333 -10 -73 -15 -95 -15z" />
    <glyph glyph-name="W" unicode="W" horiz-adv-x="780" 
d="M706 740h39.002c3.33301 0 6.33301 -1.33301 9 -4c2.66699 -2 4 -5 4 -9l-69 -724c0 -6 -2.66699 -10 -8 -12c-2 -0.666992 -4 -1 -6 -1c-2.66699 0 -5.33398 1.33301 -8.00098 4l-272 272c-2.66699 2 -5.66699 3 -9 3s-6.33301 -1 -9 -3l-262 -262
c-4 -4 -8.66699 -5 -14 -3c-4.66699 2 -7 6 -7 12l-73 713c0 3.33301 1 6 3 8c2.66699 2.66699 5.66699 4 9 4h39c3.33301 0 6.33301 -1.33301 9 -4c2.66699 -2 4 -4.66699 4 -8l73 -558c0 -6 2.66699 -10 8 -12s9.66602 -1 12.999 3l198 197c2 2.66699 4.66699 4 8 4
s6.33301 -1.33301 9 -4l208 -208c4 -4 8.66699 -5 14 -3c5.33301 2.66699 8 6.66699 8 12l69 570c0 4 1.33301 7 4 9c2.66699 2.66699 5.66699 4 9 4z" />
    <glyph glyph-name="X" unicode="X" horiz-adv-x="657" 
d="M73 729c1.33301 -31.333 5.99609 -61.6709 13.9961 -91.0039c7.33301 -28.667 17.333 -55.667 30 -81c22.667 -46 52.334 -83 89.001 -111s76.334 -42 119.001 -42c23.333 0 45.666 4.33301 66.999 13c22 8 42.333 19.667 61 35
c34.667 28.667 63.334 67.334 86.001 116.001s35.334 102.334 38.001 161.001c0 4 1 7.33301 3 10s4.33301 4 7 4h33c2.66699 0 5 -1.66699 7 -5c2 -2.66699 3 -5.66699 3 -9v-1c-4 -77.333 -21.667 -147.333 -53 -210c-30.667 -62.667 -69.667 -110 -117 -142
c-4 -3.33301 -6 -7.66602 -6 -12.999c0 -6 2 -10.333 6 -13c47.333 -32.667 86.333 -79.667 117 -141c30.667 -62 48 -131 52 -207c0 -4 -1 -7.66699 -3 -11c-2 -2.66699 -4.33301 -4 -7 -4h-32c-2.66699 0 -5 1 -7 3c-2 2.66699 -3 5.66699 -3 9
c-2 31.333 -6.66699 61.333 -14 90s-17.333 55.334 -30 80.001c-22.667 46 -52 82.667 -88 110c-36.667 28 -76.667 42 -120 42c-23.333 0 -45.666 -4.33301 -66.999 -13c-21.333 -8 -41.333 -19.667 -60 -35c-34.667 -28.667 -63.334 -67 -86.001 -115
c-22 -48 -35 -101 -39 -159c0 -4 -0.666992 -7 -2 -9c-2 -2.66699 -4.66699 -4 -8 -4h-32c-3.33301 0 -5.66602 1.33301 -6.99902 4c-2 3.33301 -3 7 -3 11c3.33301 76.667 20.666 146 51.999 208c30.667 61.333 69.667 108.333 117 141c4 2.66699 6 7 6 13s-2 10.333 -6 13
c-47.333 32 -86.666 79.333 -117.999 142c-30.667 62.667 -47.667 132.667 -51 210l-1 1c0 3.33301 1 6.33301 3 9c2 3.33301 4.66699 5 8 5h32c2.66699 0 5 -1.33301 7 -4s3 -6 3 -10z" />
    <glyph glyph-name="Y" unicode="Y" horiz-adv-x="677" 
d="M356 0l-39 0.000976562c-3.33301 0 -6.33301 1.33301 -9 4c-2 2 -3 5 -3 9v130c-34.667 2.66699 -66.667 9.66699 -96 21c-37.333 14 -69.666 35 -96.999 63c-16.667 17.333 -30.334 36 -41.001 56c-10.667 19.333 -19.334 38.333 -26.001 57c-12.667 36 -20 68 -22 96
c-1.33301 28 -2 44 -2 48v245c0 3.33301 1 6.33301 3 9c2.66699 2 5.66699 3 9 3h39c4 0 7 -1 9 -3c2.66699 -2.66699 4 -5.66699 4 -9v-247l2 -35c0.666992 -23.333 6.33398 -50 17.001 -80c5.33301 -16.667 12.333 -33.334 21 -50.001c8.66699 -16 20 -31 34 -45
c20.667 -22 45.667 -38.667 75 -50c30 -10.667 63.667 -16 101 -16c36 0 68.667 5.33301 98 16s54.666 26.667 75.999 48c14 14 25.667 29.333 35 46s17 33 23 49c11.333 30 18 56.667 20 80c2 22.667 3 34.334 3 35.001v246c0 3.33301 1 6.33301 3 9
c2.66699 2.66699 5.66699 4 9 4h39c4 0 7 -1.33301 9 -4c2.66699 -2.66699 4 -5.66699 4 -9v-245c0 -2.66699 -1.33301 -18 -4 -46c-2 -28 -10 -59.667 -24 -95c-7.33301 -20 -16.666 -39.667 -27.999 -59c-12 -20 -26.667 -38.667 -44 -56
c-27.333 -27.333 -59.333 -48 -96 -62c-27.333 -10.667 -57 -17.334 -89 -20.001v-130c0 -4 -1.33301 -7 -4 -9c-2 -2.66699 -5 -4 -9 -4z" />
    <glyph glyph-name="Z" unicode="Z" horiz-adv-x="595" 
d="M539 0h-519.001c-5.33301 0 -9.33301 2 -12 6c-1.33301 2 -2 4 -2 6s1 4 3 6l451 646c2.66699 3.33301 3 7 1 11s-5.33301 6 -10 6h-338c-3.33301 0 -6 1.33301 -8 4c-2.66699 2 -4 4.66699 -4 8v36c0 3.33301 1.33301 6 4 8c2 2.66699 4.66699 4 8 4h448
c4.66699 0 8 -2 10 -6c1.33301 -2 2 -4 2 -6c-0.666992 -2 -1.66699 -4 -3 -6l-446 -646c-3.33301 -3.33301 -3.66602 -7.33301 -0.999023 -12c2 -4 5.33301 -6 10 -6h404c3.33301 0 6.33301 -1 9 -3c2 -2 3 -4.66699 3 -8v-36c0 -3.33301 -1 -6.33301 -3 -9
c-2 -2 -4.33301 -3 -7 -3z" />
    <glyph glyph-name="bracketleft" unicode="[" horiz-adv-x="205" 
d="M176 0h-39c-28 0 -52 10 -72 30s-30 44 -30 72v540c0 28 10 52 30 72s44 30 72 30h39v-61h-39c-11.333 0 -21 -4 -29 -12c-8.66699 -8 -13 -17.667 -13 -29v-541c0 -11.333 4.33301 -21 13 -29c8 -8 17.667 -12 29 -12h39v-60z" />
    <glyph glyph-name="backslash" unicode="\" horiz-adv-x="369" 
d="M356 30l-0.000976562 -29.001h-12c-8 0.666992 -14 1 -18 1c-6.66699 0 -12.667 2 -18 6c-5.33301 4.66699 -8.66602 10 -9.99902 16l-271 664c-2 2.66699 -3.33301 5 -4 7c-1.33301 2.66699 -2 5.33398 -2 8.00098c0 4 -0.333008 9 -1 15s-1 11 -1 15l11 1
c8 0.666992 14 1 18 1h2c6 0 11.333 -1.33301 16 -4c5.33301 -3.33301 9 -7.66602 11 -12.999l275 -671c1.33301 -2.66699 2.33301 -5.33398 3 -8.00098s1 -5.66699 1 -9z" />
    <glyph glyph-name="bracketright" unicode="]" horiz-adv-x="185" 
d="M163 636v-535c0 -28 -10 -52 -30 -72c-19.333 -19.333 -43 -29 -71 -29h-41v60h41c11.333 0 21 4 29 12s12 17.667 12 29v535c0 11.333 -4 21 -12 29s-17.667 12 -29 12h-41v60h41c28 0 51.667 -9.66699 71 -29c20 -20 30 -44 30 -72z" />
    <glyph glyph-name="asciicircum" unicode="^" horiz-adv-x="246" 
d="M21 620l110 110l99 -99c2.66699 -2.66699 4 -6 4 -10v-2c0 -4 -1.66699 -7.66699 -5 -11l-7 -7c-2 -2.66699 -4 -4.66699 -6 -6l-85 85l-74 -74c-3.33301 -2.66699 -7 -4 -11 -4h-1c-4.66699 0 -8.66699 1.66699 -12 5l-6 6c-2.66699 2.66699 -4.66699 5 -6 7z" />
    <glyph glyph-name="underscore" unicode="_" horiz-adv-x="328" 
d="M47 0h-36v36c0 8.66699 3 16.667 9 24c6 6.66699 13.333 10.667 22 12h277v-36c0 -10 -3.33301 -18.333 -10 -25c-7.33301 -6.66699 -16 -10 -26 -10h-236v-1z" />
    <glyph glyph-name="grave" unicode="`" horiz-adv-x="144" 
d="M14 719l31.001 13.999c4 2 8.33301 3 13 3c3.33301 0 6.66602 -0.333008 9.99902 -1c8.66699 -2.66699 15.334 -7.66699 20.001 -15l36 -76c-4.66699 -1.33301 -15 -6 -31 -14c-4.66699 -2 -9.33398 -3 -14.001 -3c-4 0 -8 0.666992 -12 2
c-8.66699 2.66699 -15 8.33398 -19 17.001z" />
    <glyph glyph-name="a" unicode="a" horiz-adv-x="492" 
d="M458 211l0.000976562 -200.999c0 -3.33301 -1 -5.66602 -3 -6.99902c-2 -2 -4.33301 -3 -7 -3h-201c-56.667 0 -106.334 20 -149.001 60s-65 88.333 -67 145v8c0 37.333 8.66699 71.666 26 102.999c19.333 34 45 60.667 77 80c17.333 10.667 36 18.667 56 24
c17.333 4.66699 35.333 7 54 7h9c56 -2.66699 104 -25.334 144 -68.001c40.667 -42.667 61 -92 61 -148zM397.001 70.001v141c0 41.333 -14 77 -42 107c-28.667 30.667 -63.667 46.667 -105 48h-5c-42 0 -78 -15 -108 -45s-45 -66 -45 -108v-5
c1.33301 -41.333 17 -76.333 47 -105c30.667 -28.667 66.667 -43 108 -43h141c2 0 4 1 6 3s3 4.33301 3 7z" />
    <glyph glyph-name="b" unicode="b" horiz-adv-x="492" 
d="M462 219l-0.000976562 -4.00195c0 -58.667 -20.667 -109 -62 -151c-42.667 -42.667 -94 -64 -154 -64h-206c-2.66699 0 -5 1 -7 3s-3 4.33301 -3 7v206c0 1.33301 0.333008 3 1 5v517h31c8.66699 0 15.667 -3 21 -9s8.33301 -13 9 -21h1v-319c0 -4 1.66699 -7 5 -9
c4 -1.33301 7.66699 -0.666016 11 2.00098c18.667 15.333 39.334 27.333 62.001 36c23.333 8.66699 47.666 13 72.999 13c59.333 0.666992 110.333 -19.666 153 -60.999c42.667 -42 64.334 -92.333 65.001 -151zM400.999 212.998l-0.00292969 3c0 42 -15 78 -45 108
c-30 30.667 -66.667 46 -110 46c-40 0 -74.667 -13.667 -104 -41c-29.333 -26.667 -45.666 -59.667 -48.999 -99v-3c-0.666992 -2 -1 -4 -1 -6v-151c0 -2.66699 1 -4.66699 3 -6c2 -2 4.33301 -3 7 -3h142c42.667 0 79.334 14.667 110.001 44s46.334 65.333 47.001 108z" />
    <glyph glyph-name="c" unicode="c" horiz-adv-x="389" 
d="M337 89c2.66699 -2 6.33691 -4.99805 11.0039 -8.99805c5.33301 -4 9 -7 11 -9c2.66699 -2.66699 5.66699 -5.33398 9 -8.00098c2.66699 -2 4 -4.66699 4 -8c0 -2.66699 -1.33301 -5 -4 -7c-16.667 -13.333 -34.334 -23.666 -53.001 -30.999
c-19.333 -7.33301 -39 -12 -59 -14c-6.66699 -0.666992 -13.334 -1 -20.001 -1c-30 0 -59.667 6.66699 -89 20c-36.667 15.333 -67 41.333 -91 78c-20.667 30 -32.334 63.333 -35.001 100c-0.666992 5.33301 -1 10.666 -1 15.999c0 30.667 7 60.334 21 89.001
c19.333 41.333 47 72.666 83 93.999c35.333 20.667 72.666 31.334 111.999 32.001h1c20.667 0 41 -3 61 -9c20.667 -6 40 -15.333 58 -28c0.666992 -0.666992 1 -1.33398 1 -2.00098s-0.333008 -1.33398 -1 -2.00098c-6.66699 -6.66699 -13.334 -13 -20.001 -19l-20 -20
c-1.33301 -0.666992 -2.33301 -0.666992 -3 0c-38.667 20.667 -79.667 24 -123 10c-44 -14 -75.667 -44.333 -95 -91c-8 -20 -11.333 -41.333 -10 -64c1.33301 -22 7.33301 -42.667 18 -62c24.667 -43.333 59 -69.333 103 -78c44.667 -8.66699 84.334 -1 119.001 23
c2 1.33301 4 2 6 2s4 -0.666992 6 -2z" />
    <glyph glyph-name="d" unicode="d" horiz-adv-x="471" 
d="M391 69v150c0 2 -0.333008 4 -1 6v3c-4 39.333 -20.667 72.333 -50 99c-28.667 27.333 -63.334 41 -104.001 41c-42.667 0 -79.334 -15.333 -110.001 -46c-29.333 -30 -44 -66 -44 -108v-3c0.666992 -42.667 16.334 -78.667 47.001 -108s67.334 -44 110.001 -44h142
c2.66699 0 5 1 7 3s3 4.33301 3 7zM452 9c0 -2.66699 -1 -4.99707 -3 -6.99707s-4.66699 -3 -8 -3h-205c-60 0 -111.333 21.333 -154 64c-40.667 41.333 -61.334 91.333 -62.001 150v4c1.33301 59.333 23.333 109.666 66 150.999s93.334 61.666 152.001 60.999
c25.333 -0.666992 49.666 -5.33398 72.999 -14.001c22.667 -8.66699 43.334 -20.667 62.001 -36c3.33301 -2.66699 7 -3 11 -1c3.33301 1.33301 5 4.33301 5 9v322c0 8 3 15 9 21s13.333 9 22 9h32v-730z" />
    <glyph glyph-name="e" unicode="e" horiz-adv-x="430" 
d="M395 358c1.33301 -2 2 -4.33105 2 -6.99805v-1c0 -2 -0.666992 -3.66699 -2 -5l-252 -252c26.667 -20.667 57 -31.334 91 -32.001c33.333 -0.666992 63.666 8.66602 90.999 27.999c2 1.33301 4 2 6 2s4 -1 6 -3l2 -2c6 -4.66699 11.333 -9 16 -13l15 -13
c2 -1.33301 3 -3.66602 3 -6.99902s-1.33301 -6 -4 -8c-39.333 -30 -83.666 -45 -132.999 -45h-6c-52.667 1.33301 -98.667 19.666 -138 54.999c-43.333 38 -67.333 86.333 -72 145v18c0 50.667 16.333 96 49 136c36 44 81.667 69.667 137 77c10.667 1.33301 21 2 31 2
c43.333 0 83.666 -12.667 120.999 -38l6 -5c4.66699 -4 9.33398 -8.33301 14.001 -13c4.66699 -4 8.66699 -8 12 -12zM95 151.002c2 -2.66699 4.66699 -4.33203 8 -4.99902h2c2 0 4 1 6 3l192 192c2 2 3 4.33301 3 7c0.666992 0.666992 0.666992 1.33398 0 2.00098
c0 3.33301 -1.66699 5.66602 -5 6.99902c-20.667 9.33301 -41.667 14 -63 14c-10.667 0 -21.667 -1 -33 -3c-33.333 -6.66699 -61.666 -23 -84.999 -49c-20.667 -24 -33 -51.333 -37 -82c-0.666992 -7.33301 -1 -14.333 -1 -21
c-0.666992 -22.667 3.66602 -44.334 12.999 -65.001z" />
    <glyph glyph-name="f" unicode="f" horiz-adv-x="307" 
d="M41 527c0 58 20.666 107.667 61.999 149c40.667 41.333 90 62 148 62h5c2.66699 0 5 -1 7 -3s3 -4.33301 3 -7v-41c0 -2.66699 -1 -5 -3 -7s-4.33301 -3 -7 -3h-5c-41.333 0 -76.666 -14.667 -105.999 -44c-30 -29.333 -45 -65 -45 -107v-101h147
c2.66699 0 5 -0.666992 7 -2c2 -2 3 -4.33301 3 -7v-40c0 -2.66699 -1 -5 -3 -7s-4 -3 -6 -3h-146v-358c0 -2.66699 -1 -5 -3 -7s-4.33301 -3 -7 -3h-51v529z" />
    <glyph glyph-name="g" unicode="g" horiz-adv-x="472" 
d="M83 -87c2.66699 0 5.00195 -0.999023 7.00195 -2.99902s3 -4 3 -6c2 -40 17.667 -74.333 47 -103c29.333 -28 64.333 -42 105 -42c42 0 78 14.667 108 44c29.333 30 44 66 44 108v91h-150c-58 0 -108.333 20.667 -151 62c-42.667 40.667 -64.334 90 -65.001 148v3
c0 58 21 108 63 150c41.333 42 91.333 62.667 150 62h2c58 0 107.667 -21.333 149 -64s62 -93 62 -151v-299c0 -58.667 -21 -109.334 -63 -152.001c-41.333 -42.667 -91.333 -64 -150 -64h-1c-57.333 0.666992 -106.333 21 -147 61
c-40.667 39.333 -62.334 87.333 -65.001 144c0 3.33301 1 6 3 8c2 1.33301 4.33301 2 7 2c9.33301 0.666992 23.333 1 42 1zM397.002 211.001c0 42.667 -14.667 79 -44 109c-30 30.667 -66 46 -108 46s-78 -15 -108 -45s-45 -66 -45 -108c0.666992 -42 16 -78 46 -108
c30.667 -29.333 67 -44 109 -44h140c2.66699 0 5 1 7 3s3 4.33301 3 7v140z" />
    <glyph glyph-name="h" unicode="h" horiz-adv-x="493" 
d="M41 8l0.000976562 732h31c8.66699 0 16 -3 22 -9s9 -13.333 9 -22v-322c0 -4 2 -6.66699 6 -8c3.33301 -2 6.66602 -1.66699 9.99902 1c18.667 15.333 40 27.333 64 36c23.333 9.33301 48 14 74 14c56.667 0 105.334 -19 146.001 -57c41.333 -38 64.333 -84.333 69 -139
v-226c0 -2.66699 -0.666992 -5 -2 -7c-2 -2 -4.66699 -3 -8 -3h-41c-2.66699 0 -5 1 -7 3s-3 4.33301 -3 7v221c-4 38.667 -20.667 71.667 -50 99c-29.333 26.667 -64 40 -104 40c-40.667 0 -75.334 -13.333 -104.001 -40c-29.333 -27.333 -46 -60.333 -50 -99v-221
c0 -3.33301 -1 -6 -3 -8s-4.33301 -3 -7 -3h-42c-2.66699 0 -5 1 -7 3s-3 4.66699 -3 8zM549.001 9h-1v1zM557.001 1v1h-1zM547.001 10l-1 1h-1zM556.001 3v1h-1z" />
    <glyph glyph-name="i" unicode="i" horiz-adv-x="144" 
d="M83 494h-42v42c0 12 4 22 12 30s18 12 30 12c11.333 0 21.333 -4 30 -12c8 -8.66699 12 -18.667 12 -30s-4 -21 -12 -29c-8 -8.66699 -18 -13 -30 -13zM53 3c-2.66699 0 -5 0.666992 -7 2c-1.33301 2 -2 4.33301 -2 7v413c0 2.66699 1 5 3 7s4.33301 3 7 3h41
c2.66699 0 5 -1 7 -3s3 -4.33301 3 -7v-413c0 -2.66699 -1 -5 -3 -7c-1.33301 -1.33301 -3.33301 -2 -6 -2h-43z" />
    <glyph glyph-name="j" unicode="j" horiz-adv-x="205" 
d="M175 431c2 0 4 -0.666992 6 -2c1.33301 -2 2 -4.33301 2 -7v-445c-0.666992 -48.667 -18 -90.334 -52 -125.001c-33.333 -35.333 -74 -54.333 -122 -57c-2.66699 0 -4.66699 0.666992 -6 2c-2 2 -3 4.33301 -3 7v36c0 2 0.666992 3.66699 2 5c1.33301 2 3 3 5 3
c34 2.66699 63 16.334 87 41.001c23.333 24.667 35.333 54 36 88v445c0 2.66699 1 5 3 7c1.33301 1.33301 3.33301 2 6 2h36z" />
    <glyph glyph-name="k" unicode="k" horiz-adv-x="451" 
d="M226 284l201.999 -269.001c1.33301 -2 2 -4.33301 2 -7c0 -1.33301 -0.333008 -2.66602 -1 -3.99902c-2 -3.33301 -5 -5 -9 -5h-53c-1.33301 0 -2.66602 0.333008 -3.99902 1s-2.33301 1.66699 -3 3l-171 229c-2 2 -4.66699 3 -8 3c-2.66699 0 -5 -1 -7 -3l-65 -80
c-0.666992 -1.33301 -1 -2.33301 -1 -3c-0.666992 -0.666992 -1 -1.66699 -1 -3v-137c0 -2.66699 -0.666992 -5 -2 -7c-2 -1.33301 -4.33301 -2 -7 -2h-42c-2.66699 0 -5 0.666992 -7 2c-2 2 -3 4.33301 -3 7v730h31c8.66699 0 16 -3 22 -9s9 -13 9 -21v-438
c0 -4.66699 2 -7.66699 6 -9c4.66699 -1.33301 8.33398 -0.333008 11.001 3l135 160c1.33301 1.33301 2.66602 2.33301 3.99902 3c0.666992 0.666992 2 1 4 1h46c4 0 6.66699 -1.66699 8 -5c2 -4 1.66699 -7.66699 -1 -11l-95 -117c-1.33301 -1.33301 -2 -3.33301 -2 -6
c0 -2 0.666992 -4 2 -6z" />
    <glyph glyph-name="l" unicode="l" horiz-adv-x="266" 
d="M88 702v-491.999c0.666992 -40.667 15.667 -75.334 45 -104.001c29.333 -29.333 64.333 -44.333 105 -45c8.66699 0 15.667 -3 21 -9c6 -6 9 -13 9 -21v-21c0 -2.66699 -0.666992 -5 -2 -7c-2 -2 -4.66699 -3 -8 -3h-20c-58 0.666992 -107.333 21.334 -148 62.001
c-41.333 41.333 -62.333 90.666 -63 147.999v523h30c8.66699 0 16 -3 22 -9s9 -13.333 9 -22z" />
    <glyph glyph-name="m" unicode="m" horiz-adv-x="533" 
d="M515 200l-0.00195312 -192c0 -2.66699 -1 -5 -3 -7c-1.33301 -2 -3.66602 -3 -6.99902 -3h-42c-2.66699 0 -5 1 -7 3s-3 4.33301 -3 7v206c0 42.667 -15 79 -45 109c-30 30.667 -66.333 46 -109 46v-360c0 -2.66699 -1 -5 -3 -7s-4.33301 -3 -7 -3h-52v227
c-2.66699 40 -18.667 74 -48 102c-30 27.333 -65.333 41 -106 41v-361c0 -3.33301 -1 -6 -3 -8s-4.33301 -3 -7 -3h-42c-3.33301 0 -6 1 -8 3c-1.33301 2 -2 4.66699 -2 8v398c0 6.66699 2.33301 12.667 7 18c4.66699 4.66699 10.667 7 18 7h37c30 0 58.333 -6 85 -18
c26.667 -11.333 49.667 -27 69 -47v40c0 6.66699 2.66699 12.667 8 18c4.66699 4.66699 10.667 7 18 7h36c38.667 0 74 -10.667 106 -32c32.667 -21.333 58.334 -48.333 77.001 -81c10.667 -18 18.667 -37 24 -57c6 -20 9 -40.333 9 -61z" />
    <glyph glyph-name="n" unicode="n" 
d="M408 215v-204c0 -3.33301 -0.666992 -6 -2 -8c-2 -1.33301 -4.33301 -2 -7 -2c-8 -0.666992 -20 -1 -36 -1c-2.66699 0 -5 1 -7 3s-3 4.33301 -3 7v204c0 42 -13.333 78 -40 108s-59 45 -97 45s-70.333 -15 -97 -45s-40 -66 -40 -108v-207
c-1.33301 -2 -2.66602 -3.66699 -3.99902 -5c-1.33301 -0.666992 -3 -1 -5 -1h-36c-2.66699 0 -5 0.666992 -7 2c-2 2 -3 4.66699 -3 8v204c0 58.667 18.667 108.667 56 150c37.333 42 82.666 63 135.999 63c52.667 0 97.667 -21 135 -63c38 -41.333 57 -91.333 57 -150z
" />
    <glyph glyph-name="o" unicode="o" horiz-adv-x="472" 
d="M237 1c-58.667 0 -109.001 21.001 -151.001 63.001c-41.333 42 -62 92.333 -62 151c0 59.333 20.667 109.666 62 150.999c42 42 92.333 63 151 63s109 -21 151 -63s63 -92.333 63 -151s-21 -109 -63 -151c-41.333 -42 -91.666 -63 -150.999 -63zM236.999 369.001
c-42.667 0 -79 -15 -109 -45s-45 -66.333 -45 -109c0 -42 15.333 -78.333 46 -109c30 -30 66 -45 108 -45c42.667 0 79 15 109 45c30 30.667 45 67 45 109c0 42.667 -15 79 -45 109s-66.333 45 -109 45z" />
    <glyph glyph-name="p" unicode="p" horiz-adv-x="493" 
d="M468 209c-0.666992 -60.667 -22.668 -112.002 -66.001 -154.002s-95 -63 -155 -63h-145c-2.66699 0 -5 -1 -7 -3c-2 -1.33301 -3 -3.66602 -3 -6.99902v-258c0 -8.66699 -2.66699 -16 -8 -22c-5.33301 -5.33301 -12 -8.66602 -20 -9.99902h-34v517
c0 60 21 111.667 63 155s93.333 65.333 154 66h2c60.667 0.666992 112.334 -20.666 155.001 -63.999c42.667 -42.667 64 -94.334 64 -155.001v-2zM246.999 367.998c-43.333 -0.666992 -80 -16.667 -110 -48s-45 -68.333 -45 -111v-144c0 -3.33301 1 -6 3 -8s4.66699 -3 8 -3
h146c43.333 0 80.333 15.333 111 46s46 67.667 46 111c0 44 -15.667 81 -47 111c-30.667 30.667 -67.667 46 -111 46h-1z" />
    <glyph glyph-name="q" unicode="q" horiz-adv-x="492" 
d="M243 435c60 -0.666992 110.999 -22.667 152.999 -66s63 -95.333 63 -156v-515h-35c-7.33301 1.33301 -13.666 5 -18.999 11c-5.33301 5.33301 -8 12.333 -8 21v258c0 2.66699 -1 5 -3 7c-2 1.33301 -4.33301 2 -7 2h-144c-60 0 -112 21 -156 63
c-43.333 42 -65.333 93 -66 153v3c0 60 21.667 111.667 65 155c42.667 42.667 94 64 154 64h3zM83.999 216c0 -43.333 15.333 -80.332 46 -110.999c30 -30 66.667 -45 110 -45h146c3.33301 0 6 1 8 3c2 1.33301 3 3.66602 3 6.99902v143c0 43.333 -15 80.666 -45 111.999
c-30 30.667 -66.333 46.334 -109 47.001h-1c-44 0 -81.333 -15 -112 -45c-30.667 -30.667 -46 -67.667 -46 -111z" />
    <glyph glyph-name="r" unicode="r" horiz-adv-x="266" 
d="M98 63v-50.999c0 -2.66699 -1 -5 -3 -7s-4.33301 -3 -7 -3h-42c-2.66699 0 -5 1 -7 3s-3 4.33301 -3 7v205c0 55.333 18.333 103 55 143c37.333 40.667 82.666 63.667 135.999 69h2c2 0 4 -0.666992 6 -2c2 -2 3 -4.33301 3 -7v-42c0 -2 -0.666992 -4 -2 -6
c-2 -2 -4.33301 -3 -7 -3c-37.333 -5.33301 -68.666 -22.333 -93.999 -51s-38 -62.334 -38 -101.001v-154h1z" />
    <glyph glyph-name="s" unicode="s" horiz-adv-x="287" 
d="M139 0c-20 0 -39.998 2.99902 -59.998 8.99902s-39.667 14.667 -59 26c-3.33301 2 -5.66602 4.66699 -6.99902 8c-0.666992 2 -0.833984 3.5 -0.500977 4.5s1.16602 2.83301 2.49902 5.5l18 28c2 2.66699 4.66699 4.33398 8 5.00098
c2.66699 0.666992 5.66699 0.333984 9 -0.999023c32 -18.667 59.667 -27.667 83 -27c24 0.666992 44.333 4.33398 61 11.001c16.667 6 25.334 18 26.001 36c0 18 -2 33 -6 45c-3.33301 10 -16.333 20.667 -39 32c-22.667 12 -42.334 22 -59.001 30
c-12 5.33301 -23.333 10.666 -34 15.999c-11.333 5.33301 -20.666 10.666 -27.999 15.999c-12.667 8.66699 -22.334 19.667 -29.001 33s-10 28.333 -10 45c0 10.667 1 19.667 3 27c2 8 3.33301 13 4 15c4 11.333 14.333 25 31 41s41.667 25.333 75 28c6 0.666992 12 1 18 1
c21.333 0 40.333 -3.33301 57 -10c20.667 -8.66699 36 -16.334 46 -23.001c3.33301 -2 5 -5 5 -9c0.666992 -3.33301 0 -6.33301 -2 -9c-2.66699 -2.66699 -6.33398 -6.66699 -11.001 -12c-2.66699 -3.33301 -6.66699 -8 -12 -14c-1.33301 -2 -3.66602 -3.33301 -6.99902 -4
c-2.66699 0 -5.33398 0.666992 -8.00098 2c-7.33301 4 -18 9 -32 15c-14 5.33301 -30.333 7.33301 -49 6c-21.333 -2 -35.666 -7.33301 -42.999 -16c-8 -8 -13.667 -20.667 -17 -38c-2 -13.333 2.66699 -24 14 -32c6 -4 13.667 -8.33301 23 -13l31 -14
c28 -13.333 54.333 -27.333 79 -42c25.333 -14.667 41.666 -32.667 48.999 -54c6.66699 -19.333 10 -37.666 10 -54.999c0 -14 -2.33301 -27.667 -7 -41c-10 -28.667 -29 -48 -57 -58c-13.333 -4 -26.333 -7.33301 -39 -10c-12.667 -2 -25 -3 -37 -3z" />
    <glyph glyph-name="t" unicode="t" horiz-adv-x="349" 
d="M166 710l0.00292969 -212.002h115v-33c0 -9.33301 -3 -17 -9 -23c-6.66699 -6.66699 -14.334 -10 -23.001 -10h-83v-219c1.33301 -41.333 16.666 -76.666 45.999 -105.999s64.666 -44 105.999 -44c8.66699 -0.666992 16 -4 22 -10s9 -13.333 9 -22v-21
c0 -2.66699 -1 -5 -3 -7s-4.33301 -3 -7 -3h-21c-58 0.666992 -107.667 21.667 -149 63s-62.666 91 -63.999 149v220h-106v31c0 6.66699 1.66699 13 5 19c4 6.66699 9 11.334 15 14.001c3.33301 1.33301 6.66602 2 9.99902 2h76v243h30c8.66699 0 16 -3 22 -9
s9 -13.333 9 -22z" />
    <glyph glyph-name="u" unicode="u" 
d="M21 215l0.000976562 205c0 2.66699 0.666992 5 2 7c2 2 4.66699 3 8 3c7.33301 0 19 0.333008 35 1c2.66699 0 5 -1 7 -3s3 -4.33301 3 -7v-206c0 -42 13.333 -78.333 40 -109c27.333 -30 60 -45 98 -45s70.333 15.333 97 46c27.333 30 40.666 66.333 39.999 109v208
c0.666992 2 2 3.33301 4 4c1.33301 1.33301 3 2 5 2h36c2.66699 0 5 -1 7 -3s3 -4.33301 3 -7v-205c0 -59.333 -18.667 -110 -56 -152c-38 -42 -83.667 -63 -137 -63c-52.667 0 -98 21 -136 63c-37.333 42 -56 92.667 -56 152z" />
    <glyph glyph-name="v" unicode="v" horiz-adv-x="349" 
d="M305 428c2.66699 0 5 -0.666992 7 -2c2 -2 3 -4.66699 3 -8v-204c0 -58.667 -21 -109 -63 -151c-41.333 -42 -91.666 -63 -150.999 -63h-62v418c0 3.33301 1 6 3 8c1.33301 1.33301 3.66602 2 6.99902 2h41c2.66699 0 5 -0.666992 7 -2c2 -2 2.66699 -4.66699 2 -8v-357
c42.667 0 79 15 109 45c30.667 30 46 66.333 46 109v203c0 3.33301 1 6 3 8c2 1.33301 4.33301 2 7 2h41z" />
    <glyph glyph-name="w" unicode="w" horiz-adv-x="533" 
d="M297 431v-369h1c42 0 78.333 15 109 45c30 30 45 66.333 45 109v215h61v-215c0 -59.333 -21 -110 -63 -152s-92.667 -63 -152 -63h-1v-1h-36c-7.33301 -0 -13.333 2.33301 -18 7c-5.33301 5.33301 -8 11.333 -8 18v40c-19.333 -19.333 -42 -35 -68 -47
c-26.667 -11.333 -55 -17 -85 -17h-36c-7.33301 0 -13.333 2.33301 -18 7s-7 10.667 -7 18v405h61v-369c40.667 0 75.667 14 105 42c29.333 27.333 45.333 61.333 48 102v225h62z" />
    <glyph glyph-name="x" unicode="x" horiz-adv-x="410" 
d="M334 9c-4 42 -18.665 77.332 -43.998 105.999c-24.667 28.667 -53.667 43 -87 43s-62.333 -14.333 -87 -43s-39.334 -64 -44.001 -106c0 -2.66699 -1 -4.66699 -3 -6c-1.33301 -2 -3 -3 -5 -3h-35c-2.66699 0 -4.66699 1 -6 3c-2 2.66699 -3 5 -3 7
c0.666992 0.666992 1 1.33398 1 2.00098c3.33301 44 15 83 35 117c20 34.667 45.333 60.334 76 77.001c3.33301 2 5 5.33301 5 10s-1.66699 7.66699 -5 9c-30.667 16.667 -56 42.334 -76 77.001s-31.667 74 -35 118c-0.666992 3.33301 0 6 2 8
c1.33301 2.66699 3.33301 4 6 4h35c2 0 3.66699 -1 5 -3c2 -2 3 -4.33301 3 -7c4 -42 18.333 -77.333 43 -106c25.333 -28.667 54.666 -43 87.999 -43s62.333 14.333 87 43c25.333 28.667 40 64 44 106c0 2.66699 1 5 3 7c1.33301 2 3 3 5 3h35
c2.66699 0 4.66699 -1.33301 6 -4c1.33301 -2 2 -4.33301 2 -7v-1c-3.33301 -44 -15 -83.333 -35 -118c-20.667 -34.667 -46 -60.334 -76 -77.001c-3.33301 -1.33301 -5 -4.33301 -5 -9s1.66699 -8 5 -10c30 -16.667 55.333 -42.334 76 -77.001
c20 -34.667 31.667 -73.667 35 -117c0.666992 -3.33301 0 -6.33301 -2 -9c-1.33301 -2 -3.33301 -3 -6 -3h-35c-2 0 -3.66699 1 -5 3c-2 1.33301 -3 3.33301 -3 6z" />
    <glyph glyph-name="y" unicode="y" 
d="M408 425l-0.000976562 -71.001c0 -54 -15.333 -101 -46 -141c-31.333 -40 -70 -64.333 -116 -73v-127c0 -4 -1.33301 -7 -4 -9c-2 -2.66699 -5 -4 -9 -4h-39c-3.33301 0 -6.33301 1.33301 -9 4c-2 2 -3 5 -3 9v126c-46 8.66699 -84.667 33.334 -116 74.001
c-31.333 40 -47 86.667 -47 140v70c0 2.66699 1 5 3 7s4.66699 3 8 3c8 0 20 0.333008 36 1c2 0 4 -1 6 -3s3 -4.33301 3 -7v-59c0 -1.33301 -0.333008 -3 -1 -5v-5c0 -43.333 13.667 -80 41 -110c27.333 -30.667 60.333 -46 99 -46s71.334 15.333 98.001 46
c27.333 30 41 66.667 41 110v72l4 4c2 1.33301 4 2 6 2h36c2.66699 0 5 -1 7 -3c1.33301 -1.33301 2 -3 2 -5z" />
    <glyph glyph-name="z" unicode="z" horiz-adv-x="379" 
d="M333 0h-315.999c-3.33301 0 -6 1.66699 -8 5c-0.666992 0.666992 -1 1.66699 -1 3c0 2 0.666992 3.66699 2 5l245 353c2 2.66699 2.33301 5.66699 1 9c-2 2.66699 -4.66699 4 -8 4h-158c-2.66699 0 -5 1 -7 3c-1.33301 1.33301 -2 3.33301 -2 6v34c0 2 0.666992 4 2 6
c2 2 4.33301 3 7 3h257c3.33301 0 5.66602 -1.66699 6.99902 -5c0.666992 -1.33301 1 -2.33301 1 -3c0.666992 -2 0.333984 -4 -0.999023 -6l-246 -352c-2 -2.66699 -2 -5.66699 0 -9c1.33301 -2.66699 3.66602 -4 6.99902 -4h217c2 0 4 -1 6 -3s3 -4 3 -6v-35
c0 -2 -0.666992 -4 -2 -6c-2 -1.33301 -4 -2 -6 -2z" />
    <glyph glyph-name="braceleft" unicode="{" horiz-adv-x="205" 
d="M21 405h31v231c0 28 9.66699 52 29 72c20 19.333 44 29 72 29h39v-59h-39c-11.333 0 -21 -4 -29 -12c-8.66699 -8 -13 -18 -13 -30v-535c0 -12 4.33301 -22 13 -30c8 -8 17.667 -12 29 -12h39v-59h-39c-28 0 -52 10 -72 30c-19.333 19.333 -29 43 -29 71v229h-31v75z" />
    <glyph glyph-name="bar" unicode="|" horiz-adv-x="123" 
d="M89 711c0 -2 -0.333008 -3.66797 -1 -5.00098h1v-706h-29c-8 0 -14.667 2.66699 -20 8c-6 6 -9 13 -9 21c0 2.66699 0.333008 5.33398 1 8.00098v665c-0.666992 2.66699 -1 5.66699 -1 9v28h29c8 0 15 -2.66699 21 -8c5.33301 -5.33301 8 -12 8 -20z" />
    <glyph glyph-name="braceright" unicode="}" horiz-adv-x="226" 
d="M168 637v-233h34v-75h-34v-231c0 -28 -10 -52 -30 -72s-44 -30 -72 -30h-42v61h42c11.333 0 21 4 29 12s12 17.667 12 29v539c0 11.333 -4 21 -12 29c-8 8.66699 -17.667 13 -29 13h-42v60h42c28 0 52 -10 72 -30s30 -44 30 -72z" />
    <glyph glyph-name="asciitilde" unicode="~" horiz-adv-x="574" 
d="M150 673v31.999c0 8.66699 2.66699 16 8 22c6 6.66699 13 10.334 21 11.001h252v-32c0 -9.33301 -3.33301 -17 -10 -23c-6 -6 -13.667 -9 -23 -9z" />
    <glyph glyph-name="uni00A0" unicode="&#xa0;" horiz-adv-x="410" 
 />
    <glyph glyph-name="exclamdown" unicode="&#xa1;" horiz-adv-x="123" 
d="M103 0h-30c-8.66699 0 -16 3 -22 9s-9 13 -9 21v549h31c8 0 15 -3 21 -9c4 -4.66699 6.66699 -9.66699 8 -15h1v-555zM80 656h-39v39c0 11.333 3.66699 20.666 11 27.999c8 8 17.333 12 28 12s20 -4 28 -12c7.33301 -7.33301 11 -16.666 11 -27.999
c0 -10 -3.66699 -19 -11 -27c-8 -8 -17.333 -12 -28 -12z" />
    <glyph glyph-name="cent" unicode="&#xa2;" horiz-adv-x="390" 
d="M337 89c2.66699 -2 6.33594 -4.99902 11.0029 -8.99902c5.33301 -4 9 -7 11 -9c2.66699 -2.66699 5.66699 -5.33398 9 -8.00098c2.66699 -2 4 -4.66699 4 -8c0 -2.66699 -1.33301 -5 -4 -7c-16.667 -13.333 -34.334 -23.666 -53.001 -30.999
c-19.333 -7.33301 -39 -12 -59 -14c-6.66699 -0.666992 -13.334 -1 -20.001 -1c-30 0 -59.667 6.33301 -89 19l-63 -155c-2 -4.66699 -4.66699 -9 -8 -13c-5.33301 -6 -12.333 -9 -21 -9h-30v29c0 6 1.33301 11.333 4 16l67 164c-15.333 13.333 -28.666 29 -39.999 47
c-20.667 30 -32.334 63.333 -35.001 100c-0.666992 5.33301 -1 10.666 -1 15.999c0 30.667 7 60.334 21 89.001c19.333 41.333 47 72.666 83 93.999c35.333 20.667 72.666 31.334 111.999 32.001h13l58 140c2 4 4.66699 7.33301 8 10c6 4.66699 13 7 21 7h2
c4 0 10 -0.333008 18 -1l12 -1c-0.666992 -4 -1 -9 -1 -15c-0.666992 -6 -1.33398 -11 -2.00098 -15c-0.666992 -7.33301 -3 -13.333 -7 -18l-49 -120c16.667 -6 32.334 -14 47.001 -24c0.666992 -0.666992 1 -1.33398 1 -2.00098s-0.333008 -1.33398 -1 -2.00098
c-6.66699 -6.66699 -13.334 -13 -20.001 -19l-20 -20c-1.33301 -0.666992 -2.33301 -0.666992 -3 0c-9.33301 4.66699 -18.333 8.33398 -27 11.001l-59 -146l-57 -139c11.333 -5.33301 23.333 -9 36 -11c44.667 -8.66699 84.334 -1 119.001 23c2 1.33301 4 2 6 2
s4 -0.666992 6 -2zM168.002 229.001l55.999 138.999c-11.333 -1.33301 -22.666 -3.66602 -33.999 -6.99902c-44 -14 -75.667 -44.333 -95 -91c-8 -20 -11.333 -41.333 -10 -64c1.33301 -22 7.33301 -42.667 18 -62c6 -10.667 12.333 -20 19 -28z" />
    <glyph glyph-name="sterling" unicode="&#xa3;" horiz-adv-x="534" 
d="M116 1c-1.33301 -0.666992 -3.00488 -0.99707 -5.00488 -0.99707c-3.33301 -0.666992 -6.66602 0.666016 -9.99902 3.99902c-4.66699 4 -5.66699 9 -3 15l18 44c5.33301 12 4.66602 49.333 -2.00098 112c-2.66699 26 -6.66699 54.333 -12 85h-75v33
c0 9.33301 3.33301 17.333 10 24c6 6 13.667 9 23 9h31l-15 79v5c0 1.33301 1.33301 14.333 4 39s15.334 48.667 38.001 72c16.667 16.667 37 29 61 37c21.333 7.33301 45.666 11 72.999 11h12c26.667 -1.33301 56.334 -6.66602 89.001 -15.999
c32.667 -10 60.334 -29.333 83.001 -58c8.66699 -10.667 15 -21.334 19 -32.001c4.66699 -10 8 -19 10 -27c0.666992 -4 -0.333008 -7.66699 -3 -11c-2.66699 -4 -6 -6 -10 -6c-11.333 -0.666992 -28.333 -2 -51 -4l-4 13c-2 8.66699 -7.33301 18 -16 28
c-12 14 -28 25 -48 33c-20 7.33301 -44 11.666 -72 12.999c-22 0.666992 -41 -1.33301 -57 -6s-29.333 -12 -40 -22c-9.33301 -10.667 -15.666 -21.667 -18.999 -33c-2.66699 -11.333 -4 -19.333 -4 -24v-4c2 -9.33301 5.66699 -28.666 11 -57.999l6 -29h216v-33
c0 -8.66699 -3 -16.334 -9 -23.001c-5.33301 -5.33301 -11.666 -8.66602 -18.999 -9.99902h-178c0.666992 -1.33301 1 -2.33301 1 -3c5.33301 -31.333 9 -58.666 11 -81.999c2.66699 -22.667 4.33398 -42.334 5.00098 -59.001c0 -4 2 -7.33301 6 -10
c3.33301 -2.66699 7 -3.33398 11 -2.00098c14 4 29.333 7.66699 46 11c16.667 4 34.334 7 53.001 9c33.333 4 67.333 4 102 0c35.333 -4 67 -16 95 -36c3.33301 -2.66699 5.33301 -6 6 -10v-2c0 -3.33301 -1 -6.33301 -3 -9l-25 -29
c-2.66699 -2.66699 -5.66699 -4.33398 -9 -5.00098c-3.33301 0 -6.33301 1 -9 3c-27.333 18.667 -60.333 27.334 -99 26.001c-38.667 -0.666992 -75.334 -5.33398 -110.001 -14.001c-18.667 -4 -35.667 -8.66699 -51 -14s-28 -10.333 -38 -15z" />
    <glyph glyph-name="currency" unicode="&#xa4;" horiz-adv-x="472" 
d="M436 371l-27 -27c28.667 -36.667 43 -79.334 43 -128.001c0 -46 -12.667 -86.667 -38 -122l47 -46l-10 -10c-3.33301 -4 -6.66602 -7.33301 -9.99902 -10c-5.33301 -5.33301 -12 -8 -20 -8s-14.667 2.66699 -20 8l-25 24c-39.333 -34.667 -86 -52 -140 -52
c-48.667 0 -91.667 14 -129 42l-52 -52l-20 20c-5.33301 5.33301 -8.33301 11.666 -9 18.999v1c0 6.66699 2.33301 12.667 7 18l34 34c-30.667 38 -46 82.667 -46 134c0 52.667 16.333 98.334 49 137.001l-43 43l-6 7c4 4.66699 10.667 11.334 20 20.001
c5.33301 5.33301 11.666 8.33301 18.999 9h1c6.66699 0 12.667 -2.33301 18 -7l33 -33c36 26 77.333 39 124 39c50.667 0 95 -15.333 133 -46l47 46l20 -20c5.33301 -5.33301 8 -12 8 -20s-2.66699 -14.667 -8 -20zM236 376c-31.333 0 -59.333 -7.99902 -84 -23.999h-1
c-10 -6.66699 -19.333 -14.334 -28 -23.001c-31.333 -31.333 -47 -69 -47 -113s15.667 -81.667 47 -113s69 -47 113 -47s81.667 15.667 113 47s47 69 47 113s-15.667 81.667 -47 113s-69 47 -113 47z" />
    <glyph glyph-name="yen" unicode="&#xa5;" horiz-adv-x="533" 
d="M301 241l195.999 0.00195312v-36c0 -10 -3.66699 -18.333 -11 -25c-4.66699 -5.33301 -10.334 -9 -17.001 -11h-168v-28h196v-36c0 -10 -3.66699 -18.333 -11 -25c-6.66699 -7.33301 -15 -11 -25 -11h-160v-53c0 -4.66699 -1.66699 -8.33398 -5 -11.001
c-2.66699 -3.33301 -6 -5 -10 -5h-48c-4 0 -7.33301 1.33301 -10 4c-3.33301 3.33301 -5 7 -5 11v54h-197v37c0 9.33301 3.66699 17.666 11 24.999c6.66699 6.66699 15 10 25 10h161v28h-189v36c0 10 3.33301 18.667 10 26c7.33301 6.66699 16 10 26 10h153
c-55.333 10 -101.333 39 -138 87c-38 48.667 -57 106 -57 172v84c0 3.33301 1 6 3 8c2.66699 2.66699 5.66699 4 9 4h43c3.33301 0 6.33301 -1.33301 9 -4c2 -2.66699 3.33301 -5.66699 4 -9v-83c-0.666992 -51.333 15.333 -95.333 48 -132
c32.667 -36 72.334 -54 119.001 -54s86.334 18 119.001 54c32.667 36.667 49 81 49 133v87c1.33301 2.66699 3 4.66699 5 6s4.33301 2 7 2h43c3.33301 0 6.33301 -1.33301 9 -4c1.33301 -1.33301 2 -3.33301 2 -6v-86c0 -65.333 -19 -122.333 -57 -171s-84.333 -78 -139 -88
z" />
    <glyph glyph-name="brokenbar" unicode="&#xa6;" horiz-adv-x="102" 
d="M29 478c-2.66699 0 -4.66602 0.666992 -5.99902 2s-2 3.33301 -2 6v242c0 2.66699 0.666992 5 2 7c2 2 4.33301 3 7 3h41c3.33301 0 5.66602 -1 6.99902 -3c2 -2 3 -4.33301 3 -7v-242c0 -2.66699 -0.666992 -4.66699 -2 -6c-2 -1.33301 -4 -2 -6 -2h-44zM29.001 0
c-2.66699 0 -4.66602 0.666992 -5.99902 2s-2 3.33301 -2 6v242c0 2.66699 0.666992 5 2 7c2 2 4.33301 3 7 3h41c3.33301 0 5.66602 -1 6.99902 -3c2 -2 3 -4.33301 3 -7v-242c0 -2.66699 -0.666992 -4.66699 -2 -6c-2 -1.33301 -4 -2 -6 -2h-44z" />
    <glyph glyph-name="section" unicode="&#xa7;" horiz-adv-x="287" 
d="M139 0c-20 0 -40 2.99707 -60 8.99707s-39.667 14.667 -59 26c-3.33301 2 -5.33301 4.66699 -6 8c-0.666992 1.33301 -1 2.33301 -1 3c0 2 0.666992 4.33301 2 7l18 28c2 2.66699 4.66699 4.33398 8 5.00098c2.66699 0.666992 5.66699 0.333984 9 -0.999023
c32 -18.667 59.667 -27.667 83 -27c24 0.666992 44.333 4.33398 61 11.001c16.667 6 25.334 18 26.001 36c0 18 -2 33 -6 45c-3.33301 10 -16.333 20.667 -39 32c-22.667 12 -42.334 22 -59.001 30c-12 5.33301 -23.333 10.666 -34 15.999
c-11.333 5.33301 -20.666 10.666 -27.999 15.999c-12.667 8.66699 -22.334 19.667 -29.001 33s-10 28.333 -10 45c0 10.667 1 19.667 3 27c2 8 3.33301 13 4 15c4 11.333 14.333 25 31 41c9.33301 8.66699 21.333 15.667 36 21l-4 2
c-11.333 5.33301 -20.666 10.666 -27.999 15.999c-12.667 8.66699 -22.334 19.667 -29.001 33s-10 28.333 -10 45c0 10.667 1 19.667 3 27c2 8 3.33301 13 4 15c4 11.333 14.333 25 31 41s41.667 25.333 75 28c6 0.666992 12 1 18 1c21.333 0 40.333 -3.33301 57 -10
c20.667 -8.66699 36 -16.334 46 -23.001c3.33301 -2 5 -5 5 -9c0.666992 -3.33301 0 -6.33301 -2 -9c-2.66699 -2.66699 -6.33398 -6.66699 -11.001 -12c-2.66699 -3.33301 -6.66699 -8 -12 -14c-1.33301 -2 -3.66602 -3.33301 -6.99902 -4
c-2.66699 0 -5.33398 0.666992 -8.00098 2c-7.33301 4 -18 9 -32 15c-14 5.33301 -30.333 7.33301 -49 6c-21.333 -2 -35.666 -7.33301 -42.999 -16c-8 -8 -12.333 -13 -13 -15v-2c0 -0.666992 -1.33301 -7.66699 -4 -21c-2 -13.333 2.66699 -24 14 -32
c6 -4 13.667 -8.33301 23 -13l31 -14c28 -13.333 54.333 -27.333 79 -42c10.667 -6 19.667 -13 27 -21l1 -1c10 -10 17 -20.667 21 -32c6.66699 -19.333 10 -37.666 10 -54.999c0 -14 -2.33301 -27.667 -7 -41c-9.33301 -25.333 -25.333 -43.666 -48 -54.999
c21.333 -13.333 35.333 -29.666 42 -48.999s10 -37.666 10 -54.999c0 -14 -2.33301 -27.667 -7 -41c-10 -28.667 -29 -48 -57 -58c-13.333 -4 -26.333 -7.33301 -39 -10c-12.667 -2 -25 -3 -37 -3zM182 369.997c-14 5.33301 -30.335 7.33301 -49.002 6
c-21.333 -2 -35.666 -7.33301 -42.999 -16c-8 -8 -12.333 -13 -13 -15v-2c0 -0.666992 -1.33301 -7.66699 -4 -21c-2 -13.333 2.66699 -24 14 -32c6 -4 13.667 -8.33301 23 -13l31 -14c2.66699 -2 5.66699 -3.66699 9 -5c18 2 33.667 5.66699 47 11
c16.667 6 25.334 18 26.001 36c0 18 -2 33 -6 45l-2 4l-1 1c-7.33301 4 -18 9 -32 15z" />
    <glyph glyph-name="dieresis" unicode="&#xa8;" horiz-adv-x="595" 
d="M266 853c8 -8 12 -18 12 -30v-42h-45c-12 0 -22 4 -30 12s-12 18 -12 30v42h45c11.333 0 21.333 -4 30 -12zM372 781h-45v42c0 12 4 22 12 30c8 7.33301 17.333 11.333 28 12h47v-42c0 -12 -4 -22 -12 -30c-8.66699 -8 -18.667 -12 -30 -12z" />
    <glyph glyph-name="copyright" unicode="&#xa9;" horiz-adv-x="390" 
d="M193 224c-48.667 0 -90 17.333 -124 52c-34.667 34 -52 75.333 -52 124s17.333 90.334 52 125.001c34 34 75.333 51 124 51s90.334 -17 125.001 -51c34 -34.667 51 -76.334 51 -125.001s-17 -90 -51 -124c-34.667 -34.667 -76.334 -52 -125.001 -52zM193 531
c-36 0 -66.667 -13 -92 -39c-25.333 -25.333 -38 -56 -38 -92s12.667 -66.667 38 -92s56 -38 92 -38s66.667 12.667 92 38c26 25.333 39 56 39 92s-13 66.667 -39 92c-25.333 26 -56 39 -92 39zM257 337c-7.33301 -7.33301 -15.999 -13.001 -25.999 -17.001s-21 -6 -33 -6
c-23.333 0 -43.666 8.33301 -60.999 25c-16.667 16.667 -25 37 -25 61s8.33301 44.333 25 61c17.333 17.333 37.666 26 60.999 26c10.667 0 20.667 -2 30 -6c10 -3.33301 18.667 -8.33301 26 -15c-2.66699 -2 -6.33398 -5.33301 -11.001 -10
c-6 4.66699 -12.667 8.33398 -20 11.001c-8 2.66699 -16.333 4 -25 4c-19.333 0 -36 -7 -50 -21s-21 -30.667 -21 -50c0 -20 7 -37 21 -51s30.667 -21 50 -21c10 0 19 1.66699 27 5s15.333 8 22 14c1.33301 -2 3 -3.66699 5 -5z" />
    <glyph glyph-name="ordfeminine" unicode="&#xaa;" horiz-adv-x="168" 
d="M156 608c0 -0.666992 -0.332031 -1.33301 -0.999023 -2s-1.33398 -1 -2.00098 -1h-64c-18 0 -33.667 6.33301 -47 19s-20.333 28 -21 46v2c0 12 2.66699 23 8 33c6 10.667 14.333 19 25 25c5.33301 3.33301 11 6 17 8c5.33301 1.33301 11 2 17 2h3
c18 -0.666992 33.333 -7.66699 46 -21c12.667 -14 19 -29.667 19 -47v-64zM120.001 672.001c0 8.66699 -2.99902 16.001 -8.99902 22.001s-13 9.33301 -21 10h-1c-8.66699 0 -16.334 -3 -23.001 -9c-6 -6.66699 -9 -14.334 -9 -23.001v-1c0.666992 -8 4 -15 10 -21
s13.333 -9 22 -9h29l2 2v29z" />
    <glyph glyph-name="guillemotleft" unicode="&#xab;" horiz-adv-x="574" 
d="M126 738l60.999 -0.000976562c16 0 29.333 -5.33301 40 -16c11.333 -11.333 17 -24.666 17 -39.999v-57h-61c-15.333 0 -28.666 5.33301 -39.999 16c-11.333 11.333 -17 25 -17 41v56zM-0.000976562 737.999l61.001 -0.000976562c15.333 0 28.666 -5.33301 39.999 -16
c10.667 -11.333 16 -24.666 16 -39.999v-57h-60c-16 0 -29.333 5.33301 -40 16c-11.333 11.333 -17 25 -17 41v56z" />
    <glyph glyph-name="logicalnot" unicode="&#xac;" horiz-adv-x="491" 
d="M97 256h-50.999c-2.66699 0 -5 1 -7 3s-3 4.33301 -3 7v42c0 2.66699 1 5 3 7s4.33301 3 7 3h205c55.333 0 103 -18.333 143 -55c40.667 -37.333 63.667 -82.666 69 -135.999v-2c0 -2 -0.666992 -4 -2 -6c-2 -2 -4.33301 -3 -7 -3h-42c-2 0 -4 0.666992 -6 2
c-2 2 -3 4.33301 -3 7c-5.33301 37.333 -22.333 68.666 -51 93.999s-62.334 38 -101.001 38h-154v-1z" />
    <glyph glyph-name="uni00AD" unicode="&#xad;" horiz-adv-x="370" 
d="M306 349l-285.001 0.00195312v37c0 9.33301 3 17.666 9 24.999c6.66699 7.33301 14.334 11.666 23.001 12.999h290v-37c0 -10.667 -3.66699 -19.667 -11 -27s-16 -11 -26 -11z" />
    <glyph glyph-name="registered" unicode="&#xae;" horiz-adv-x="390" 
d="M199 222c-48 0 -89 17.333 -123 52c-34.667 34 -52 75 -52 123c0 48.667 17.333 90 52 124c34 34 75 51 123 51c48.667 0 90 -17 124 -51s51 -75.333 51 -124c0 -48 -17 -89 -51 -123c-34 -34.667 -75.333 -52 -124 -52zM199 528c-36 0 -66.667 -12.667 -92 -38
s-38 -55.666 -38 -90.999c0 -36 12.667 -66.667 38 -92s56 -38 92 -38c35.333 0 65.666 12.667 90.999 38s38 56 38 92c0 35.333 -12.667 65.666 -38 90.999s-55.666 38 -90.999 38zM257 306l-11.998 0.00195312c-0.666992 0 -1.33398 0.333008 -2.00098 1l-1 1l-37 76h-2
l-1 -1h-45v-70c0 -2 -1 -3.66699 -3 -5c-1.33301 -1.33301 -3 -2.33301 -5 -3h-9v134c0 16 5.66699 29.667 17 41c10.667 11.333 24 17 40 17h1c16 0 29.333 -5.66699 40 -17s16 -25 16 -41c0 -6 -1.33301 -12 -4 -18c-2 -6 -5 -11.333 -9 -16v-1h-1
c-0.666992 -1.33301 -1.33398 -2.33301 -2.00098 -3l-4 -4c-0.666992 -0.666992 -1.33398 -1 -2.00098 -1l-1 -1v-1h-1c-1.33301 -0.666992 -2.66602 -1.66699 -3.99902 -3c-1.33301 -0.666992 -3 -1.33398 -5 -2.00098l39 -78v-1
c0.666992 -0.666992 0.666992 -1.33398 0 -2.00098c-0.666992 -1.33301 -1.66699 -2 -3 -2zM238.002 440.002c0 11.333 -4.00098 21 -12.001 29s-17.333 12 -28 12h-1c-11.333 0 -21 -4 -29 -12c-7.33301 -8 -11 -17.667 -11 -29v-39
c0.666992 -0.666992 1.33398 -1 2.00098 -1h38c11.333 0 21 4 29 12s12 17.333 12 28z" />
    <glyph glyph-name="macron" unicode="&#xaf;" horiz-adv-x="434" 
d="M376 779l-355.001 0.00195312v37c0 9.33301 3 17.666 9 24.999c6.66699 7.33301 14.334 11.666 23.001 12.999h360v-37c0 -10.667 -3.66699 -19.667 -11 -27s-16 -11 -26 -11z" />
    <glyph glyph-name="degree" unicode="&#xb0;" horiz-adv-x="184" 
d="M94 574c-20 0 -37.333 7.33301 -52 22c-14 14.667 -21 32 -21 52s7 37.333 21 52c14.667 14.667 32 22 52 22c20.667 0 38 -7.33301 52 -22c14.667 -14 22 -31.333 22 -52s-7.33301 -38 -22 -52c-14 -14.667 -31.333 -22 -52 -22zM94 668c-5.33301 0 -10 -2 -14 -6
c-3.33301 -4 -5 -8.66699 -5 -14s1.66699 -10 5 -14c4 -4 8.66699 -6 14 -6s10 2 14 6s6 8.66699 6 14s-2 10 -6 14s-8.66699 6 -14 6z" />
    <glyph glyph-name="plusminus" unicode="&#xb1;" horiz-adv-x="329" 
d="M135 441h-114v33c0 8.66699 2.66699 16 8 22s12 9.33301 20 10h86v108h32c9.33301 0 17 -3.33301 23 -10c6.66699 -6 10 -13.667 10 -23v-75h102v-32c0 -9.33301 -3.33301 -17 -10 -23c-6 -6.66699 -13.667 -10 -23 -10h-69v-108h-33c-8.66699 0 -16 2.66699 -22 8
s-9.33301 12 -10 20v80zM269 229h-248v33c0 8.66699 2.66699 16 8 22s12 9.33301 20 10h253v-32c0 -9.33301 -3.33301 -17 -10 -23c-6 -6.66699 -13.667 -10 -23 -10z" />
    <glyph glyph-name="acute" unicode="&#xb4;" horiz-adv-x="144" 
d="M111 692c-0.666992 -0.666992 -1.33203 -1.99707 -1.99902 -3.99707c-4 -9.33301 -10.333 -23.333 -19 -42c-4 -8.66699 -10.333 -14.334 -19 -17.001c-4 -1.33301 -8 -2 -12 -2c-4.66699 0 -9.33398 1 -14.001 3l-16 7c-5.33301 3.33301 -10.333 5.66602 -15 6.99902
l6 13l9 18l21 45c4.66699 7.33301 11.334 12.333 20.001 15c3.33301 0.666992 6.66602 1 9.99902 1c4.66699 0 9 -1 13 -3l16 -7c6 -2.66699 11 -5 15 -7l-5 -10c-3.33301 -6.66699 -6 -12.334 -8 -17.001z" />
    <glyph glyph-name="mu" unicode="&#xb5;" horiz-adv-x="451" 
d="M22 -90l0.000976562 508.999c0 2.66699 1 5 3 7s4.33301 3 7 3h37c2.66699 0 5 -1 7 -3s3 -4.33301 3 -7v-211c0 -44 13.667 -81.667 41 -113c28 -30.667 61.667 -46 101 -46s73 15.333 101 46c27.333 31.333 41 69 41 113v215c0.666992 2 2 3.33301 4 4
c1.33301 1.33301 3 2 5 2h37c3.33301 0 6 -1 8 -3s3 -4.33301 3 -7v-212c0 -61.333 -19.667 -113.666 -59 -156.999c-38.667 -43.333 -85.334 -65 -140.001 -65c-55.333 0 -102.333 21.667 -141 65l-3 3v-143c0 -3.33301 -1.33301 -6.33301 -4 -9c-2 -2.66699 -5 -4 -9 -4
h-29c-4 0 -7.33301 1.33301 -10 4c-2 2.66699 -3 5.66699 -3 9z" />
    <glyph glyph-name="paragraph" unicode="&#xb6;" horiz-adv-x="890" 
d="M866 728l-0.000976562 -38.998c0 -4 -1.33301 -7 -4 -9c-2.66699 -2.66699 -5.66699 -4 -9 -4h-144c-3.33301 0 -6.33301 -1.33301 -9 -4c-2.66699 -2 -4 -5 -4 -9v-654c0 -4 -1.33301 -7 -4 -9c-2 -2.66699 -5 -4 -9 -4h-39c-3.33301 0 -6.33301 1.33301 -9 4
c-2 2 -3 5 -3 9v654c0 4 -1.33301 7 -4 9c-2.66699 2.66699 -5.66699 4 -9 4h-157v-680h-35c-8 1.33301 -14.667 4.66602 -20 9.99902c-5.33301 6 -8 13.333 -8 22v262c0 3.33301 -1 5.66602 -3 6.99902c-2 2 -4.33301 3 -7 3h-146c-60.667 0 -112.667 21 -156 63
c-44 42.667 -66.333 94.334 -67 155.001v2c0 39.333 9.33301 75.666 28 108.999c19.333 33.333 45 60 77 80c17.333 10.667 36 18.667 56 24c19.333 5.33301 39.333 8 60 8h611c4 0 7 -1.33301 9 -4c2.66699 -2.66699 4.33398 -5.66699 5.00098 -9z" />
    <glyph glyph-name="periodcentered" unicode="&#xb7;" horiz-adv-x="184" 
d="M94 406h-53.001v53c0 14.667 5 27.334 15 38.001c10.667 10 23.334 15 38.001 15s27 -5 37 -15c10.667 -10.667 16 -23.334 16 -38.001c0 -14 -5.33301 -26.333 -16 -37s-23 -16 -37 -16z" />
    <glyph glyph-name="ordmasculine" unicode="&#xba;" horiz-adv-x="168" 
d="M88 605c-18 0 -33.667 6.66602 -47 19.999s-20 29.333 -20 48s6.66699 34.334 20 47.001c13.333 13.333 29 20 47 20c18.667 0 34.667 -6.66699 48 -20s20 -29 20 -47c0 -18.667 -6.66699 -34.667 -20 -48s-29.333 -20 -48 -20zM88 708.999
c-10 0 -18.667 -3.66699 -26 -11c-6.66699 -6.66699 -10 -15 -10 -25s3.66699 -18.667 11 -26c6.66699 -7.33301 15 -11 25 -11c10.667 0 19.334 3.66699 26.001 11c7.33301 7.33301 11 16 11 26s-3.66699 18.333 -11 25c-6.66699 7.33301 -15.334 11 -26.001 11z" />
    <glyph glyph-name="guillemotright" unicode="&#xbb;" horiz-adv-x="574" 
d="M385 738l60.999 0.000976562v-56c0 -16 -5.66699 -29.667 -17 -41c-11.333 -10.667 -24.666 -16 -39.999 -16h-61v57c0 15.333 5.66699 28.666 17 39.999c10.667 10.667 24 16 40 16zM571.999 738.001v-55.999c0 -16 -5.66699 -29.667 -17 -41
c-11.333 -10.667 -24.666 -16 -39.999 -16h-61v57c0 15.333 5.66699 28.666 17 39.999c11.333 10.667 24.666 16 39.999 16h61z" />
    <glyph glyph-name="questiondown" unicode="&#xbf;" horiz-adv-x="390" 
d="M21 306c0 44.667 6.67188 84.668 20.0049 120.001c14 36 34.667 67 62 93c16.667 16 34.334 29.333 53.001 40c18.667 10 37 18.333 55 25c29.333 10 55.666 16.667 78.999 20v140h31c8 0 15 -2.66699 21 -8s9.33301 -12 10 -20v-150h-1v-21h-4l-34 -2
c-22.667 -0.666992 -48.334 -6 -77.001 -16c-15.333 -4.66699 -31 -11.334 -47 -20.001s-30.667 -19.667 -44 -33c-20.667 -20 -36.334 -44 -47.001 -72s-16 -60 -16 -96c0 -35.333 5.33301 -67 16 -95c10 -27.333 25.333 -51.333 46 -72
c13.333 -13.333 28 -24.666 44 -33.999c15.333 -8.66699 30.666 -16 45.999 -22c29.333 -10.667 55 -17 77 -19c22 -1.33301 33.333 -2 34 -2h5v-62h-5c-2 0 -16.333 1.33301 -43 4c-26.667 2 -57.334 9.66699 -92.001 23c-18.667 6.66699 -37.334 15.667 -56.001 27
c-19.333 11.333 -37.333 25.333 -54 42c-26.667 26 -46.667 56.667 -60 92c-12.667 35.333 -19 74.666 -19 117.999zM369.005 848.001c0 -13.333 -4.66699 -24.666 -14 -33.999c-10 -10 -21.667 -15 -35 -15s-25 5 -35 15c-9.33301 9.33301 -14 20.666 -14 33.999v49h49
c13.333 0 25 -4.66699 35 -14c9.33301 -9.33301 14 -21 14 -35z" />
    <glyph glyph-name="Agrave" unicode="&#xc0;" horiz-adv-x="600" 
d="M579 429l0.000976562 -421c0 -3.33301 -1.33301 -6 -4 -8c-2 -2.66699 -4.66699 -4 -8 -4h-38c-3.33301 0 -6 1.33301 -8 4c-2.66699 2 -4 4.66699 -4 8v146h-430v-143c0 -3.33301 -1 -6.33301 -3 -9c-2.66699 -2.66699 -5.66699 -4 -9 -4h-37
c-3.33301 0 -6.33301 1.33301 -9 4s-4 5.66699 -4 9v404c0 1.33301 0.333008 6.33301 1 15c0 8.66699 1.33301 20 4 34c3.33301 26 11.666 57.667 24.999 95c13.333 36.667 35.333 70.667 66 102c24 24 52 43 84 57c31.333 14 66.333 21 105 21c38 0 72 -7.66699 102 -23
c30 -14.667 56.333 -34 79 -58c29.333 -30.667 50 -64 62 -100c12 -36.667 19.667 -68 23 -94c1.33301 -14 2.33301 -25.667 3 -35zM517.001 413c0 0.666992 -0.668945 12 -2.00195 34c-0.666992 22.667 -6 48.667 -16 78c-5.33301 15.333 -12 30.666 -20 45.999
c-8.66699 16 -19.667 30.667 -33 44c-17.333 18 -37.666 33 -60.999 45c-23.333 11.333 -50 17 -80 17c-28.667 0 -54.667 -5.66699 -78 -17c-24 -11.333 -44.667 -26 -62 -44c-14 -13.333 -25.333 -28 -34 -44c-9.33301 -15.333 -16.666 -30.666 -21.999 -45.999
c-10.667 -29.333 -17 -55 -19 -77s-3 -33.333 -3 -34v-204h430v202zM291.999 861c10.667 0 19.999 -3.66699 27.999 -11c8 -8 12 -17.667 12 -29v-40h-44c-11.333 0 -20.666 4 -27.999 12c-8 8 -12 17.333 -12 28v40h44z" />
    <glyph glyph-name="Aacute" unicode="&#xc1;" horiz-adv-x="599" 
d="M578 411l0.000976562 -402.999c0 -3.33301 -1 -6.33301 -3 -9c-2.66699 -2 -5.66699 -3 -9 -3h-37c-3.33301 0 -6.33301 1 -9 3c-2.66699 2.66699 -4 5.66699 -4 9v146h-429v-144c0 -3.33301 -1.33301 -6 -4 -8c-2.66699 -2.66699 -5.66699 -4 -9 -4h-37
c-3.33301 0 -6.33301 1.33301 -9 4c-2 2 -3 4.66699 -3 8v419c0.666992 9.33301 2 21 4 35c4 26 12.333 57.333 25 94c13.333 37.333 35.333 71.333 66 102c24 24 52 43 84 57c31.333 14 66.666 21 105.999 21c38 0 71.667 -7.33301 101 -22
c30 -15.333 56.333 -34.666 79 -57.999c16 -16.667 29.333 -34.334 40 -53.001s19 -37 25 -55c12 -34.667 19 -65.334 21 -92.001c1.33301 -27.333 2 -43 2 -47zM516.001 413.001l-1.00195 34c-1.33301 22.667 -6.66602 48.334 -15.999 77.001
c-5.33301 15.333 -12.333 31 -21 47s-19.334 30.667 -32.001 44c-17.333 18 -37.666 32.667 -60.999 44c-23.333 12 -50.333 18 -81 18c-28.667 -0.666992 -54.667 -6.66699 -78 -18c-23.333 -10.667 -44 -25 -62 -43c-13.333 -13.333 -24.666 -28 -33.999 -44
c-8.66699 -16 -16 -31.667 -22 -47c-10.667 -28.667 -17 -54.334 -19 -77.001l-2 -33v-204h429v202zM283.999 861.001l45 -0.000976562v-40c0 -10.667 -3.66699 -20 -11 -28c-8 -8 -17.667 -12 -29 -12h-43v40c0 11.333 3.66699 21 11 29
c7.33301 6.66699 16.333 10.334 27 11.001z" />
    <glyph glyph-name="Acircumflex" unicode="&#xc2;" horiz-adv-x="609" 
d="M588 411l0.000976562 -402.999c0 -3.33301 -1 -6.33301 -3 -9c-2.66699 -2 -5.66699 -3 -9 -3h-38c-3.33301 0 -6 1 -8 3c-2.66699 2.66699 -4 5.66699 -4 9v146h-430v-144c0 -3.33301 -1 -6 -3 -8c-2.66699 -2.66699 -5.66699 -4 -9 -4h-37
c-3.33301 0 -6.33301 1.33301 -9 4c-2 2 -3 4.66699 -3 8v419c0.666992 9.33301 2 21 4 35c4 26 12.333 57.333 25 94c13.333 37.333 35.333 71.333 66 102c24 24 52 43 84 57c31.333 14 66.666 21 105.999 21c37.333 0 71 -7.33301 101 -22
c30 -15.333 56.333 -34.666 79 -57.999c16 -16.667 29.333 -34.334 40 -53.001c10 -18.667 18.333 -37 25 -55c12 -34.667 19 -65.334 21 -92.001c1.33301 -27.333 2 -43 2 -47zM526.001 413.001l-1.00098 34c-1.33301 22.667 -7 48.334 -17 77.001
c-4.66699 15.333 -11.334 31 -20.001 47s-19.667 30.667 -33 44c-17.333 18 -37.333 32.667 -60 44c-23.333 12 -50.333 18 -81 18c-28.667 -0.666992 -54.667 -6.66699 -78 -18c-24 -10.667 -44.667 -25 -62 -43c-13.333 -13.333 -24.666 -28 -33.999 -44
s-16.666 -31.667 -21.999 -47c-10.667 -28.667 -17 -54.334 -19 -77.001l-3 -33v-204h430v202zM387 760.001c-3.33301 0 -6 1.00098 -8 3.00098l-58 59c-2.66699 2 -5.33398 3 -8.00098 3c-3.33301 0 -6 -1 -8 -3l-57 -57c-3.33301 -2.66699 -7 -3.66699 -11 -3
c-4 0 -7.66699 1.66699 -11 5s-5 6.66602 -5 9.99902s1 6 3 8l81 80c2.66699 2.66699 5.33398 4 8.00098 4c3.33301 0 6.33301 -1.33301 9 -4l78 -78c2 -2.66699 3 -6 3 -10v-1c0 -4 -1.83301 -7.66699 -5.5 -11s-7.16699 -5 -10.5 -5z" />
    <glyph glyph-name="Atilde" unicode="&#xc3;" horiz-adv-x="599" 
d="M578 430l0.000976562 -420.002c0 -3.33301 -1 -6.33301 -3 -9c-2.66699 -2.66699 -5.66699 -4 -9 -4h-38c-3.33301 0 -6 1.33301 -8 4c-2.66699 2.66699 -4 5.66699 -4 9v146h-430v-144c0 -3.33301 -1 -6.33301 -3 -9c-2.66699 -2 -5.66699 -3 -9 -3h-37
c-3.33301 0 -6.33301 1 -9 3c-2 2.66699 -3 5.66699 -3 9v404c0 2 1 16.667 3 44c2 26.667 9.66699 57.334 23 92.001c7.33301 18.667 16.666 37.667 27.999 57c10.667 18.667 24.334 36.334 41.001 53.001c24 24 52 43 84 57c31.333 14 66.666 21 105.999 21
c37.333 0 71 -7.33301 101 -22c30 -15.333 56.333 -34.666 79 -57.999c29.333 -30.667 50 -64.334 62 -101.001c12 -36 19.667 -67 23 -93c2 -14.667 3 -26.667 3 -36zM516.001 414.998l-1.00098 34c-1.33301 22.667 -7 48.334 -17 77.001
c-4.66699 15.333 -11.334 31 -20.001 47c-8.66699 15.333 -19.667 30 -33 44c-17.333 18 -37.666 32.667 -60.999 44c-22.667 11.333 -49.334 17 -80.001 17c-28.667 0 -54.667 -5.66699 -78 -17c-24 -10.667 -44.667 -25 -62 -43c-13.333 -14 -24.666 -28.667 -33.999 -44
c-9.33301 -16 -16.666 -31.667 -21.999 -47c-10.667 -28.667 -17 -54.334 -19 -77.001c-2 -22 -3 -33.333 -3 -34v-203h430v202zM167 799.998v32c0 8 2.66699 14.667 8 20c5.33301 6 12 9.33301 20 10h242v-31c0 -8.66699 -3 -16 -9 -22s-13.333 -9 -22 -9h-239z" />
    <glyph glyph-name="Adieresis" unicode="&#xc4;" horiz-adv-x="593" 
d="M572 430v-420.002c0 -3.33301 -1 -6.33301 -3 -9c-2.66699 -2.66699 -5.66699 -4 -9 -4h-37c-3.33301 0 -6.33301 1.33301 -9 4c-2 2.66699 -3 5.66699 -3 9v146h-430v-144c0 -3.33301 -1.33301 -6.33301 -4 -9c-2.66699 -2 -5.66699 -3 -9 -3h-37
c-3.33301 0 -6.33301 1 -9 3c-2 2.66699 -3 5.66699 -3 9v404c0 2 1 16.667 3 44c2.66699 26.667 10.334 57.334 23.001 92.001c7.33301 18.667 16.666 37.667 27.999 57c11.333 18.667 25.333 36.334 42 53.001c24 24 51.667 43 83 57c32 14 67.333 21 106 21
c38 0 71.667 -7.33301 101 -22c30 -15.333 56.333 -34.666 79 -57.999c29.333 -30.667 50 -64.334 62 -101.001c12 -36 19.667 -67 23 -93c2 -14.667 3 -26.667 3 -36zM511 414.998l-2.00195 34c-1.33301 22.667 -6.66602 48.334 -15.999 77.001
c-5.33301 15.333 -12.333 31 -21 47c-8.66699 15.333 -19.334 30 -32.001 44c-17.333 18 -37.666 32.667 -60.999 44s-50.333 17 -81 17c-28 0 -54 -5.66699 -78 -17c-23.333 -10.667 -44 -25 -62 -43c-13.333 -14 -24.666 -28.667 -33.999 -44
c-8.66699 -16 -16 -31.667 -22 -47c-10.667 -28.667 -17 -54.334 -19 -77.001c-1.33301 -22 -2 -33.333 -2 -34v-203h430v202zM235.998 864.998c11.333 0 21.333 -4 30 -12c8 -8 12 -18 12 -30v-42h-45c-12 0 -22 4 -30 12s-12 18 -12 30v42h45zM366.998 864.998h47v-42
c0 -12 -4 -22 -12 -30c-8.66699 -8 -18.667 -12 -30 -12h-45v42c0 12 4 22 12 30c8 7.33301 17.333 11.333 28 12z" />
    <glyph glyph-name="Aring" unicode="&#xc5;" horiz-adv-x="599" 
d="M578 412v-404c0 -3.33301 -1 -6 -3 -8c-2.66699 -2.66699 -5.66699 -4 -9 -4h-37c-3.33301 0 -6.33301 1.33301 -9 4c-2 2 -3 4.66699 -3 8v146h-430v-143c0 -3.33301 -1.33301 -6.33301 -4 -9c-2.66699 -2 -5.66699 -3 -9 -3h-37c-3.33301 0 -6.33301 1 -9 3
c-2 2.66699 -3 5.66699 -3 9v404c0 2 1 16.333 3 43c2.66699 27.333 10.334 58.333 23.001 93c7.33301 18.667 16.666 37.334 27.999 56.001c11.333 19.333 25.333 37.333 42 54c24 24 51.667 43 83 57c32 14 67.333 21 106 21c38 0 71.667 -7.66699 101 -23
c30 -14.667 56.333 -34 79 -58c16 -16 29.333 -33.333 40 -52s19 -37.334 25 -56.001c12 -34 19 -64.667 21 -92c1.33301 -26.667 2 -42 2 -46zM517 413c0 0.666992 -0.668945 12.333 -2.00195 35c-1.33301 22 -6.66602 47.667 -15.999 77
c-5.33301 15.333 -12.333 31 -21 47c-8.66699 15.333 -19.334 29.666 -32.001 42.999c-17.333 18.667 -37.666 33.667 -60.999 45s-50.333 17 -81 17c-28 0 -54 -5.66699 -78 -17c-23.333 -11.333 -44 -25.666 -62 -42.999c-13.333 -14 -24.666 -28.667 -33.999 -44
c-8.66699 -16 -16 -31.667 -22 -47c-10.667 -29.333 -17 -55 -19 -77c-1.33301 -22 -2 -33.333 -2 -34v-204h430v202zM310.998 753.999c-3.33301 -0.666992 -6.66602 -1 -9.99902 -1c-14 0 -26.667 4.33301 -38 13c-14 10.667 -22.333 24.667 -25 42
c-0.666992 3.33301 -1 6.66602 -1 9.99902c0 14 4.33301 26.667 13 38c10.667 14 24.667 22.333 42 25c4 0.666992 7.66699 1 11 1c13.333 0 25.666 -4.33301 36.999 -13c14.667 -10 23 -24 25 -42c0.666992 -3.33301 1 -6.66602 1 -9.99902c0 -14 -4.33301 -26.667 -13 -38
c-10.667 -14 -24.667 -22.333 -42 -25zM287.998 827.999c-2 -3.33301 -3.00098 -6.66699 -3.00098 -10v-3c0.666992 -4.66699 3 -8.33398 7 -11.001c2.66699 -2 5.16699 -3.16699 7.5 -3.5s4.83301 -0.166016 7.5 0.500977s5.66699 2.66699 9 6
c2 3.33301 3 6.66602 3 9.99902v3c-0.666992 4.66699 -3 8.33398 -7 11.001c-3.33301 2 -6.66602 3.33301 -9.99902 4c-0.666992 0 -2.5 -0.333008 -5.5 -1s-5.83301 -2.66699 -8.5 -6z" />
    <glyph glyph-name="AE" unicode="&#xc6;" horiz-adv-x="969" 
d="M935 672h-341c-3.33301 0 -6.33301 -1.33301 -9 -4s-4 -5.66699 -4 -9v-219c0 -4 1.33301 -7 4 -9c2.66699 -2.66699 5.66699 -4 9 -4h246c3.33301 0 6 -1.33301 8 -4c2.66699 -2 4 -4.66699 4 -8v-34c0 -3.33301 -1.33301 -6.33301 -4 -9c-2 -2 -4.66699 -3 -8 -3h-246
c-3.33301 0 -6.33301 -1.33301 -9 -4s-4 -5.66699 -4 -9v-304h354c3.33301 0 6.33301 -1 9 -3c2.66699 -2.66699 4 -5.66699 4 -9v-31c0 -3.33301 -1.33301 -6.33301 -4 -9s-5.66699 -4 -9 -4h-406c-3.33301 0 -6.33301 1.33301 -9 4c-2.66699 2 -4 4.66699 -4 8v146h-429
v-143c0 -3.33301 -1.33301 -6.33301 -4 -9c-2.66699 -2 -5.66699 -3 -9 -3h-37c-3.33301 0 -6.33301 1 -9 3c-2 2.66699 -3 5.66699 -3 9v404c0 2 1 16.333 3 43c2.66699 27.333 10.334 58.333 23.001 93c7.33301 18.667 16.666 37.334 27.999 56.001
c10.667 19.333 24.334 37.333 41.001 54c24 24 52 43 84 57c31.333 14 66.666 21 105.999 21c38 0 71.667 -7.66699 101 -23c30 -14.667 56.333 -34 79 -58c12.667 -12.667 23.667 -26.334 33 -41.001v101c0 3.33301 1.33301 6.33301 4 9c2 2.66699 4.66699 4 8 4h46v-1h354
c3.33301 0 6.33301 -1.33301 9 -4c2.66699 -2 4 -4.66699 4 -8v-34c0 -3.33301 -1.33301 -6.33301 -4 -9c-2.66699 -2 -5.66699 -3 -9 -3zM516 413c0 0.666992 -0.334961 12.333 -1.00195 35c-1.33301 22 -6.66602 47.667 -15.999 77c-5.33301 15.333 -12.333 31 -21 47
c-8.66699 15.333 -19.334 29.666 -32.001 42.999c-17.333 18.667 -37.666 33.667 -60.999 45s-50.333 17 -81 17c-28.667 0 -54.667 -5.66699 -78 -17s-44 -25.666 -62 -42.999c-13.333 -14 -24.666 -28.667 -33.999 -44c-8.66699 -16 -16 -31.667 -22 -47
c-10.667 -29.333 -17 -55 -19 -77c-1.33301 -22 -2 -33.333 -2 -34v-204h429v202z" />
    <glyph glyph-name="Ccedilla" unicode="&#xc7;" horiz-adv-x="658" 
d="M599 136c4.66699 -4 9.33301 -8.33691 14 -13.0039c4 -4.66699 8.33301 -9.33398 13 -14.001c2.66699 -2 4 -5 4 -9c0 -3.33301 -1.33301 -6.33301 -4 -9c-32.667 -27.333 -69.334 -49 -110.001 -65c-35.333 -13.333 -72.666 -21 -111.999 -23
c12.667 -3.33301 24 -10 34 -20c15.333 -15.333 23 -34 23 -56v-80h-87c-20.667 0.666992 -38.334 8.33398 -53.001 23.001c-16 16 -24 35 -24 57v79h28c-15.333 2 -28.666 5.66699 -39.999 11c-32.667 9.33301 -63 23 -91 41c-52 32 -94 75.333 -126 130
c-31.333 54.667 -47 114.667 -47 180v1c0 35.333 5 69.333 15 102c9.33301 32 22.666 62 39.999 90c32 52 75.333 94 130 126c54.667 31.333 115 47 181 47c42 0 82 -6.66699 120 -20s72.333 -32 103 -56c3.33301 -2 5 -5 5 -9s-1.33301 -7.33301 -4 -10l-27 -27
c-2 -2 -4.66699 -3 -8 -3c-2.66699 -0.666992 -5.33398 0 -8.00098 2c-25.333 18.667 -53.333 33.334 -84 44.001s-63 16 -97 16c-29.333 0 -57.666 -4 -84.999 -12c-26.667 -8 -51.667 -19 -75 -33c-43.333 -27.333 -78 -63.666 -104 -108.999
c-26.667 -46 -39.667 -96 -39 -150c0 -29.333 4.33301 -57.666 13 -84.999c8 -26.667 19.333 -51.667 34 -75c27.333 -42.667 64 -77 110 -103c45.333 -26 95.333 -38.667 150 -38c36 0.666992 70.333 7.33398 103 20.001s62 30 88 52c2.66699 1.33301 5.33398 2 8.00098 2
c3.33301 0 6.33301 -1.33301 9 -4z" />
    <glyph glyph-name="Egrave" unicode="&#xc8;" horiz-adv-x="469" 
d="M436 0h-400c-3.33301 -0 -6 1.33301 -8 4c-2.66699 2 -4 4.66699 -4 8v709c0 4 1.33301 7 4 9c2 2.66699 4.66699 4 8 4h46v-1h354c3.33301 0 6.33301 -1 9 -3c2 -2.66699 3 -5.66699 3 -9v-34c0 -3.33301 -1 -6 -3 -8c-2.66699 -2.66699 -5.66699 -4 -9 -4h-341
c-3.33301 0 -6.33301 -1.33301 -9 -4c-2.66699 -2 -4 -5 -4 -9v-219c0 -3.33301 1.33301 -6.33301 4 -9c2.66699 -2 5.66699 -3 9 -3h245c4 0 7 -1.33301 9 -4c2.66699 -2.66699 4 -5.66699 4 -9v-33c0 -4 -1.33301 -7 -4 -9c-2 -2.66699 -5 -4 -9 -4h-245
c-3.33301 0 -6.33301 -1 -9 -3c-2.66699 -2.66699 -4 -5.66699 -4 -9v-304h354c3.33301 0 6.33301 -1.33301 9 -4c2 -2 3 -5 3 -9v-31c0 -3.33301 -1 -6 -3 -8c-2.66699 -2.66699 -5.66699 -4 -9 -4zM253 850c8 -8 12 -17.333 12 -28v-41h-43c-11.333 0 -21 4 -29 12
c-7.33301 8 -11 17.667 -11 29v40h44c10 -0.666992 19 -4.66699 27 -12z" />
    <glyph glyph-name="Eacute" unicode="&#xc9;" horiz-adv-x="475" 
d="M442 0h-405c-3.33301 -0 -6.33301 1.33301 -9 4c-2.66699 2 -4 5 -4 9v718c0 4 1.33301 7 4 9c2.66699 2.66699 5.66699 4 9 4h46v-1h359c3.33301 0 6.33301 -1 9 -3c2 -2.66699 3 -5.66699 3 -9v-34c0 -3.33301 -1 -6.33301 -3 -9c-2.66699 -2.66699 -5.66699 -4 -9 -4
h-346c-3.33301 0 -6.33301 -1 -9 -3c-2.66699 -2.66699 -4 -5.66699 -4 -9v-223c0 -3.33301 1.33301 -6.33301 4 -9c2.66699 -2 5.66699 -3 9 -3h249c3.33301 0 6.33301 -1.33301 9 -4s4 -5.66699 4 -9v-34c0 -3.33301 -1.33301 -6.33301 -4 -9s-5.66699 -4 -9 -4h-249
c-3.33301 0 -6.33301 -1 -9 -3c-2.66699 -2.66699 -4 -5.66699 -4 -9v-308h359c3.33301 0 6.33301 -1.33301 9 -4c2 -2.66699 3 -5.66699 3 -9v-31c0 -4 -1 -7 -3 -9c-2.66699 -2.66699 -5.66699 -4 -9 -4zM243 862h44v-40c0 -11.333 -4 -21 -12 -29s-17.333 -12 -28 -12
h-44v41c0 10.667 4 20 12 28s17.333 12 28 12z" />
    <glyph glyph-name="Ecircumflex" unicode="&#xca;" horiz-adv-x="472" 
d="M439 0h-403c-3.33301 -0 -6 1.33301 -8 4c-2.66699 2 -4 4.66699 -4 8v715c0 3.33301 1.33301 6.33301 4 9c2 2 4.66699 3 8 3h403c3.33301 0 6.33301 -1.33301 9 -4c2 -2.66699 3 -5.66699 3 -9v-34c0 -3.33301 -1 -6 -3 -8c-2.66699 -2.66699 -5.66699 -4 -9 -4h-344
c-3.33301 0 -6.33301 -1.33301 -9 -4c-2 -2 -3 -5 -3 -9v-221c0 -3.33301 1 -6.33301 3 -9c2.66699 -2 5.66699 -3 9 -3h248c3.33301 0 6 -1.33301 8 -4c2.66699 -2.66699 4 -5.66699 4 -9v-34c0 -3.33301 -1.33301 -6 -4 -8c-2 -2.66699 -4.66699 -4 -8 -4h-248
c-3.33301 0 -6.33301 -1.33301 -9 -4c-2 -2 -3 -5 -3 -9v-306h356c3.33301 0 6.33301 -1 9 -3c2 -2.66699 3 -5.66699 3 -9v-32c0 -3.33301 -1 -6 -3 -8c-2.66699 -2.66699 -5.66699 -4 -9 -4zM312 760c-3.33301 0 -6 1.00098 -8 3.00098l-58 59
c-2.66699 2 -5.33398 3 -8.00098 3c-3.33301 0 -6 -1 -8 -3l-57 -57c-3.33301 -2.66699 -7 -3.66699 -11 -3c-4 0 -7.66699 1.66699 -11 5s-5 6.66602 -5 9.99902s1 6 3 8l81 80c2.66699 2.66699 5.33398 4 8.00098 4c3.33301 0 6.33301 -1.33301 9 -4l78 -78
c2 -2.66699 3 -6 3 -10v-1c0 -4 -1.83301 -7.66699 -5.5 -11s-7.16699 -5 -10.5 -5z" />
    <glyph glyph-name="Edieresis" unicode="&#xcb;" horiz-adv-x="469" 
d="M436 0h-400c-3.33301 -0 -6.33301 1.33301 -9 4c-2 2 -3 4.66699 -3 8v709c0 3.33301 1 6.33301 3 9c2.66699 2.66699 5.66699 4 9 4h46v-1h354c3.33301 0 6 -1.33301 8 -4c2.66699 -2 4 -4.66699 4 -8v-34c0 -3.33301 -1.33301 -6.33301 -4 -9c-2 -2 -4.66699 -3 -8 -3
h-342c-3.33301 0 -6 -1.33301 -8 -4c-2.66699 -2 -4 -5 -4 -9v-219c0 -3.33301 1.33301 -6.33301 4 -9c2 -2.66699 4.66699 -4 8 -4h246c3.33301 0 6.33301 -1 9 -3c2 -2.66699 3 -5.66699 3 -9v-33c0 -4 -1 -7 -3 -9c-2.66699 -2.66699 -5.66699 -4 -9 -4h-246
c-3.33301 0 -6 -1.33301 -8 -4c-2.66699 -2 -4 -4.66699 -4 -8v-304h354c3.33301 0 6 -1.33301 8 -4c2.66699 -2 4 -5 4 -9v-31c0 -3.33301 -1.33301 -6 -4 -8c-2 -2.66699 -4.66699 -4 -8 -4zM125 865h46c11.333 -0.666992 21 -4.66699 29 -12c8 -8 12 -18 12 -30v-42h-45
c-11.333 0 -21.333 4 -30 12c-8 8.66699 -12 18.667 -12 30v42zM303 865h45v-42c0 -11.333 -4 -21.333 -12 -30c-8 -8 -18 -12 -30 -12h-44v42c0 12 4 22 12 30s17.667 12 29 12z" />
    <glyph glyph-name="Igrave" unicode="&#xcc;" horiz-adv-x="143" 
d="M47 -3c-2 0 -4 1 -6 3c-1.33301 1.33301 -2 3.33301 -2 6v723c0 2.66699 0.666992 5 2 7c2 1.33301 4.33301 2 7 2h42c2.66699 0 5 -0.666992 7 -2c1.33301 -2 2 -4.33301 2 -7v-723c0 -2.66699 -0.666992 -4.66699 -2 -6c-2 -2 -4 -3 -6 -3h-44zM19 861
l43.999 0.000976562c10.667 -0.666992 20 -4.33398 28 -11.001c8 -8 12 -17.667 12 -29v-40h-44c-11.333 0 -20.666 4 -27.999 12c-8 8 -12 17.333 -12 28v40z" />
    <glyph glyph-name="Iacute" unicode="&#xcd;" horiz-adv-x="123" 
d="M30 -3c-2.66699 0 -4.66699 1 -6 3c-2 1.33301 -3 3.33301 -3 6v723c0 2.66699 1 5 3 7c2 1.33301 4.33301 2 7 2h41c2.66699 0 5 -0.666992 7 -2c2 -2 3 -4.33301 3 -7v-723c0 -2.66699 -0.666992 -4.66699 -2 -6c-2 -2 -4 -3 -6 -3h-44zM59 862h44.999v-40
c0 -11.333 -4 -21 -12 -29c-7.33301 -8 -16.666 -12 -27.999 -12h-43v41c0 10.667 3.66699 20 11 28c7.33301 7.33301 16.333 11.333 27 12z" />
    <glyph glyph-name="Icircumflex" unicode="&#xce;" horiz-adv-x="184" 
d="M70 -3c-2.66699 0 -4.66602 1 -5.99902 3c-1.33301 1.33301 -2 3.33301 -2 6v723c0 2.66699 0.666992 5 2 7c2 1.33301 4.33301 2 7 2h41c3.33301 0 5.66602 -0.666992 6.99902 -2c2 -2 3 -4.33301 3 -7v-723c0 -2.66699 -0.666992 -4.66699 -2 -6c-2 -2 -4 -3 -6 -3h-44
zM167.001 760c-3.33301 0 -6 1.00098 -8 3.00098l-58 59c-2.66699 2 -5.33398 3 -8.00098 3c-3.33301 0 -6 -1 -8 -3l-57 -57c-3.33301 -2.66699 -7 -3.66699 -11 -3c-4 0 -7.66699 1.66699 -11 5s-5 6.66602 -5 9.99902s1 6 3 8l81 80c2.66699 2.66699 5.33398 4 8.00098 4
c3.33301 0 6.33301 -1.33301 9 -4l78 -78c2 -2.66699 3 -6 3 -10v-1c0 -4 -1.83301 -7.66699 -5.5 -11s-7.16699 -5 -10.5 -5z" />
    <glyph glyph-name="Idieresis" unicode="&#xcf;" horiz-adv-x="225" 
d="M91 0c-2 0 -4 0.666992 -6 2c-1.33301 2 -2 4 -2 6v724c0 2.66699 1 4.66699 3 6c2 2 4.33301 3 7 3h41c2.66699 0 5 -1 7 -3c2 -1.33301 3 -3.33301 3 -6v-724c0 -2 -1 -4 -3 -6c-1.33301 -1.33301 -3.33301 -2 -6 -2h-44zM77 854
c8.66699 -8.66699 13.001 -18.667 13.001 -30v-43h-45c-12 0 -22 4.33301 -30 13c-8.66699 8 -13 18 -13 30v42h47c11.333 -0.666992 20.666 -4.66699 27.999 -12zM183.001 781h-44v43c0 11.333 4 21.333 12 30c7.33301 7.33301 16.333 11.333 27 12h48v-42
c0 -12 -4.33301 -22 -13 -30c-8 -8.66699 -18 -13 -30 -13z" />
    <glyph glyph-name="Eth" unicode="&#xd0;" horiz-adv-x="720" 
d="M155 333h-105.001v25c0 12.667 2.66699 21.667 8 27l4 4c4.66699 4 10 6.33301 16 7h77v328c0 3.33301 1 6.33301 3 9c2.66699 2 5.66699 3 9 3h168c35.333 -0.666992 69 -6 101 -16c32.667 -10 62.667 -24 90 -42c52 -33.333 93.667 -77.333 125 -132
c31.333 -55.333 47 -116 47 -182s-15.667 -126.333 -47 -181c-31.333 -55.333 -72.666 -99.333 -123.999 -132c-28 -18 -58.333 -32 -91 -42c-32 -10 -65.667 -15.667 -101 -17h-168c-3.33301 0 -6.33301 1.33301 -9 4c-2 2.66699 -3 5.66699 -3 9v328zM330.999 672
l-100.001 0.00195312c-4 0 -7 -1 -9 -3c-2.66699 -2.66699 -4 -5.66699 -4 -9v-264h105v-15c-0.666992 -6 -0.666992 -11.333 0 -16c0 -8.66699 -3 -16 -9 -22c-1.33301 -1.33301 -2.66602 -2.33301 -3.99902 -3c-5.33301 -4 -11.666 -6.33301 -18.999 -7h-73v-265
c0 -3.33301 1.33301 -6.33301 4 -9c2 -2 5 -3 9 -3h100c29.333 0 57.666 4.33301 84.999 13c26.667 8.66699 51.667 20.334 75 35.001c43.333 27.333 78 63.666 104 108.999c26 46 39 96.333 39 151c0 29.333 -4 57.666 -12 84.999s-19 52.666 -33 75.999
c-26.667 43.333 -62.667 78.666 -108 105.999c-45.333 26.667 -95.333 40.334 -150 41.001z" />
    <glyph glyph-name="Ntilde" unicode="&#xd1;" horiz-adv-x="657" 
d="M619 -2l-37 -0.00292969c-3.33301 0 -6.33301 1 -9 3c-2 2.66699 -3 5.66699 -3 9v402l-2 33c-0.666992 22 -6 47.667 -16 77c-4.66699 15.333 -11.334 30.666 -20.001 45.999c-8.66699 16 -19.334 30.667 -32.001 44c-20 20.667 -44 36.334 -72 47.001s-60 16 -96 16
c-34.667 -0.666992 -66 -6 -94 -16c-27.333 -10 -51.333 -25 -72 -45c-13.333 -14 -24.333 -28.667 -33 -44c-9.33301 -15.333 -16.666 -30.666 -21.999 -45.999c-10.667 -28.667 -17 -54 -19 -76c-1.33301 -22 -2 -33.333 -2 -34v-401c0 -3.33301 -1.33301 -6.33301 -4 -9
c-2.66699 -2 -5.66699 -3 -9 -3h-37c-3.33301 0 -6 1 -8 3c-2.66699 2.66699 -4 5.66699 -4 9v400c0 2 1.33301 16.333 4 43c2 26.667 9.66699 57.334 23 92.001c6.66699 18 15.667 36.333 27 55c10.667 19.333 24.334 37 41.001 53c26 26 56.667 46 92 60
c34.667 13.333 73.667 20 117 20c44.667 0 84.667 -7 120 -21c35.333 -13.333 66 -33.666 92 -60.999c29.333 -30 50 -63 62 -99s19.333 -67 22 -93c2 -14 3 -25.667 3 -35v-417c0 -3.33301 -1 -6.33301 -3 -9c-2.66699 -2 -5.66699 -3 -9 -3zM433 799.997h-237.999v31
c0 8 2.66699 15 8 21s11.666 9.33301 18.999 10h243v-31c0 -8.66699 -3 -16 -9 -22s-13.667 -9 -23 -9z" />
    <glyph glyph-name="Ograve" unicode="&#xd2;" horiz-adv-x="780" 
d="M391 5c-65.333 0 -125.665 15.999 -180.998 47.999c-54.667 32 -98.334 74 -131.001 126c-17.333 28 -30.666 58.333 -39.999 91c-10 32.667 -15 66.334 -15 101.001c0 35.333 5 69.333 15 102c9.33301 32.667 22.666 63 39.999 91c32.667 52 76.334 94 131.001 126
c55.333 32 115.666 48 180.999 48c35.333 0 69.333 -4.66699 102 -14s63 -23 91 -41c52.667 -32 94.667 -75.667 126 -131c32 -54.667 48 -115 48 -181c0 -35.333 -4.66699 -69 -14 -101c-10 -32.667 -23.667 -63 -41 -91c-32.667 -52 -76.334 -94 -131.001 -126
s-115 -48 -181 -48zM391.001 674.999c-29.333 0 -57.334 -3.99902 -84.001 -11.999c-27.333 -8 -52.666 -19 -75.999 -33c-43.333 -27.333 -78 -63.666 -104 -108.999c-26.667 -45.333 -40 -95.333 -40 -150c0 -29.333 4 -57.333 12 -84c8 -27.333 19.333 -52.333 34 -75
c26.667 -43.333 62.667 -78.333 108 -105c46 -26 96 -39 150 -39c29.333 0 57.666 4 84.999 12s52.333 19 75 33c43.333 27.333 78.333 63.666 105 108.999c26 45.333 39 95 39 149c0 54.667 -13.333 104.667 -40 150c-26 45.333 -60.667 81.666 -104 108.999
c-23.333 14 -48.333 25 -75 33c-27.333 8 -55.666 12 -84.999 12zM400 850c8 -8 12 -17.333 12 -28v-41h-44c-10.667 0 -20 4 -28 12s-12 17.667 -12 29v40h44c10.667 0 20 -4 28 -12z" />
    <glyph glyph-name="Oacute" unicode="&#xd3;" horiz-adv-x="779" 
d="M387 5c-35.333 0 -69.332 5 -101.999 15c-32.667 9.33301 -63 22.666 -91 39.999c-52 32.667 -94 76.334 -126 131.001c-31.333 54.667 -47 114.667 -47 180c0 35.333 4.66699 69.333 14 102s23 63 41 91c32 52 75.333 94 130 126c55.333 32 115.666 48 180.999 48
c35.333 0 69.333 -4.66699 102 -14s63.334 -23 92.001 -41c52 -32 93.667 -75.667 125 -131c32 -54.667 48 -115 48 -181c0 -35.333 -4.66699 -69 -14 -101c-10 -32.667 -23.667 -63 -41 -91c-32.667 -52 -76.334 -94 -131.001 -126s-115 -48 -181 -48zM387.001 675
c-29.333 0 -57.333 -3.99902 -84 -11.999c-27.333 -8 -52.666 -19 -75.999 -33c-42.667 -27.333 -77.334 -63.666 -104.001 -108.999c-26 -45.333 -39 -95.333 -39 -150c0 -29.333 4 -57.333 12 -84c8 -27.333 19 -52.333 33 -75
c27.333 -43.333 63.666 -78.333 108.999 -105c45.333 -26 95 -39 149 -39c30 0 58.333 4 85 12c27.333 8 52.333 19 75 33c43.333 27.333 78.333 63.666 105 108.999c26 45.333 39 95 39 149c0 54.667 -13 104.667 -39 150c-26.667 45.333 -61.667 81.666 -105 108.999
c-23.333 14 -48.333 25 -75 33c-27.333 8 -55.666 12 -84.999 12zM386.001 861.001l45 -0.000976562v-40c0 -10.667 -4 -20 -12 -28s-17.333 -12 -28 -12h-44v40c0 11.333 4 21 12 29c7.33301 6.66699 16.333 10.334 27 11.001z" />
    <glyph glyph-name="Ocircumflex" unicode="&#xd4;" horiz-adv-x="779" 
d="M392 0c-35.333 0 -69.334 4.66504 -102.001 13.998c-32.667 10 -63 23.667 -91 41c-52 32.667 -94 76.334 -126 131.001s-48 114.667 -48 180c0 66 16 126.333 48 181s74 98.334 126 131.001c28 17.333 58.333 31 91 41c32.667 9.33301 66.667 14 102 14
s69.333 -4.66699 102 -14c32.667 -10 63 -23.667 91 -41c52 -32 94 -75.667 126 -131c32 -54.667 48 -115 48 -181c0 -35.333 -5 -69.333 -15 -102c-9.33301 -32.667 -22.666 -63 -39.999 -91c-32.667 -52 -76.334 -93.667 -131.001 -125
c-55.333 -32 -115.666 -48 -180.999 -48zM391.999 669.998c-29.333 0 -57.665 -4 -84.998 -12c-26.667 -8 -51.667 -19 -75 -33c-43.333 -27.333 -78 -63.666 -104 -108.999c-26.667 -45.333 -40 -95.333 -40 -150c0 -54 13.333 -103.667 40 -149
c26 -46 60.667 -82.333 104 -109c23.333 -14.667 48.333 -26 75 -34c27.333 -8 55.666 -12 84.999 -12s57.666 4 84.999 12c26.667 8 51.667 19.333 75 34c43.333 26.667 78 63 104 109c26.667 45.333 40 95 40 149c0 29.333 -4 57.666 -12 84.999s-19.333 52.333 -34 75
c-26.667 43.333 -63 78.333 -109 105c-45.333 26 -95 39 -149 39zM467 759.998c-3.33301 0 -6 1.00098 -8 3.00098l-58 59c-2.66699 2 -5.33398 3 -8.00098 3c-3.33301 0 -6 -1 -8 -3l-57 -57c-3.33301 -2.66699 -7 -3.66699 -11 -3c-4 0 -7.66699 1.66699 -11 5
s-5 6.66602 -5 9.99902s1 6 3 8l81 80c2.66699 2.66699 5.33398 4 8.00098 4c3.33301 0 6.33301 -1.33301 9 -4l78 -78c2 -2.66699 3 -6 3 -10v-1c0 -4 -1.83301 -7.66699 -5.5 -11s-7.16699 -5 -10.5 -5z" />
    <glyph glyph-name="Otilde" unicode="&#xd5;" horiz-adv-x="780" 
d="M390 0c-35.333 0 -69.333 4.66602 -102 13.999c-32.667 10 -63 23.667 -91 41c-52 32.667 -94 76.334 -126 131.001s-48 114.667 -48 180c0 35.333 5 69.333 15 102c9.33301 32.667 22.666 63 39.999 91c32.667 52 76.334 94 131.001 126s115 48 181 48
c35.333 0 69.333 -4.66699 102 -14c32.667 -10 63 -23.667 91 -41c52 -32 94 -75.667 126 -131c32 -54.667 48 -115 48 -181c0 -35.333 -4.66699 -69.333 -14 -102c-10 -32.667 -23.667 -63 -41 -91c-32.667 -52 -76.334 -93.667 -131.001 -125
c-55.333 -32 -115.666 -48 -180.999 -48zM390 669.999c-54.667 0 -104.667 -13.001 -150 -39.001c-45.333 -26.667 -81.333 -61.667 -108 -105c-14.667 -22.667 -26 -47.667 -34 -75s-12 -55.666 -12 -84.999s4 -57.333 12 -84c8 -27.333 19.333 -52.666 34 -75.999
c26.667 -43.333 62.667 -78 108 -104c45.333 -26.667 95.333 -40 150 -40c29.333 0 57.666 4 84.999 12c26.667 8 51.667 19.333 75 34c43.333 26.667 78 63 104 109c26.667 45.333 40 95 40 149c0 54.667 -13.333 104.667 -40 150c-26 45.333 -60.667 81.666 -104 108.999
c-23.333 14 -48.333 25 -75 33c-27.333 8 -55.666 12 -84.999 12zM255 799.998l0.000976562 32c0 8 2.66699 14.667 8 20c5.33301 6 11.666 9.33301 18.999 10h243v-31c0 -8.66699 -3 -16 -9 -22s-13.333 -9 -22 -9h-239z" />
    <glyph glyph-name="Odieresis" unicode="&#xd6;" horiz-adv-x="779" 
d="M387 0c-35.333 0 -69.332 4.66602 -101.999 13.999c-32.667 10 -63 23.667 -91 41c-52 32.667 -94 76.334 -126 131.001c-31.333 54.667 -47 114.667 -47 180c0 35.333 4.66699 69.333 14 102s23 63 41 91c32 52 75.333 94 130 126c55.333 32 115.666 48 180.999 48
c35.333 0 69.333 -4.66699 102 -14c32.667 -10 63.334 -23.667 92.001 -41c52 -32 93.667 -75.667 125 -131c32 -54.667 48 -115 48 -181c0 -35.333 -4.66699 -69.333 -14 -102c-10 -32.667 -23.667 -63 -41 -91c-32.667 -52 -76.334 -93.667 -131.001 -125
c-54.667 -32 -115 -48 -181 -48zM387.001 671.999c-29.333 0 -57.333 -4.00098 -84 -12.001c-27.333 -8 -52.666 -19.333 -75.999 -34c-42.667 -26.667 -77.334 -62.667 -104.001 -108c-26 -45.333 -39 -95.333 -39 -150c0 -29.333 4 -57.666 12 -84.999
c8 -26.667 19 -51.667 33 -75c27.333 -43.333 63.666 -78 108.999 -104c45.333 -26.667 95 -40 149 -40c30 0 58.333 4 85 12c27.333 8 52.333 19.333 75 34c43.333 26.667 78.333 62.667 105 108c26 46 39 96 39 150c0 54.667 -13 104.667 -39 150
c-26.667 45.333 -61.667 81.333 -105 108c-23.333 14.667 -48.333 26 -75 34c-27.333 8 -55.666 12 -84.999 12zM355.001 852.998c8.66699 -8 12.999 -18 12.999 -30v-42h-47c-11.333 0 -20.666 4 -27.999 12c-8.66699 8.66699 -13 18.667 -13 30v42h46
c11.333 0 21 -4 29 -12zM459 864.998h45v-42c0 -11.333 -4.33301 -21.333 -13 -30c-8 -8 -17.667 -12 -29 -12h-45v42c0 12 4 22 12 30s18 12 30 12z" />
    <glyph glyph-name="multiply" unicode="&#xd7;" horiz-adv-x="369" 
d="M53 480c-5.33301 4.66699 -11 10.335 -17 17.002l-10 10l30 30c8 8 17.333 12.333 28 13h2c10 0 19 -3 27 -9l66 -67l100 100c4.66699 -4 9.66699 -9 15 -15c6 -5.33301 11 -10.333 15 -15c8 -8.66699 12 -18.667 12 -30c0 -12 -4 -22 -12 -30l-71 -71l80 -78
c4 -4 10.333 -10 19 -18l12 -12l-31 -31c-8 -8 -18 -12 -30 -12s-22 4 -30 12l-80 79l-70 -70l-2 -4c-5.33301 -4.66699 -11.333 -10.334 -18 -17.001l-10 -10l-15 15c-5.33301 6 -10.333 11.333 -15 16c-8 7.33301 -12.333 16.666 -13 27.999v2c0 10 3.33301 18.667 10 26
l73 74l-62 63c-0.666992 0.666992 -1.66699 2 -3 4z" />
    <glyph glyph-name="Oslash" unicode="&#xd8;" horiz-adv-x="800" 
d="M696 737c4.66699 -5.33301 11.9951 -12.998 21.9951 -22.998c6 -6 9 -13.667 9 -23c0 -8.66699 -3 -16 -9 -22l-53 -53c18 -20 34.333 -42 49 -66c32 -55.333 48 -116 48 -182c0 -35.333 -5 -69.333 -15 -102c-9.33301 -32.667 -22.666 -63.334 -39.999 -92.001
c-32.667 -52 -76.667 -94 -132 -126s-115.666 -48 -180.999 -48c-36 0 -70.333 5 -103 15c-32.667 9.33301 -63 22.666 -91 39.999c-19.333 12 -37.333 25.333 -54 40l-73 -73c-3.33301 -4 -7.66602 -8.33301 -12.999 -13l-7 -8l-23 23c-6 5.33301 -9.33301 12.333 -10 21v1
c0 8 2.33301 14.667 7 20l76 76c-10.667 14 -20.667 29 -30 45c-32 54.667 -48 115 -48 181c0 36 5 70.333 15 103s23.667 63 41 91c32.667 52.667 76.334 95 131.001 127c55.333 31.333 116 47 182 47c35.333 0 69.333 -4.66699 102 -14
c32.667 -10 63.334 -23.667 92.001 -41l30 -21l55 54c2.66699 3.33301 7 8 13 14zM242.995 103.002c46 -26.667 96.335 -39.9971 151.002 -39.9971c29.333 0 57.333 4 84 12c27.333 8 52.666 19.333 75.999 34c43.333 26.667 78.333 63 105 109
c26.667 45.333 40 95.333 40 150c0 29.333 -4 57.666 -12 84.999s-19.333 52.666 -34 75.999c-10 15.333 -21 29.666 -33 42.999l-429 -432c15.333 -14 32.666 -26.333 51.999 -37zM393.997 673.005c-54.667 0 -105 -13.3359 -151 -40.0029
c-45.333 -26 -81.333 -60.667 -108 -104c-14.667 -23.333 -26 -48.666 -34 -75.999s-12 -55.666 -12 -84.999s4 -57.333 12 -84c8 -27.333 19.333 -52.666 34 -75.999c4 -7.33301 8.33301 -14.333 13 -21l425 427c-9.33301 6.66699 -19 13 -29 19
c-45.333 26.667 -95.333 40 -150 40z" />
    <glyph glyph-name="Ugrave" unicode="&#xd9;" horiz-adv-x="657" 
d="M38 740l37.999 0.00488281c3.33301 0 6 -1 8 -3c2.66699 -2.66699 4 -5.66699 4 -9v-403c0 -0.666992 0.333008 -12 1 -34c1.33301 -22.667 7 -48.334 17 -77.001c4.66699 -15.333 11.334 -31 20.001 -47c8.66699 -15.333 19.334 -30 32.001 -44
c20 -20.667 44.333 -36.334 73 -47.001c28 -10.667 60 -16 96 -16c34.667 0 66 5.33301 94 16c27.333 10 51.333 25.333 72 46c13.333 13.333 24.333 28 33 44c9.33301 15.333 17 30.666 23 45.999c10.667 28.667 16.667 54 18 76l3 34v404c0 3.33301 1.33301 6 4 8
c2 2.66699 4.66699 4 8 4h38c3.33301 0 6 -1.33301 8 -4c2.66699 -2 4 -4.66699 4 -8v-402c0 -2 -1.33301 -16.667 -4 -44c-2 -26.667 -9.66699 -57 -23 -91c-6.66699 -18.667 -15.667 -37.334 -27 -56.001c-11.333 -19.333 -25.333 -37 -42 -53
c-26 -26.667 -56.667 -46.667 -92 -60c-34.667 -13.333 -73.667 -20 -117 -20c-44.667 0 -85 7 -121 21c-35.333 13.333 -66 33.666 -92 60.999c-16 16 -29 33.333 -39 52c-10.667 18.667 -19.334 37 -26.001 55c-12 34 -18.667 64.333 -20 91c-2 27.333 -3 43 -3 47v401
c0 3.33301 1.33301 6.33301 4 9c2 2 4.66699 3 8 3zM330.999 862.005c10.667 0 19.999 -4 27.999 -12s12 -17.333 12 -28v-41h-44c-11.333 0 -20.666 4 -27.999 12c-8 8 -12 17.667 -12 29v40h44z" />
    <glyph glyph-name="Uacute" unicode="&#xda;" horiz-adv-x="657" 
d="M38 738l38 0.00488281c3.33301 0 6 -1 8 -3c2.66699 -2.66699 4 -5.66699 4 -9v-403c0 -0.666992 0.333008 -12 1 -34c1.33301 -22 7 -47.667 17 -77c4.66699 -15.333 11.334 -31 20.001 -47c8.66699 -15.333 19.334 -30 32.001 -44
c20 -20.667 44.333 -36.334 73 -47.001c28 -10 60 -15 96 -15c34.667 0 66 5 94 15s52 25.333 72 46c13.333 13.333 24.666 28 33.999 44c8.66699 15.333 16 30.666 22 45.999c10.667 28.667 16.667 54.334 18 77.001c2 22 3 33.333 3 34v403c0 3.33301 1.33301 6 4 8
c2 2.66699 4.66699 4 8 4h38c3.33301 0 6 -1.33301 8 -4c2.66699 -2 4 -4.66699 4 -8v-402c0 -2 -1.33301 -16.333 -4 -43c-2 -26.667 -9.66699 -57.334 -23 -92.001c-6.66699 -18.667 -15.667 -37.334 -27 -56.001s-25.333 -36.334 -42 -53.001
c-26 -26 -56.667 -46 -92 -60c-34.667 -13.333 -73.667 -20 -117 -20c-44.667 0 -84.667 7 -120 21c-36 13.333 -67 33.666 -93 60.999c-16 16 -29 33.333 -39 52c-10.667 18.667 -19.334 37 -26.001 55c-12 34 -18.667 64.667 -20 92c-2 26.667 -3 42 -3 46v401
c0 3.33301 1.33301 6.33301 4 9c2 2 4.66699 3 8 3zM346 862.005h46v-41c0 -10.667 -4 -20 -12 -28s-17.667 -12 -29 -12h-43v40c0 11.333 4 21 12 29c7.33301 7.33301 16 11.333 26 12z" />
    <glyph glyph-name="Ucircumflex" unicode="&#xdb;" horiz-adv-x="656" 
d="M37 740l37.002 0.00390625c3.33301 0 6.33301 -1 9 -3c2 -2.66699 3 -5.66699 3 -9v-403c0 -0.666992 0.666992 -12 2 -34c0.666992 -22 6 -47.667 16 -77c5.33301 -15.333 12.333 -31 21 -47c8 -15.333 18.667 -30 32 -44c20 -20.667 44 -36.334 72 -47.001
c28 -10 60 -15 96 -15c34.667 0 66 5 94 15s52 25.333 72 46c13.333 13.333 24.666 28 33.999 44c8.66699 15.333 16 30.666 22 45.999c10.667 28.667 17 54.334 19 77.001c2 22 3 33.333 3 34v403c0 3.33301 1 6 3 8c2.66699 2.66699 5.66699 4 9 4h37
c3.33301 0 6.33301 -1.33301 9 -4c2 -2 3 -4.66699 3 -8v-402c0 -2 -1 -16.333 -3 -43c-2.66699 -27.333 -10.334 -58 -23.001 -92c-7.33301 -18.667 -16.666 -37.334 -27.999 -56.001c-10.667 -18.667 -24.334 -36.334 -41.001 -53.001
c-26.667 -26.667 -57.334 -46.667 -92.001 -60c-35.333 -13.333 -74.666 -20 -117.999 -20c-44.667 0 -84.667 7 -120 21c-35.333 13.333 -66.333 33.666 -93 60.999c-15.333 16 -28.333 33.333 -39 52s-19 37 -25 55c-12 34 -19 64.667 -21 92c-1.33301 26.667 -2 42 -2 46
v401c0 3.33301 1 6.33301 3 9c2.66699 2 5.66699 3 9 3zM403.002 760.004c-3.33301 0 -6 1.00098 -8 3.00098l-58 59c-2.66699 2 -5.33398 3 -8.00098 3c-3.33301 0 -6 -1 -8 -3l-57 -57c-3.33301 -2.66699 -7 -3.66699 -11 -3c-4 0 -7.66699 1.66699 -11 5
s-5 6.66602 -5 9.99902s1 6 3 8l81 80c2.66699 2.66699 5.33398 4 8.00098 4c3.33301 0 6.33301 -1.33301 9 -4l78 -78c2 -2.66699 3 -6 3 -10v-1c0 -4 -1.83301 -7.66699 -5.5 -11s-7.16699 -5 -10.5 -5z" />
    <glyph glyph-name="Udieresis" unicode="&#xdc;" horiz-adv-x="661" 
d="M42 742l38 0.00390625c3.33301 0 6 -1 8 -3c2.66699 -2.66699 4 -5.66699 4 -9v-403c0 -0.666992 0.666992 -12 2 -34c0.666992 -22.667 6 -48.334 16 -77.001c4.66699 -15.333 11.334 -31 20.001 -47c8.66699 -15.333 19.667 -30 33 -44
c19.333 -20.667 43.333 -36.334 72 -47.001c28 -10.667 60 -16 96 -16c34.667 0 66 5.33301 94 16c28 10 52 25.333 72 46c13.333 13.333 24.666 28 33.999 44c8.66699 15.333 16 30.666 22 45.999c10.667 28.667 16.667 54.334 18 77.001l3 33v404c0 3.33301 1.33301 6 4 8
c2 2.66699 4.66699 4 8 4h38c3.33301 0 6 -1.33301 8 -4c2.66699 -2 4 -4.66699 4 -8v-402c0 -2 -1.33301 -16.333 -4 -43c-2 -27.333 -9.66699 -58 -23 -92c-6.66699 -18.667 -15.667 -37.334 -27 -56.001c-11.333 -19.333 -25.333 -37 -42 -53
c-26 -26.667 -56.667 -46.667 -92 -60c-34.667 -13.333 -73.667 -20 -117 -20c-44.667 0 -84.667 7 -120 21c-36 13.333 -67 33.666 -93 60.999c-29.333 30 -50 63.333 -62 100c-12 36 -19.333 67 -22 93c-2 14 -3 25.667 -3 35c-0.666992 9.33301 -1 15 -1 17v401
c0 3.33301 1.33301 6.33301 4 9c2 2 4.66699 3 8 3zM411 781.004h-45v42c0 12 4 22 12 30c8.66699 8 18.667 12 30 12h45v-42c0 -11.333 -4 -21.333 -12 -30c-8.66699 -8 -18.667 -12 -30 -12zM305 853.004c8 -8 11.999 -18 11.999 -30v-42h-45c-12 0 -22 4 -30 12
c-8 8.66699 -12 18.667 -12 30v42h46c10.667 -0.666992 20.334 -4.66699 29.001 -12z" />
    <glyph glyph-name="Yacute" unicode="&#xdd;" horiz-adv-x="678" 
d="M358 0l-38.998 0.000976562c-4 0 -7 1.33301 -9 4c-2.66699 2 -4 5 -4 9v130c-34.667 2.66699 -66.667 9.66699 -96 21c-37.333 14 -69.666 35.333 -96.999 64c-16.667 16.667 -30.334 35 -41.001 55c-10.667 19.333 -19.334 38.666 -26.001 57.999
c-12.667 35.333 -20 67 -22 95c-2 28.667 -3 45 -3 49v244c0 4 1.33301 7 4 9c2.66699 2.66699 5.66699 4 9 4h39c4 0 7 -1.33301 9 -4c2.66699 -2 4 -5 4 -9v-246c0 -0.666992 0.666992 -12.667 2 -36c0.666992 -23.333 6.33398 -50 17.001 -80
c5.33301 -16.667 12.333 -33 21 -49c9.33301 -16.667 20.666 -32 33.999 -46c20.667 -22 46 -38.333 76 -49c29.333 -11.333 62.666 -17 99.999 -17c36.667 0 69.667 5.33301 99 16c28.667 10.667 53.667 27 75 49c14 14 25.667 29 35 45c9.33301 16.667 17 33 23 49
c11.333 30.667 18 57.334 20 80.001c2 23.333 3 35.333 3 36v246c0 3.33301 1.33301 6.33301 4 9c2 2 5 3 9 3h39c3.33301 0 6.33301 -1 9 -3c2 -2.66699 3 -5.66699 3 -9v-246c0 -2 -1 -17 -3 -45c-2.66699 -28 -10.667 -60 -24 -96c-8 -20 -17.667 -39.667 -29 -59
c-12 -20 -26.333 -38.333 -43 -55c-28 -28 -60.333 -49 -97 -63c-27.333 -10.667 -57 -17.334 -89 -20.001v-130c0 -4 -1 -7 -3 -9c-2.66699 -2.66699 -5.66699 -4 -9 -4zM360.002 781.001l-71.001 0.000976562v53c0 14 4.66699 26.333 14 37c10 11.333 22 17.333 36 18h4
c2 0 4.33301 -0.333008 7 -1c2.66699 0.666992 5.33398 1 8.00098 1h53v-53c0 -14 -5 -26.667 -15 -38c-10 -10.667 -22 -16.334 -36 -17.001z" />
    <glyph glyph-name="Thorn" unicode="&#xde;" horiz-adv-x="471" 
d="M52 -4c-21.333 0 -31.998 3.99902 -31.998 11.999v720c0 8 10.667 12 32 12c20.667 0 31 -4 31 -12v-208l1 1c42.667 44 94.667 66.333 156 67c60 0 112 -20.5 156 -61.5s66 -94.5 66 -160.5c-0.666992 -61.333 -22.834 -113.166 -66.501 -155.499
s-95.834 -63.5 -156.501 -63.5h-146c-6.66699 0 -10 -3.33301 -10 -10v-129c0 -8 -10.333 -12 -31 -12zM241.002 209.999c44 0 81.333 15.334 112 46.001s46 68 46 112s-15.5 81.333 -46.5 112s-68.5 46 -112.5 46c-44 -0.666992 -81.167 -16.834 -111.5 -48.501
s-45.5 -69.167 -45.5 -112.5v-145c0 -6.66699 3.66699 -10 11 -10h147z" />
    <glyph glyph-name="germandbls" unicode="&#xdf;" horiz-adv-x="577" 
d="M302 408c-2 -3.33301 -1.99805 -6.67188 0.00195312 -10.0049s5 -5 9 -5c36.667 0 73.334 -11.333 110.001 -34c36 -24 63.333 -51 82 -81c28 -44.667 35 -94 21 -148c-14 -53.333 -44.667 -96 -92 -128c-2.66699 -2 -5.33398 -2.66699 -8.00098 -2s-5 2 -7 4l-18 30
c-1.33301 2 -1.66602 4.66699 -0.999023 8c0.666992 2.66699 1.66699 4.33398 3 5.00098c34 24 55.667 55 65 93c10 38.667 5.33301 73.667 -14 105c-14 22.667 -33.333 41.334 -58 56.001c-25.333 16 -52.333 25.333 -81 28c-14.667 2 -29.334 1.66699 -44.001 -1
s-28.667 -8 -42 -16l-29 48c30 24 51.667 50 65 78c13.333 26.667 10.666 55.334 -8.00098 86.001c-18 29.333 -44.333 49 -79 59c-25.333 6.66699 -50.333 7.33398 -75 2.00098v-577c0 -2 -0.666992 -4 -2 -6c-1.33301 -1.33301 -3.33301 -2 -6 -2h-44
c-2 0 -4 0.666992 -6 2c-1.33301 2 -2 4 -2 6v605c-0.666992 2 -0.333984 4.33301 0.999023 7c0.666992 2.66699 1.66699 4.33398 3 5.00098l1 1c48.667 21.333 98 25.333 148 12c49.333 -12.667 87 -40 113 -82c16 -26.667 22.333 -51 19 -73
c-3.33301 -23.333 -11.333 -48.333 -24 -75z" />
    <glyph glyph-name="agrave" unicode="&#xe0;" horiz-adv-x="482" 
d="M260 563c8 -8 12 -17.667 12 -29v-40h-43c-11.333 0 -21 4 -29 12c-7.33301 8 -11 17.333 -11 28v41h44c10 -0.666992 19 -4.66699 27 -12zM458 211l0.000976562 -200.999c0 -3.33301 -1 -5.66602 -3 -6.99902c-2 -2 -4.33301 -3 -7 -3h-201
c-56.667 0 -106.334 20 -149.001 60s-65 88.333 -67 145v8c0 37.333 8.66699 71.666 26 102.999c19.333 34 45 60.667 77 80c17.333 10.667 36 18.667 56 24c17.333 4.66699 35.333 7 54 7h9c56 -2.66699 104 -25.334 144 -68.001c40.667 -42.667 61 -92 61 -148z
M397.001 70.001v141c0 41.333 -14 77 -42 107c-28.667 30.667 -63.667 46.667 -105 48h-5c-42 0 -78 -15 -108 -45s-45 -66 -45 -108v-5c1.33301 -41.333 17 -76.333 47 -105c30.667 -28.667 66.667 -43 108 -43h141c2 0 4 1 6 3s3 4.33301 3 7z" />
    <glyph glyph-name="aacute" unicode="&#xe1;" horiz-adv-x="492" 
d="M205 494v41c0 11.333 4 21 12 29s17.667 12 29 12h45v-41c0 -11.333 -4 -21 -12 -29s-17.667 -12 -29 -12h-45zM458 211l0.000976562 -200.999c0 -3.33301 -1 -5.66602 -3 -6.99902c-2 -2 -4.33301 -3 -7 -3h-201c-56.667 0 -106.334 20 -149.001 60s-65 88.333 -67 145
v8c0 37.333 8.66699 71.666 26 102.999c19.333 34 45 60.667 77 80c17.333 10.667 36 18.667 56 24c17.333 4.66699 35.333 7 54 7h9c56 -2.66699 104 -25.334 144 -68.001c40.667 -42.667 61 -92 61 -148zM397.001 70.001v141c0 41.333 -14 77 -42 107
c-28.667 30.667 -63.667 46.667 -105 48h-5c-42 0 -78 -15 -108 -45s-45 -66 -45 -108v-5c1.33301 -41.333 17 -76.333 47 -105c30.667 -28.667 66.667 -43 108 -43h141c2 0 4 1 6 3s3 4.33301 3 7z" />
    <glyph glyph-name="acircumflex" unicode="&#xe2;" horiz-adv-x="492" 
d="M331 478l-2.99902 -3.00098c-2 -2 -4.66699 -3 -8 -3c-2.66699 0 -5 1 -7 3l-59 58c-2 2.66699 -4.66699 4 -8 4c-2.66699 0 -5.33398 -1.33301 -8.00098 -4l-57 -56c-2.66699 -2.66699 -6 -4 -10 -4c-4.66699 0.666992 -8.33398 2.33398 -11.001 5.00098l-3 3
c-2 2 -3 4.66699 -3 8c0 2.66699 1 5 3 7l81 81c2.66699 2 5.66699 3 9 3c2.66699 0 5.33398 -1 8.00098 -3l78 -79c2 -2.66699 3 -5.66699 3 -9v-1c0 -4 -1.66699 -7.33301 -5 -10zM458.001 210.999l0.000976562 -200.999c0 -3.33301 -1 -5.66602 -3 -6.99902
c-2 -2 -4.33301 -3 -7 -3h-201c-56.667 0 -106.334 20 -149.001 60s-65 88.333 -67 145v8c0 37.333 8.66699 71.666 26 102.999c19.333 34 45 60.667 77 80c17.333 10.667 36 18.667 56 24c17.333 4.66699 35.333 7 54 7h9c56 -2.66699 104 -25.334 144 -68.001
c40.667 -42.667 61 -92 61 -148zM397.002 70v141c0 41.333 -14 77 -42 107c-28.667 30.667 -63.667 46.667 -105 48h-5c-42 0 -78 -15 -108 -45s-45 -66 -45 -108v-5c1.33301 -41.333 17 -76.333 47 -105c30.667 -28.667 66.667 -43 108 -43h141c2 0 4 1 6 3s3 4.33301 3 7z
" />
    <glyph glyph-name="atilde" unicode="&#xe3;" horiz-adv-x="492" 
d="M104 509v32c0 9.33301 2.66699 17 8 23s12.333 9.66699 21 11h253v-32c0 -10 -3.33301 -18 -10 -24c-6 -6.66699 -13.667 -10 -23 -10h-249zM458 211l0.000976562 -200.999c0 -3.33301 -1 -5.66602 -3 -6.99902c-2 -2 -4.33301 -3 -7 -3h-201
c-56.667 0 -106.334 20 -149.001 60s-65 88.333 -67 145v8c0 37.333 8.66699 71.666 26 102.999c19.333 34 45 60.667 77 80c17.333 10.667 36 18.667 56 24c17.333 4.66699 35.333 7 54 7h9c56 -2.66699 104 -25.334 144 -68.001c40.667 -42.667 61 -92 61 -148z
M397.001 70.001v141c0 41.333 -14 77 -42 107c-28.667 30.667 -63.667 46.667 -105 48h-5c-42 0 -78 -15 -108 -45s-45 -66 -45 -108v-5c1.33301 -41.333 17 -76.333 47 -105c30.667 -28.667 66.667 -43 108 -43h141c2 0 4 1 6 3s3 4.33301 3 7z" />
    <glyph glyph-name="adieresis" unicode="&#xe4;" horiz-adv-x="492" 
d="M207 566c8.66699 -8 13 -18 13 -30v-42h-45c-12 0 -22 4.33301 -30 13c-8.66699 8 -13 17.667 -13 29v43h46c11.333 0 21 -4.33301 29 -13zM309 579h47.001v-43c0 -11.333 -4.33301 -21 -13 -29c-8 -8.66699 -18 -13 -30 -13h-44v42c0 12 4 22 12 30
c7.33301 8 16.666 12.333 27.999 13zM458.001 211l0.000976562 -200.999c0 -3.33301 -1 -5.66602 -3 -6.99902c-2 -2 -4.33301 -3 -7 -3h-201c-56.667 0 -106.334 20 -149.001 60s-65 88.333 -67 145v8c0 37.333 8.66699 71.666 26 102.999c19.333 34 45 60.667 77 80
c17.333 10.667 36 18.667 56 24c17.333 4.66699 35.333 7 54 7h9c56 -2.66699 104 -25.334 144 -68.001c40.667 -42.667 61 -92 61 -148zM397.002 70.001v141c0 41.333 -14 77 -42 107c-28.667 30.667 -63.667 46.667 -105 48h-5c-42 0 -78 -15 -108 -45s-45 -66 -45 -108
v-5c1.33301 -41.333 17 -76.333 47 -105c30.667 -28.667 66.667 -43 108 -43h141c2 0 4 1 6 3s3 4.33301 3 7z" />
    <glyph glyph-name="aring" unicode="&#xe5;" horiz-adv-x="492" 
d="M254 452c-4 -0.666992 -7.66699 -1 -11 -1c-13.333 0 -25.666 4.33301 -36.999 13c-14.667 10.667 -23 24.667 -25 42c-0.666992 3.33301 -1 7 -1 11c0 13.333 4 25.666 12 36.999c10.667 14 25 22.333 43 25c3.33301 0.666992 6.66602 1 9.99902 1
c14 0 26.667 -4.33301 38 -13c14 -10 22.333 -24 25 -42c0.666992 -3.33301 1 -6.66602 1 -9.99902c0 -14 -4.33301 -26.667 -13 -38c-10.667 -14 -24.667 -22.333 -42 -25zM242 533c-4.66699 -0.666992 -8.66699 -3 -12 -7c-2 -2.66699 -3 -6 -3 -10v-3
c0.666992 -4.66699 3 -8.33398 7 -11.001c2.66699 -2 5.16699 -3.16699 7.5 -3.5s5 -0.166016 8 0.500977s5.83301 2.66699 8.5 6c2 3.33301 3 6.66602 3 9.99902v3c-0.666992 4.66699 -3 8.33398 -7 11.001c-2.66699 2.66699 -5.66699 4 -9 4h-3zM458 211
l0.000976562 -200.999c0 -3.33301 -1 -5.66602 -3 -6.99902c-2 -2 -4.33301 -3 -7 -3h-201c-56.667 0 -106.334 20 -149.001 60s-65 88.333 -67 145v8c0 37.333 8.66699 71.666 26 102.999c19.333 34 45 60.667 77 80c17.333 10.667 36 18.667 56 24
c17.333 4.66699 35.333 7 54 7h9c56 -2.66699 104 -25.334 144 -68.001c40.667 -42.667 61 -92 61 -148zM397.001 70.001v141c0 41.333 -14 77 -42 107c-28.667 30.667 -63.667 46.667 -105 48h-5c-42 0 -78 -15 -108 -45s-45 -66 -45 -108v-5
c1.33301 -41.333 17 -76.333 47 -105c30.667 -28.667 66.667 -43 108 -43h141c2 0 4 1 6 3s3 4.33301 3 7z" />
    <glyph glyph-name="ae" unicode="&#xe6;" horiz-adv-x="796" 
d="M761 355c1.33301 -2 2.00488 -4.33203 2.00488 -6.99902v-1c0 -2 -0.666992 -3.66699 -2 -5l-250 -250c26.667 -20.667 56.667 -31 90 -31c33.333 -0.666992 63.666 8.33301 90.999 27c1.33301 1.33301 3.33301 2 6 2c2 0 14.667 -10 38 -30c2 -2 3 -4.66699 3 -8
c0 -2.66699 -1.33301 -5 -4 -7c-38.667 -30 -82.334 -45 -131.001 -45h-7c-52 1.33301 -97.667 19.333 -137 54c-4 3.33301 -7.66699 6.66602 -11 9.99902v-55c0 -2 -1 -4 -3 -6s-4 -3 -6 -3h-203c-56.667 0 -106.334 20 -149.001 60c-42.667 40.667 -65 89.334 -67 146.001
c-0.666992 2.66699 -1 5.66699 -1 9c0 18.667 2.66699 36.667 8 54c5.33301 20.667 13.333 39.334 24 56.001c19.333 32.667 46 58.667 80 78c31.333 17.333 65.666 26 102.999 26h9c56 -2 104.333 -24.333 145 -67c11.333 -12.667 21 -25.667 29 -39
c6 9.33301 12.667 18.666 20 27.999c35.333 43.333 80.666 68.666 135.999 75.999c10.667 1.33301 21 2 31 2c43.333 0 83 -12.333 119 -37c9.33301 -7.33301 16.333 -13.333 21 -18c4 -4 7.66699 -8 11 -12zM389.005 70.001v151c-2 37.333 -16.333 70.333 -43 99
c-28.667 30.667 -64 46.667 -106 48h-5c-42 0 -78 -15 -108 -45s-45 -66 -45 -108v-6c1.33301 -42 17.333 -77.333 48 -106c30 -28 65.667 -42 107 -42h142c2.66699 0 5 0.666992 7 2c2 2 3 4.33301 3 7zM464.005 150.001c1.33301 -2.66699 3.66699 -4.33203 7 -4.99902
c0.666992 -0.666992 1.33398 -1 2.00098 -1c2.66699 0.666992 5 1.66699 7 3l190 192c2 2 3 4 3 6v2c-0.666992 3.33301 -2.33398 5.66602 -5.00098 6.99902c-20 9.33301 -41 14 -63 14c-10.667 0 -21.334 -1 -32.001 -3c-33.333 -6.66699 -61.666 -23 -84.999 -49
c-20 -23.333 -32 -50.333 -36 -81c-1.33301 -7.33301 -2 -14.333 -2 -21c0 -22.667 4.66699 -44 14 -64z" />
    <glyph glyph-name="ccedilla" unicode="&#xe7;" horiz-adv-x="390" 
d="M337 89c2.66699 -2 6.33691 -4.99902 11.0039 -8.99902c5.33301 -4 9 -7 11 -9c2.66699 -2.66699 5.66699 -5.33398 9 -8.00098c2.66699 -2 4 -4.66699 4 -8c0 -2.66699 -1.33301 -5 -4 -7c-16.667 -13.333 -34.334 -23.666 -53.001 -30.999
c-19.333 -7.33301 -39 -12 -59 -14l-10 -1c7.33301 -2.66699 14 -7 20 -13c10 -10 15 -22.667 15 -38v-54h-58c-14.667 0 -27.334 5.33301 -38.001 16s-16 23.334 -16 38.001v54h23c-16 3.33301 -31 9 -45 17c-36.667 15.333 -67 41.333 -91 78
c-20.667 30 -32.334 63.333 -35.001 100c-0.666992 5.33301 -1 10.666 -1 15.999c0 30.667 7 60.334 21 89.001c19.333 41.333 47 72.666 83 93.999c35.333 20.667 72.666 31.334 111.999 32.001h1c20.667 0 41 -3 61 -9c20.667 -6 40 -15.333 58 -28
c0.666992 -0.666992 1 -1.33398 1 -2.00098s-0.333008 -1.33398 -1 -2.00098c-6.66699 -6.66699 -13.334 -13 -20.001 -19l-20 -20c-1.33301 -0.666992 -2.33301 -0.666992 -3 0c-38.667 20.667 -79.667 24 -123 10c-44 -14 -75.667 -44.333 -95 -91
c-8 -20 -11.333 -41.333 -10 -64c1.33301 -22 7.33301 -42.667 18 -62c24.667 -43.333 59 -69.333 103 -78c44.667 -8.66699 84.334 -1 119.001 23c2 1.33301 4 2 6 2s4 -0.666992 6 -2z" />
    <glyph glyph-name="egrave" unicode="&#xe8;" horiz-adv-x="430" 
d="M395 358c1.33301 -2 1.99902 -4.33105 1.99902 -6.99805v-1c0 -2 -0.666992 -3.66699 -2 -5l-252 -252c26.667 -20.667 57 -31.334 91 -32.001c33.333 -0.666992 63.666 8.66602 90.999 27.999c2 1.33301 4 2 6 2s4 -1 6 -3l33 -28c2 -1.33301 3 -3.66602 3 -6.99902
s-1.33301 -6 -4 -8c-39.333 -30 -83.666 -45 -132.999 -45h-6c-52.667 1.33301 -98.667 19.666 -138 54.999c-43.333 38 -67.333 86.333 -72 145v18c0 50.667 16.333 96 49 136c36 44 81.667 69.667 137 77c10.667 1.33301 21 2 31 2c43.333 0 83.666 -12.667 120.999 -38
c8.66699 -7.33301 15.334 -13.333 20.001 -18c4.66699 -4 10.334 -10.333 17.001 -19zM94.999 151.002c2 -2.66699 4.66699 -4.33105 8 -4.99805h2c2 0 4 1 6 3l192 192c2 2 3 4.33301 3 7v2c0 3.33301 -1.66699 5.66602 -5 6.99902c-20.667 9.33301 -41.667 14 -63 14
c-10.667 0 -21.667 -1 -33 -3c-33.333 -6.66699 -61.666 -23 -84.999 -49c-20.667 -24 -33 -51.333 -37 -82c-0.666992 -7.33301 -1 -14.333 -1 -21c-0.666992 -22.667 3.66602 -44.334 12.999 -65.001zM229.999 563.005c8 -8 12 -17.666 12 -28.999v-40h-43
c-10.667 0 -20 4 -28 12s-12 17.333 -12 28v40h44c10 -0.666992 19 -4.33398 27 -11.001z" />
    <glyph glyph-name="eacute" unicode="&#xe9;" horiz-adv-x="430" 
d="M395 358c1.33301 -2 1.99902 -4.33105 1.99902 -6.99805v-1c0 -2 -0.666992 -3.66699 -2 -5l-252 -252c26.667 -20.667 57 -31.334 91 -32.001c33.333 -0.666992 63.666 8.66602 90.999 27.999c2 1.33301 4 2 6 2s4 -1 6 -3l33 -28c2 -1.33301 3 -3.66602 3 -6.99902
s-1.33301 -6 -4 -8c-39.333 -30 -83.666 -45 -132.999 -45h-6c-52.667 1.33301 -98.667 19.666 -138 54.999c-43.333 38 -67.333 86.333 -72 145v18c0 50.667 16.333 96 49 136c36 44 81.667 69.667 137 77c10.667 1.33301 21 2 31 2c43.333 0 83.666 -12.667 120.999 -38
c8.66699 -7.33301 15.334 -13.333 20.001 -18c4.66699 -4 10.334 -10.333 17.001 -19zM94.999 151.002c2 -2.66699 4.66699 -4.33105 8 -4.99805h2c2 0 4 1 6 3l192 192c2 2 3 4.33301 3 7v2c0 3.33301 -1.66699 5.66602 -5 6.99902c-20.667 9.33301 -41.667 14 -63 14
c-10.667 0 -21.667 -1 -33 -3c-33.333 -6.66699 -61.666 -23 -84.999 -49c-20.667 -24 -33 -51.333 -37 -82c-0.666992 -7.33301 -1 -14.333 -1 -21c-0.666992 -22.667 3.66602 -44.334 12.999 -65.001zM238.999 574.005h45v-40c0 -11.333 -3.66699 -21 -11 -29
c-8 -7.33301 -17.667 -11 -29 -11h-42v40c0 10.667 4 20 12 28c6.66699 7.33301 15 11.333 25 12z" />
    <glyph glyph-name="ecircumflex" unicode="&#xea;" horiz-adv-x="430" 
d="M395 358c1.33301 -2 1.99902 -4.33105 1.99902 -6.99805v-1c0 -2 -0.666992 -3.66699 -2 -5l-252 -252c26.667 -20.667 57 -31.334 91 -32.001c33.333 -0.666992 63.666 8.66602 90.999 27.999c2 1.33301 4 2 6 2s4 -1 6 -3l33 -28c2 -1.33301 3 -3.66602 3 -6.99902
s-1.33301 -6 -4 -8c-39.333 -30 -83.666 -45 -132.999 -45h-6c-52.667 1.33301 -98.667 19.666 -138 54.999c-43.333 38 -67.333 86.333 -72 145v18c0 50.667 16.333 96 49 136c36 44 81.667 69.667 137 77c10.667 1.33301 21 2 31 2c43.333 0 83.666 -12.667 120.999 -38
c8.66699 -7.33301 15.334 -13.333 20.001 -18c4.66699 -4 10.334 -10.333 17.001 -19zM94.999 151.002c2 -2.66699 4.66699 -4.33105 8 -4.99805h2c2 0 4 1 6 3l192 192c2 2 3 4.33301 3 7v2c0 3.33301 -1.66699 5.66602 -5 6.99902c-20.667 9.33301 -41.667 14 -63 14
c-10.667 0 -21.667 -1 -33 -3c-33.333 -6.66699 -61.666 -23 -84.999 -49c-20.667 -24 -33 -51.333 -37 -82c-0.666992 -7.33301 -1 -14.333 -1 -21c-0.666992 -22.667 3.66602 -44.334 12.999 -65.001zM294.999 478.005l-2.99902 -3.00098c-2 -2 -4.66699 -3 -8 -3
c-2.66699 0 -5 1 -7 3l-59 58c-2 2.66699 -4.66699 4 -8 4c-2.66699 0 -5.33398 -1.33301 -8.00098 -4l-57 -56c-2.66699 -2.66699 -6 -4 -10 -4c-4.66699 0.666992 -8.33398 2.33398 -11.001 5.00098l-3 3c-2 2 -3 4.66699 -3 8c0 2.66699 1 5 3 7l81 81
c2.66699 2 5.66699 3 9 3c2.66699 0 5.33398 -1 8.00098 -3l78 -79c2 -2.66699 3 -5.66699 3 -9v-1c0 -4 -1.66699 -7.33301 -5 -10z" />
    <glyph glyph-name="edieresis" unicode="&#xeb;" horiz-adv-x="430" 
d="M395 358c1.33301 -2 1.99902 -4.33105 1.99902 -6.99805v-1c0 -2 -0.666992 -3.66699 -2 -5l-252 -252c26.667 -20.667 57 -31.334 91 -32.001c33.333 -0.666992 63.666 8.66602 90.999 27.999c2 1.33301 4 2 6 2s4 -1 6 -3l33 -28c2 -1.33301 3 -3.66602 3 -6.99902
s-1.33301 -6 -4 -8c-39.333 -30 -83.666 -45 -132.999 -45h-6c-52.667 1.33301 -98.667 19.666 -138 54.999c-43.333 38 -67.333 86.333 -72 145v18c0 50.667 16.333 96 49 136c36 44 81.667 69.667 137 77c10.667 1.33301 21 2 31 2c43.333 0 83.666 -12.667 120.999 -38
c8.66699 -7.33301 15.334 -13.333 20.001 -18c4.66699 -4 10.334 -10.333 17.001 -19zM94.999 151.002c2 -2.66699 4.66699 -4.33105 8 -4.99805h2c2 0 4 1 6 3l192 192c2 2 3 4.33301 3 7v2c0 3.33301 -1.66699 5.66602 -5 6.99902c-20.667 9.33301 -41.667 14 -63 14
c-10.667 0 -21.667 -1 -33 -3c-33.333 -6.66699 -61.666 -23 -84.999 -49c-20.667 -24 -33 -51.333 -37 -82c-0.666992 -7.33301 -1 -14.333 -1 -21c-0.666992 -22.667 3.66602 -44.334 12.999 -65.001zM278.999 494.005h-45.998v42c0 12 4 22 12 30
c7.33301 7.33301 16.666 11.333 27.999 12h47v-42c0 -12 -4 -22 -12 -30c-8.66699 -8 -18.334 -12 -29.001 -12zM142.001 578.005c11.333 0 21 -4 29 -12c8.66699 -8 13 -18 13 -30v-42h-45c-12 0 -22 4 -30 12s-12 18 -12 30v42h45z" />
    <glyph glyph-name="igrave" unicode="&#xec;" horiz-adv-x="143" 
d="M52 0c-2.66699 0 -4.66699 0.666992 -6 2c-2 2 -3 4.33301 -3 7v411c0 2.66699 1 5 3 7s4.33301 3 7 3h41c2.66699 0 5 -1 7 -3s3 -4.33301 3 -7v-411c0 -2.66699 -0.666992 -5 -2 -7c-2 -1.33301 -4.33301 -2 -7 -2h-43zM91 563c8 -8 11.999 -17.667 11.999 -29v-40h-43
c-11.333 0 -20.666 4 -27.999 12c-8 8 -12 17.333 -12 28v40h43c10.667 0 20 -3.66699 28 -11z" />
    <glyph glyph-name="iacute" unicode="&#xed;" horiz-adv-x="123" 
d="M29 1c-2.66699 0 -4.66602 0.666992 -5.99902 2s-2 3.33301 -2 6v412c0 2.66699 0.666992 5 2 7c2 2 4.33301 3 7 3h41c3.33301 0 5.66602 -1 6.99902 -3c2 -2 3 -4.33301 3 -7v-412c0 -2.66699 -0.666992 -4.66699 -2 -6c-2 -1.33301 -4 -2 -6 -2h-44zM57.001 574
l43.999 -0.000976562v-40c0 -10.667 -4 -20 -12 -28c-7.33301 -8 -16.666 -12 -27.999 -12h-42v40c0 11.333 3.66699 21 11 29c7.33301 6.66699 16.333 10.334 27 11.001z" />
    <glyph glyph-name="icircumflex" unicode="&#xee;" horiz-adv-x="206" 
d="M86 1c-2.66699 0 -4.66699 0.666992 -6 2c-2 1.33301 -3 3.33301 -3 6v412c0 2.66699 1 5 3 7s4.33301 3 7 3h41c2.66699 0 5 -1 7 -3s3 -4.33301 3 -7v-412c0 -2.66699 -0.666992 -4.66699 -2 -6c-2 -1.33301 -4.33301 -2 -7 -2h-43zM194 478l-2.99902 -3.00098
c-2 -2 -4.66699 -3 -8 -3c-2.66699 0 -5 1 -7 3l-59 58c-2 2.66699 -4.66699 4 -8 4c-2.66699 0 -5.33398 -1.33301 -8.00098 -4l-57 -56c-2.66699 -2.66699 -6 -4 -10 -4c-4.66699 0.666992 -8.33398 2.33398 -11.001 5.00098l-3 3c-2 2 -3 4.66699 -3 8c0 2.66699 1 5 3 7
l81 81c2.66699 2 5.66699 3 9 3c2.66699 0 5.33398 -1 8.00098 -3l78 -79c2 -2.66699 3 -5.66699 3 -9v-1c0 -4 -1.66699 -7.33301 -5 -10z" />
    <glyph glyph-name="idieresis" unicode="&#xef;" horiz-adv-x="225" 
d="M91 1c-2.66699 0 -4.66699 0.666992 -6 2c-2 1.33301 -3 3.33301 -3 6v412c0 2.66699 1 5 3 7s4.33301 3 7 3h41c2.66699 0 5 -1 7 -3s3 -4.33301 3 -7v-412c0 -2.66699 -1 -4.66699 -3 -6c-1.33301 -1.33301 -3.33301 -2 -6 -2h-43zM175 578h45v-42
c0 -12 -4 -22 -12 -30s-18 -12 -30 -12h-45v42c0 12 4 22 12 30c8.66699 8 18.667 12 30 12zM42 578c11.333 0 21.333 -4 30 -12c8 -8 12 -18 12 -30v-42h-45c-12 0 -22 4 -30 12s-12 18 -12 30v42h45z" />
    <glyph glyph-name="eth" unicode="&#xf0;" horiz-adv-x="465" 
d="M379 448c-4 26 -13 49.333 -27 70l-82 -82l-18 18c-8.66699 8.66699 -13 16.667 -13 24c0 2 0.333008 3.66699 1 5c0 6.66699 2 12.334 6 17.001l60 60c-25.333 16 -53.333 22.667 -84 20c-2 0 -3.66699 0.666992 -5 2c-2.66699 2 -4 4.33301 -4 7
c-2.66699 18.667 -4 32.334 -4 41.001c-0.666992 3.33301 -0.333984 6 0.999023 8c2 2 4.33301 3.33301 7 4c49.333 4 93.666 -8.66699 132.999 -38l69 69l11 -11c3.33301 -4.66699 7 -8.33398 11 -11.001c6 -6 9 -13 9 -21c0 -2 -0.333008 -3.66699 -1 -5
c-1.33301 -6.66699 -4.33301 -13 -9 -19l-45 -45c22 -28.667 36 -62.667 42 -102v-1c3.33301 -28.667 3.33301 -56 0 -82v-367c0 -2.66699 -1 -5 -3 -7s-4.33301 -3 -7 -3h-199c-57.333 0 -106.666 20.667 -147.999 62c-40 40.667 -60 89.334 -60 146.001v4
c0.666992 56.667 21.667 105.334 63 146.001c41.333 40 90.333 59.667 147 59c24.667 0 48.334 -4 71.001 -12c22 -8.66699 42 -20.334 60 -35.001c3.33301 -2.66699 6.66602 -3.33398 9.99902 -2.00098c3.33301 2 6.33301 9.66699 9 23s2.33398 32.666 -0.999023 57.999z
M79 205c0.666992 -41.333 15.667 -76 45 -104c30 -28.667 65.333 -43 106 -43h137c2.66699 0 5 1 7 3c2 1.33301 3 3.33301 3 6v146l-1 6v3c-3.33301 38 -19 70 -47 96c-28.667 26 -62.334 39 -101.001 39c-41.333 0 -76.666 -14.667 -105.999 -44
c-28.667 -29.333 -43 -64.333 -43 -105v-3z" />
    <glyph glyph-name="ntilde" unicode="&#xf1;" horiz-adv-x="430" 
d="M403 0l-53.999 -0.000976562v65l-1 -1v149c0 42.667 -13.333 79 -40 109c-26.667 29.333 -59 44 -97 44s-70.333 -14.667 -97 -44c-27.333 -30 -41 -66.333 -41 -109v-153h1v-60h-55v214c0 58.667 18.667 109 56 151c38 42 83.333 63 136 63
c53.333 0 98.666 -21 135.999 -63c37.333 -41.333 56 -91.666 56 -150.999v-214zM320.001 508.999h-250v33c0 8.66699 2.66699 16.334 8 23.001c5.33301 6 12.333 9.33301 21 10h253v-33c0 -8.66699 -3.33301 -16.334 -10 -23.001c-6 -6.66699 -13.333 -10 -22 -10z" />
    <glyph glyph-name="ograve" unicode="&#xf2;" horiz-adv-x="472" 
d="M239 0c-60 0 -111.333 21.3311 -154 63.998s-64 94 -64 154c0 60.667 21.333 112.334 64 155.001c42.667 42 94 63 154 63c59.333 0 110.333 -21.333 153 -64c43.333 -42.667 65 -94 65 -154c0 -59.333 -21.333 -110.666 -64 -153.999c-42.667 -42.667 -94 -64 -154 -64z
M239 375.998c-44 0 -81.334 -15.667 -112.001 -47c-30.667 -30.667 -46 -67.667 -46 -111c0 -42.667 15.667 -79.667 47 -111c30.667 -30.667 67.667 -46 111 -46c42.667 0 79.334 15.333 110.001 46c31.333 31.333 47 68.333 47 111c0 43.333 -15.333 80.333 -46 111
c-30.667 31.333 -67.667 47 -111 47zM254.999 562.998c8 -8 12 -17.665 12 -28.998v-40h-42c-11.333 0 -21 4 -29 12c-7.33301 7.33301 -11 16.666 -11 27.999v40h43c10 -0.666992 19 -4.33398 27 -11.001z" />
    <glyph glyph-name="oacute" unicode="&#xf3;" horiz-adv-x="472" 
d="M237 0c-60 0 -111.333 21.333 -154 64s-64 94 -64 154s21.333 111.333 64 154s94 64 154 64s111.333 -21.333 154 -64s64 -94 64 -154s-21.333 -111.333 -64 -154s-94 -64 -154 -64zM237 375c-43.333 0 -80.333 -15.333 -111 -46s-46 -67.667 -46 -111
s15.333 -80.333 46 -111s67.667 -46 111 -46s80.333 15.333 111 46s46 67.667 46 111s-15.333 80.333 -46 111s-67.667 46 -111 46zM245 572h42.001v-40c0 -10.667 -3.66699 -20 -11 -28c-8 -8 -17.667 -12 -29 -12h-42v40c0 11.333 4 21 12 29
c7.33301 7.33301 16.666 11 27.999 11z" />
    <glyph glyph-name="ocircumflex" unicode="&#xf4;" horiz-adv-x="472" 
d="M234 0c-60 0 -111.333 21.333 -154 64s-64 94 -64 154s21.333 111.333 64 154s94 64 154 64s111.333 -21.333 154 -64s64 -94 64 -154s-21.333 -111.333 -64 -154s-94 -64 -154 -64zM234 375c-43.333 0 -80.333 -15.333 -111 -46s-46 -67.667 -46 -111
s15.333 -80.333 46 -111s67.667 -46 111 -46s80.333 15.333 111 46s46 67.667 46 111s-15.333 80.333 -46 111s-67.667 46 -111 46zM320 478l-2.99902 -3.00098c-2 -2 -4.66699 -3 -8 -3c-2.66699 0 -5 1 -7 3l-59 58c-2 2.66699 -4.66699 4 -8 4
c-2.66699 0 -5.33398 -1.33301 -8.00098 -4l-57 -56c-2.66699 -2.66699 -6 -4 -10 -4c-4.66699 0.666992 -8.33398 2.33398 -11.001 5.00098l-3 3c-2 2 -3 4.66699 -3 8c0 2.66699 1 5 3 7l81 81c2.66699 2 5.66699 3 9 3c2.66699 0 5.33398 -1 8.00098 -3l78 -79
c2 -2.66699 3 -5.66699 3 -9v-1c0 -4 -1.66699 -7.33301 -5 -10z" />
    <glyph glyph-name="otilde" unicode="&#xf5;" horiz-adv-x="472" 
d="M238 0c-60 0 -111.333 21.333 -154 64s-64 94 -64 154s21.333 111.333 64 154s94 64 154 64s111.333 -21.333 154 -64s64 -94 64 -154s-21.333 -111.333 -64 -154s-94 -64 -154 -64zM238 375c-43.333 0 -80.333 -15.333 -111 -46s-46 -67.667 -46 -111
s15.333 -80.333 46 -111s67.667 -46 111 -46s80.333 15.333 111 46s46 67.667 46 111s-15.333 80.333 -46 111s-67.667 46 -111 46zM129 509h-32v33c0 8.66699 2.66699 16 8 22s12 9.66699 20 11h254v-32c0 -9.33301 -3.33301 -17 -10 -23c-6 -6.66699 -13.667 -10 -23 -10
h-217v-1z" />
    <glyph glyph-name="odieresis" unicode="&#xf6;" horiz-adv-x="471" 
d="M235 0c-60 0 -111.332 21.333 -153.999 64s-64 94 -64 154s21.333 111.333 64 154s94 64 154 64s111.333 -21.333 154 -64s64 -94 64 -154s-21 -111.333 -63 -154c-42.667 -42.667 -94.334 -64 -155.001 -64zM235.001 375c-43.333 0 -80.333 -15.333 -111 -46
s-46 -67.667 -46 -111s15.333 -80.333 46 -111c31.333 -30.667 68.333 -46 111 -46c43.333 0 80.333 15.333 111 46c31.333 30.667 47 67.667 47 111s-15.333 80.333 -46 111s-68 46 -112 46zM171.001 574c11.333 0 21 -4 29 -12c8.66699 -8 13 -18 13 -30v-42h-45
c-12 0 -22 4 -30 12c-8.66699 8 -13 18 -13 30v42h46zM308.001 490h-46.001v42c0 12 4 22 12 30s18 12 30 12h45v-42c0 -12 -4.33301 -22 -13 -30c-7.33301 -7.33301 -16.666 -11.333 -27.999 -12z" />
    <glyph glyph-name="divide" unicode="&#xf7;" horiz-adv-x="329" 
d="M269 369h-248v33c0 8.66699 2.66699 16 8 22s12 9.33301 20 10h253v-32c0 -9.33301 -3.33301 -17 -10 -23c-6 -6.66699 -13.667 -10 -23 -10zM167 473h-50v51c0 14 4.66699 26 14 36c10 9.33301 22 14 36 14s26 -4.66699 36 -14c10 -10 15 -22 15 -36s-5 -26 -15 -36
s-22 -15 -36 -15zM218 279c0 -14 -5 -25.667 -15 -35c-10 -10 -22 -15 -36 -15s-26 5 -36 15c-9.33301 9.33301 -14 21 -14 35v51h50c14 0 26 -5 36 -15c10 -9.33301 15 -21.333 15 -36z" />
    <glyph glyph-name="oslash" unicode="&#xf8;" horiz-adv-x="472" 
d="M411 451c4.66699 -5.33301 12 -13.001 22 -23.001c6 -6 9 -13.333 9 -22c0 -9.33301 -3 -17 -9 -23l-27 -27c35.333 -39.333 53 -86 53 -140c0 -59.333 -21 -110 -63 -152s-92.667 -63 -152 -63c-54 0 -100.667 17 -140 51l-32 -32
c-3.33301 -3.33301 -7.33301 -7.66602 -12 -12.999l-8 -7l-22 22c-6 6 -9 13 -9 21l-1 1c0 8 2.33301 14.667 7 20l35 35c-22 34.667 -33 73.667 -33 117c0 59.333 21 110 63 152s92.667 63 152 63c42.667 0 80.667 -11 114 -33zM146 94.999c28 -22.667 60.667 -34 98 -34
c42.667 0 79 15.333 109 46c30.667 30.667 46 67 46 109c0 37.333 -11.667 70 -35 98zM244 371.999c-43.333 0 -80 -15.332 -110 -45.999s-45 -67.334 -45 -110.001c0 -26.667 5.66699 -51 17 -73l209 211c-21.333 12 -45 18 -71 18z" />
    <glyph glyph-name="ugrave" unicode="&#xf9;" 
d="M24 214l-0.000976562 206c0 2.66699 1 5 3 7s4.33301 3 7 3h36c2 0 4 -1 6 -3s3.33301 -4.33301 4 -7v-194c-0.666992 -2 -1 -4 -1 -6v-5c0 -42.667 13.667 -79 41 -109c26.667 -30 59.334 -45 98.001 -45c38 0 70.333 15 97 45c27.333 30 40.666 66.667 39.999 110v208
c0.666992 2 2 3.33301 4 4c1.33301 1.33301 3 2 5 2h36c2.66699 0 5 -1 7 -3s3 -4.33301 3 -7v-206c0 -59.333 -18.667 -110 -56 -152c-38 -42 -83.667 -63 -137 -63s-98.666 21 -135.999 63c-38 42 -57 92.667 -57 152zM235.999 563c8 -8 12 -17.665 12 -28.998v-40h-43
c-10.667 0 -20 4 -28 12c-8 7.33301 -12 16.666 -12 27.999v40h44c10 -0.666992 19 -4.33398 27 -11.001z" />
    <glyph glyph-name="uacute" unicode="&#xfa;" 
d="M21 215l-0.00195312 206.001c0 2.66699 0.666992 5 2 7c2 2 4.66699 3 8 3h35c2.66699 0 5 -0.666992 7 -2c2 -2 3 -4.33301 3 -7v-206c0 -42.667 13.333 -79 40 -109c27.333 -30.667 60 -46 98 -46c38.667 0 71.334 15.333 98.001 46c26.667 30 40 66.333 40 109v209
c0.666992 1.33301 1.66699 2.66602 3 3.99902c2 1.33301 4 2 6 2h36c2.66699 0 5 -1 7 -3s3 -4.33301 3 -7v-206c0 -59.333 -19 -110 -57 -152c-37.333 -42 -82.666 -63 -135.999 -63s-99 21 -137 63c-37.333 42 -56 92.667 -56 152zM226.998 492.001h-43v40
c0 11.333 4 21 12 29c8 7.33301 17.333 11 28 11h43v-40c0 -10.667 -4 -20 -12 -28s-17.333 -12 -28 -12z" />
    <glyph glyph-name="ucircumflex" unicode="&#xfb;" 
d="M21 215l-0.00195312 206.001c0 2.66699 0.666992 5 2 7c2 2 4.66699 3 8 3h35c2.66699 0 5 -0.666992 7 -2c2 -2 3 -4.33301 3 -7v-206c0 -42.667 13.333 -79 40 -109c27.333 -30.667 60 -46 98 -46c38.667 0 71.334 15.333 98.001 46c26.667 30 40 66.333 40 109v209
c0.666992 1.33301 1.66699 2.66602 3 3.99902c2 1.33301 4 2 6 2h36c2.66699 0 5 -1 7 -3s3 -4.33301 3 -7v-206c0 -59.333 -19 -110 -57 -152c-37.333 -42 -82.666 -63 -135.999 -63s-99 21 -137 63c-37.333 42 -56 92.667 -56 152zM299.998 478.001l-2.99902 -3.00098
c-2 -2 -4.66699 -3 -8 -3c-2.66699 0 -5 1 -7 3l-59 58c-2 2.66699 -4.66699 4 -8 4c-2.66699 0 -5.33398 -1.33301 -8.00098 -4l-57 -56c-2.66699 -2.66699 -6 -4 -10 -4c-4.66699 0.666992 -8.33398 2.33398 -11.001 5.00098l-3 3c-2 2 -3 4.66699 -3 8c0 2.66699 1 5 3 7
l81 81c2.66699 2 5.66699 3 9 3c2.66699 0 5.33398 -1 8.00098 -3l78 -79c2 -2.66699 3 -5.66699 3 -9v-1c0 -4 -1.66699 -7.33301 -5 -10z" />
    <glyph glyph-name="udieresis" unicode="&#xfc;" 
d="M21 215l-0.00195312 206.001c0 2.66699 1 5 3 7s4.33301 3 7 3h36c2 0 4 -0.666992 6 -2c2 -2 3.33301 -4.33301 4 -7v-196c-0.666992 -1.33301 -1 -3 -1 -5v-5c0 -42.667 13.667 -79 41 -109c26.667 -30.667 59.334 -46 98.001 -46c38 0 70.333 15.333 97 46
c26.667 30 40 66.333 40 109v209c0.666992 1.33301 2 2.66602 4 3.99902c1.33301 1.33301 3 2 5 2h36c2.66699 0 5 -1 7 -3s3 -4.33301 3 -7v-206c0 -59.333 -19 -110 -57 -152c-37.333 -42 -82.666 -63 -135.999 -63s-99 21 -137 63c-37.333 42 -56 92.667 -56 152z
M180.998 562.001c8 -8 11.998 -18 11.998 -30v-42h-47c-11.333 0 -20.666 4 -27.999 12c-8 8 -12 18 -12 30v42h46c10.667 -0.666992 20.334 -4.66699 29.001 -12zM281.996 574.001h47.001v-42c0 -12 -4 -22 -12 -30c-8.66699 -8 -18.334 -12 -29.001 -12h-46v42
c0 12 4 22 12 30c8 7.33301 17.333 11.333 28 12z" />
    <glyph glyph-name="yacute" unicode="&#xfd;" 
d="M407 420l0.000976562 -69c0 -53.333 -15.667 -100 -47 -140c-31.333 -40.667 -70 -64.667 -116 -72v-135c0 0.666992 -1 0 -3 -2c-2 -1.33301 -4.33301 -2 -7 -2h-40c-2.66699 0 -5 1 -7 3s-3 4.33301 -3 7v129c-46.667 7.33301 -85.334 31 -116.001 71
c-31.333 40 -47 87 -47 141v69c0 2.66699 0.666992 5 2 7c2 2 4.66699 3 8 3c7.33301 0 19 0.333008 35 1c2.66699 0 5 -1 7 -3s3 -4.33301 3 -7v-69c0 -42.667 13.333 -79 40 -109c27.333 -30 60 -45 98 -45s70.667 15 98 45c26.667 30 40 66.333 40 109v72
c0.666992 2 2 3.33301 4 4c1.33301 1.33301 3 2 5 2h36c2.66699 0 5 -1 7 -3s3 -4.33301 3 -7zM225.001 574h41.999v-40c0 -10.667 -4 -20 -12 -28c-7.33301 -8 -16.666 -12 -27.999 -12h-42v40c0 11.333 3.66699 21 11 29c8 7.33301 17.667 11 29 11z" />
    <glyph glyph-name="thorn" unicode="&#xfe;" horiz-adv-x="855" 
d="M56 -308c-20.667 0 -31 3.66699 -31 11v506c0 10.667 0.666992 21 2 31h-2v487c0 7.33301 10.333 11 31 11s31 -3.66699 31 -11v-364l1 1c42 43.333 94.333 65.333 157 66c60.667 0 112.167 -21.333 154.5 -64s63.5 -94.667 63.5 -156
c-0.666992 -61.333 -22.667 -113 -66 -155s-95 -63 -155 -63h-145c-6.66699 0 -10 -3.33301 -10 -10v-279c0 -7.33301 -10.333 -11 -31 -11zM244 54c43.333 0 80.333 15.333 111 46s46 67.667 46 111c0 44 -15.5 81.167 -46.5 111.5s-68.167 45.5 -111.5 45.5
c-44 -0.666992 -81 -16.667 -111 -48s-45 -68.333 -45 -111v-144c0 -7.33301 3.66699 -11 11 -11h146z" />
    <glyph glyph-name="ydieresis" unicode="&#xff;" 
d="M407 420l0.000976562 -68.999c0 -53.333 -15.667 -100.333 -47 -141c-31.333 -40 -70 -64 -116 -72v-134l-3 -2c-2 -1.33301 -4.33301 -2 -7 -2h-40c-2.66699 0 -5 1 -7 3s-3 4.33301 -3 7v128c-46.667 8 -85.334 32 -116.001 72c-31.333 40 -47 87 -47 141v69
c0 2.66699 0.666992 5 2 7c2 2 4.66699 3 8 3h35c2.66699 0 5 -0.666992 7 -2c2 -2 3 -4.66699 3 -8v-69c0 -42 13.333 -78.333 40 -109c27.333 -30 60 -45 98 -45s70.667 15.333 98 46c26.667 30 40 66.333 40 109v72c0.666992 1.33301 2 2.66602 4 3.99902
c1.33301 1.33301 3 2 5 2h36c2.66699 0 5 -1 7 -3s3 -4.33301 3 -7zM170.001 562.001c8.66699 -8 12.999 -18 12.999 -30v-42h-47c-11.333 0 -20.666 4 -27.999 12c-8.66699 8 -13 18 -13 30v42h47c10.667 -0.666992 20 -4.66699 28 -12zM274 574.001h45v-42
c0 -12 -4.33301 -22 -13 -30c-8 -8 -17.667 -12 -29 -12h-45v42c0 12 4 22 12 30s18 12 30 12z" />
    <glyph glyph-name="Abreve" unicode="&#x102;" horiz-adv-x="595" 
d="M574 412l0.000976562 -400.001c0 -3.33301 -1.33301 -6 -4 -8c-2 -2.66699 -4.66699 -4 -8 -4h-38c-3.33301 0 -6 1.33301 -8 4c-2.66699 2 -4 4.66699 -4 8v145h-426v-143c0 -3.33301 -1 -6 -3 -8c-2.66699 -2.66699 -5.66699 -4 -9 -4h-37c-3.33301 0 -6 1.33301 -8 4
c-2.66699 2 -4 4.66699 -4 8v401c0 1.33301 0.333008 6.33301 1 15c0 8.66699 1 20 3 34c4 25.333 12.333 56.666 25 93.999c13.333 36.667 35.333 70.334 66 101.001c24 23.333 51.667 42 83 56s66 21 104 21s71.667 -7.33301 101 -22
c29.333 -15.333 55.666 -34.666 78.999 -57.999c15.333 -16 28.333 -33.333 39 -52c10 -18 18.333 -36.333 25 -55c12 -34 18.667 -64.333 20 -91c2 -26.667 3 -42 3 -46zM512.001 412.999c0 0.666992 -0.333984 12.333 -1.00098 35c-1.33301 22 -6.66602 47.333 -15.999 76
c-5.33301 15.333 -12.333 30.666 -21 45.999c-8.66699 16 -19.334 30.667 -32.001 44c-17.333 18 -37.333 32.667 -60 44c-23.333 11.333 -50 17 -80 17c-28 -0.666992 -53.667 -6.33398 -77 -17.001c-24 -11.333 -44.667 -25.666 -62 -42.999
c-13.333 -13.333 -24.333 -28 -33 -44c-9.33301 -15.333 -16.666 -30.666 -21.999 -45.999c-10.667 -28.667 -17 -54 -19 -76s-3 -33.333 -3 -34v-202h426v200zM210 838.998l-1 15c0 5.33301 0.333008 10.333 1 15c12 -1.33301 20 -3.33301 24 -6
c4 -19.333 12.333 -35.333 25 -48c12 -12.667 25.667 -19 41 -19s29 6.33301 41 19c12.667 12.667 21 28.667 25 48c5.33301 3.33301 13.333 5.33301 24 6c0.666992 -4.66699 1 -9.66699 1 -15l-1 -15c-4 -24.667 -16 -44.667 -36 -60c-16.667 -12.667 -34.667 -19 -54 -19
s-37.333 6.33301 -54 19c-20 15.333 -32 35.333 -36 60z" />
    <glyph glyph-name="abreve" unicode="&#x103;" horiz-adv-x="492" 
d="M458 211l0.000976562 -200.999c0 -3.33301 -1 -5.66602 -3 -6.99902c-2 -2 -4.33301 -3 -7 -3h-201c-56.667 0 -106.334 20 -149.001 60s-65 88.333 -67 145v8c0 37.333 8.66699 71.666 26 102.999c19.333 34 45 60.667 77 80c17.333 10.667 36 18.667 56 24
c17.333 4.66699 35.333 7 54 7h9c56 -2.66699 104 -25.334 144 -68.001c40.667 -42.667 61 -92 61 -148zM397.001 70.001v141c0 41.333 -14 77 -42 107c-28.667 30.667 -63.667 46.667 -105 48h-5c-42 0 -78 -15 -108 -45s-45 -66 -45 -108v-5
c1.33301 -41.333 17 -76.333 47 -105c30.667 -28.667 66.667 -43 108 -43h141c2 0 4 1 6 3s3 4.33301 3 7zM155.001 546.001l-1 15c0 5.33301 0.333008 10.333 1 15c12 -1.33301 20 -3.33301 24 -6c4 -19.333 12.333 -35.333 25 -48c12 -12.667 25.667 -19 41 -19
s29 6.33301 41 19c12.667 12.667 21 28.667 25 48c5.33301 3.33301 13.333 5.33301 24 6c0.666992 -4.66699 1 -9.66699 1 -15l-1 -15c-4 -24.667 -16 -44.667 -36 -60c-16.667 -12.667 -34.667 -19 -54 -19s-37.333 6.33301 -54 19c-20 15.333 -32 35.333 -36 60z" />
    <glyph glyph-name="Aogonek" unicode="&#x104;" horiz-adv-x="595" 
d="M574 412l0.000976562 -486.001c0 -22 -7.66699 -40.667 -23 -56c-16 -16 -35 -24 -57 -24h-79v84c0 22 7.66699 41 23 57c15.333 15.333 34 23 56 23h18v147h-426v-143c0 -3.33301 -1 -6 -3 -8c-2.66699 -2.66699 -5.66699 -4 -9 -4h-37c-3.33301 0 -6 1.33301 -8 4
c-2.66699 2 -4 4.66699 -4 8v401c0 1.33301 0.333008 6.33301 1 15c0 8.66699 1 20 3 34c4 25.333 12.333 56.666 25 93.999c13.333 36.667 35.333 70.334 66 101.001c24 23.333 51.667 42 83 56s66 21 104 21s71.667 -7.33301 101 -22
c29.333 -15.333 55.666 -34.666 78.999 -57.999c15.333 -16 28.333 -33.333 39 -52c10 -18 18.333 -36.333 25 -55c12 -34 18.667 -64.333 20 -91c2 -26.667 3 -42 3 -46zM512.001 412.999c0 0.666992 -0.333984 12.333 -1.00098 35c-1.33301 22 -6.66602 47.333 -15.999 76
c-5.33301 15.333 -12.333 30.666 -21 45.999c-8.66699 16 -19.334 30.667 -32.001 44c-17.333 18 -37.333 32.667 -60 44c-23.333 11.333 -50 17 -80 17c-28 -0.666992 -53.667 -6.33398 -77 -17.001c-24 -11.333 -44.667 -25.666 -62 -42.999
c-13.333 -13.333 -24.333 -28 -33 -44c-9.33301 -15.333 -16.666 -30.666 -21.999 -45.999c-10.667 -28.667 -17 -54 -19 -76s-3 -33.333 -3 -34v-202h426v200z" />
    <glyph glyph-name="aogonek" unicode="&#x105;" horiz-adv-x="492" 
d="M458 211l0.00195312 -200.998c0 -2 -0.333008 -3.66699 -1 -5h1v-54c0 -14.667 -5.33301 -27.334 -16 -38.001s-23.334 -16 -38.001 -16h-58v54c0 15.333 5 28 15 38c4.66699 4.66699 9.66699 8.33398 15 11.001h-129c-56.667 0 -106.334 20 -149.001 60
s-65 88.333 -67 145v8c0 37.333 8.66699 71.666 26 102.999c19.333 34 45 60.667 77 80c17.333 10.667 36 18.667 56 24c17.333 4.66699 35.333 7 54 7h9c56 -2.66699 104 -25.334 144 -68.001c40.667 -42.667 61 -92 61 -148zM397.002 70.002v141c0 41.333 -14 77 -42 107
c-28.667 30.667 -63.667 46.667 -105 48h-5c-42 0 -78 -15 -108 -45s-45 -66 -45 -108v-5c1.33301 -41.333 17 -76.333 47 -105c30.667 -28.667 66.667 -43 108 -43h141c2 0 4 1 6 3s3 4.33301 3 7z" />
    <glyph glyph-name="Cacute" unicode="&#x106;" horiz-adv-x="677" 
d="M649 100c-33.333 -31.333 -71.666 -55.667 -114.999 -73c-44 -18 -90.333 -27 -139 -27c-36 0 -70.667 5 -104 15c-33.333 9.33301 -64.333 23 -93 41c-53.333 33.333 -96.333 78 -129 134c-32 56 -48 117.333 -48 184c0 36.667 4.66699 71.667 14 105
c10 33.333 24 64 42 92c32.667 53.333 77 96.333 133 129s117.667 49 185 49c45.333 0 88.333 -7.66699 129 -23c41.333 -16 78 -37.333 110 -64l-45 -46c-27.333 21.333 -57.333 38.333 -90 51c-33.333 12 -68.333 18 -105 18c-55.333 0 -106.333 -13.333 -153 -40
c-46 -27.333 -82.667 -63 -110 -107c-14.667 -23.333 -26.334 -49 -35.001 -77c-8 -27.333 -12 -56 -12 -86c0 -55.333 13.667 -106.333 41 -153c26.667 -46 62 -83 106 -111c23.333 -14.667 49 -26 77 -34c27.333 -8 56 -12 86 -12c40.667 0 78.667 7 114 21
c36 14.667 67.667 34.667 95 60zM341 860.999l45 -0.000976562v-40c0 -10.667 -3.66699 -20 -11 -28c-8 -8 -17.667 -12 -29 -12h-43v40c0 11.333 3.66699 21 11 29c7.33301 6.66699 16.333 10.334 27 11.001z" />
    <glyph glyph-name="cacute" unicode="&#x107;" horiz-adv-x="389" 
d="M337 89c2.66699 -2 6.33691 -4.99805 11.0039 -8.99805c5.33301 -4 9 -7 11 -9c2.66699 -2.66699 5.66699 -5.33398 9 -8.00098c2.66699 -2 4 -4.66699 4 -8c0 -2.66699 -1.33301 -5 -4 -7c-16.667 -13.333 -34.334 -23.666 -53.001 -30.999
c-19.333 -7.33301 -39 -12 -59 -14c-6.66699 -0.666992 -13.334 -1 -20.001 -1c-30 0 -59.667 6.66699 -89 20c-36.667 15.333 -67 41.333 -91 78c-20.667 30 -32.334 63.333 -35.001 100c-0.666992 5.33301 -1 10.666 -1 15.999c0 30.667 7 60.334 21 89.001
c19.333 41.333 47 72.666 83 93.999c35.333 20.667 72.666 31.334 111.999 32.001h1c20.667 0 41 -3 61 -9c20.667 -6 40 -15.333 58 -28c0.666992 -0.666992 1 -1.33398 1 -2.00098s-0.333008 -1.33398 -1 -2.00098c-6.66699 -6.66699 -13.334 -13 -20.001 -19l-20 -20
c-1.33301 -0.666992 -2.33301 -0.666992 -3 0c-38.667 20.667 -79.667 24 -123 10c-44 -14 -75.667 -44.333 -95 -91c-8 -20 -11.333 -41.333 -10 -64c1.33301 -22 7.33301 -42.667 18 -62c24.667 -43.333 59 -69.333 103 -78c44.667 -8.66699 84.334 -1 119.001 23
c2 1.33301 4 2 6 2s4 -0.666992 6 -2zM162.003 494.002v41c0 11.333 4 21 12 29s17.667 12 29 12h45v-41c0 -11.333 -4 -21 -12 -29s-17.667 -12 -29 -12h-45z" />
    <glyph glyph-name="Ccaron" unicode="&#x10c;" horiz-adv-x="677" 
d="M649 100c-33.333 -31.333 -71.666 -55.667 -114.999 -73c-44 -18 -90.333 -27 -139 -27c-36 0 -70.667 5 -104 15c-33.333 9.33301 -64.333 23 -93 41c-53.333 33.333 -96.333 78 -129 134c-32 56 -48 117.333 -48 184c0 36.667 4.66699 71.667 14 105
c10 33.333 24 64 42 92c32.667 53.333 77 96.333 133 129s117.667 49 185 49c45.333 0 88.333 -7.66699 129 -23c41.333 -16 78 -37.333 110 -64l-45 -46c-27.333 21.333 -57.333 38.333 -90 51c-33.333 12 -68.333 18 -105 18c-55.333 0 -106.333 -13.333 -153 -40
c-46 -27.333 -82.667 -63 -110 -107c-14.667 -23.333 -26.334 -49 -35.001 -77c-8 -27.333 -12 -56 -12 -86c0 -55.333 13.667 -106.333 41 -153c26.667 -46 62 -83 106 -111c23.333 -14.667 49 -26 77 -34c27.333 -8 56 -12 86 -12c40.667 0 78.667 7 114 21
c36 14.667 67.667 34.667 95 60zM426 852.999v-0.999023c0 -4 -1 -7.33301 -3 -10l-78 -78c-2.66699 -2.66699 -5.66699 -4 -9 -4c-2.66699 0 -5.33398 1.33301 -8.00098 4l-81 80c-2 2 -3 4.66699 -3 8s1.66699 6.66602 5 9.99902s7 5 11 5
c4 0.666992 7.66699 -0.333008 11 -3l57 -57c2 -2 4.66699 -3 8 -3c2.66699 0 5.33398 1 8.00098 3l58 59c2 2 4.66699 3 8 3s6.83301 -1.66699 10.5 -5s5.5 -7 5.5 -11z" />
    <glyph glyph-name="ccaron" unicode="&#x10d;" horiz-adv-x="389" 
d="M337 89c2.66699 -2 6.33691 -4.99805 11.0039 -8.99805c5.33301 -4 9 -7 11 -9c2.66699 -2.66699 5.66699 -5.33398 9 -8.00098c2.66699 -2 4 -4.66699 4 -8c0 -2.66699 -1.33301 -5 -4 -7c-16.667 -13.333 -34.334 -23.666 -53.001 -30.999
c-19.333 -7.33301 -39 -12 -59 -14c-6.66699 -0.666992 -13.334 -1 -20.001 -1c-30 0 -59.667 6.66699 -89 20c-36.667 15.333 -67 41.333 -91 78c-20.667 30 -32.334 63.333 -35.001 100c-0.666992 5.33301 -1 10.666 -1 15.999c0 30.667 7 60.334 21 89.001
c19.333 41.333 47 72.666 83 93.999c35.333 20.667 72.666 31.334 111.999 32.001h1c20.667 0 41 -3 61 -9c20.667 -6 40 -15.333 58 -28c0.666992 -0.666992 1 -1.33398 1 -2.00098s-0.333008 -1.33398 -1 -2.00098c-6.66699 -6.66699 -13.334 -13 -20.001 -19l-20 -20
c-1.33301 -0.666992 -2.33301 -0.666992 -3 0c-38.667 20.667 -79.667 24 -123 10c-44 -14 -75.667 -44.333 -95 -91c-8 -20 -11.333 -41.333 -10 -64c1.33301 -22 7.33301 -42.667 18 -62c24.667 -43.333 59 -69.333 103 -78c44.667 -8.66699 84.334 -1 119.001 23
c2 1.33301 4 2 6 2s4 -0.666992 6 -2zM287.003 564.002l-0.000976562 -1.00098c0 -3.33301 -1 -6.33301 -3 -9l-78 -79c-2.66699 -2 -5.33398 -3 -8.00098 -3c-3.33301 0 -6.33301 1 -9 3l-81 81c-2 2 -3 4.33301 -3 7c0 3.33301 1 6 3 8l3 3
c2.66699 2.66699 6.33398 4.33398 11.001 5.00098c4 0 7.33301 -1.33301 10 -4l57 -56c2.66699 -2.66699 5.33398 -4 8.00098 -4c3.33301 0 6 1.33301 8 4l59 58c2 2 4.33301 3 7 3c3.33301 0 6 -1 8 -3l3 -3c3.33301 -2.66699 5 -6 5 -10z" />
    <glyph glyph-name="Dcaron" unicode="&#x10e;" horiz-adv-x="615" 
d="M593 364c0 -66 -15.668 -126.333 -47.001 -181c-31.333 -55.333 -72.666 -99.333 -123.999 -132c-28 -18 -58.333 -32 -91 -42c-32 -10 -65.667 -15.667 -101 -17h-168c-3.33301 0 -6.33301 1.33301 -9 4c-2 2.66699 -3 5.66699 -3 9v719c0 3.33301 1 6.33301 3 9
c2.66699 2 5.66699 3 9 3h168c35.333 -0.666992 69 -6 101 -16c32.667 -10 62.667 -24 90 -42c52 -33.333 93.667 -77.333 125 -132c31.333 -55.333 47 -116 47 -182zM225.999 672l-99.999 0.00195312c-4 0 -7 -1 -9 -3c-2.66699 -2.66699 -4 -5.66699 -4 -9v-592
c0 -3.33301 1.33301 -6.33301 4 -9c2 -2 5 -3 9 -3h100c29.333 0 57.666 4.33301 84.999 13c26.667 8.66699 51.667 20.334 75 35.001c43.333 27.333 78 63.666 104 108.999c26 46 39 96.333 39 151c0 29.333 -4 57.666 -12 84.999s-19 52.666 -33 75.999
c-26.667 43.333 -62.667 78.666 -108 105.999c-45.333 26.667 -95.333 40.334 -150 41.001zM321 853.002v-0.999023c0 -4 -1 -7.33301 -3 -10l-78 -78c-2.66699 -2.66699 -5.66699 -4 -9 -4c-2.66699 0 -5.33398 1.33301 -8.00098 4l-81 80c-2 2 -3 4.66699 -3 8
s1.66699 6.66602 5 9.99902s7 5 11 5c4 0.666992 7.66699 -0.333008 11 -3l57 -57c2 -2 4.66699 -3 8 -3c2.66699 0 5.33398 1 8.00098 3l58 59c2 2 4.66699 3 8 3s6.83301 -1.66699 10.5 -5s5.5 -7 5.5 -11z" />
    <glyph glyph-name="dcaron" unicode="&#x10f;" horiz-adv-x="558" 
d="M472 658v80h33c8.66699 0 16 -2.66699 22 -8c6.66699 -6 10.667 -13 12 -21v-84h-34c-9.33301 0 -17.333 3 -24 9c-6 6.66699 -9 14.667 -9 24zM391 69v150c0 2 -0.333008 4 -1 6v3c-4 39.333 -20.667 72.333 -50 99c-28.667 27.333 -63.334 41 -104.001 41
c-42.667 0 -79.334 -15.333 -110.001 -46c-29.333 -30 -44 -66 -44 -108v-3c0.666992 -42.667 16.334 -78.667 47.001 -108s67.334 -44 110.001 -44h142c2.66699 0 5 1 7 3s3 4.33301 3 7zM452 9c0 -2.66699 -1 -4.99707 -3 -6.99707s-4.66699 -3 -8 -3h-205
c-60 0 -111.333 21.333 -154 64c-40.667 41.333 -61.334 91.333 -62.001 150v4c1.33301 59.333 23.333 109.666 66 150.999s93.334 61.666 152.001 60.999c25.333 -0.666992 49.666 -5.33398 72.999 -14.001c22.667 -8.66699 43.334 -20.667 62.001 -36
c3.33301 -2.66699 7 -3 11 -1c3.33301 1.33301 5 4.33301 5 9v322c0 8 3 15 9 21s13.333 9 22 9h32v-730z" />
    <glyph glyph-name="Dcroat" unicode="&#x110;" horiz-adv-x="720" 
d="M155 333h-105.001v25c0 12.667 2.66699 21.667 8 27l4 4c4.66699 4 10 6.33301 16 7h77v328c0 3.33301 1 6.33301 3 9c2.66699 2 5.66699 3 9 3h168c35.333 -0.666992 69 -6 101 -16c32.667 -10 62.667 -24 90 -42c52 -33.333 93.667 -77.333 125 -132
c31.333 -55.333 47 -116 47 -182s-15.667 -126.333 -47 -181c-31.333 -55.333 -72.666 -99.333 -123.999 -132c-28 -18 -58.333 -32 -91 -42c-32 -10 -65.667 -15.667 -101 -17h-168c-3.33301 0 -6.33301 1.33301 -9 4c-2 2.66699 -3 5.66699 -3 9v328zM330.999 672
l-100.001 0.00195312c-4 0 -7 -1 -9 -3c-2.66699 -2.66699 -4 -5.66699 -4 -9v-264h105v-15c-0.666992 -6 -0.666992 -11.333 0 -16c0 -8.66699 -3 -16 -9 -22c-1.33301 -1.33301 -2.66602 -2.33301 -3.99902 -3c-5.33301 -4 -11.666 -6.33301 -18.999 -7h-73v-265
c0 -3.33301 1.33301 -6.33301 4 -9c2 -2 5 -3 9 -3h100c29.333 0 57.666 4.33301 84.999 13c26.667 8.66699 51.667 20.334 75 35.001c43.333 27.333 78 63.666 104 108.999c26 46 39 96.333 39 151c0 29.333 -4 57.666 -12 84.999s-19 52.666 -33 75.999
c-26.667 43.333 -62.667 78.666 -108 105.999c-45.333 26.667 -95.333 40.334 -150 41.001z" />
    <glyph glyph-name="dcroat" unicode="&#x111;" horiz-adv-x="598" 
d="M452 9c0 -2.66699 -1.00195 -4.99707 -3.00195 -6.99707s-4.66699 -3 -8 -3h-205c-60 0 -111.333 21.333 -154 64c-40.667 41.333 -61.334 91.333 -62.001 150v4c1.33301 59.333 23.333 109.666 66 150.999s93.334 61.666 152.001 60.999
c25.333 -0.666992 49.666 -5.33398 72.999 -14.001c22.667 -8.66699 43.334 -20.667 62.001 -36c3.33301 -2.66699 7 -3 11 -1c3.33301 1.33301 5 4.33301 5 9v229h-105v25c0 12 2.66699 20.667 8 26l4 4c4.66699 4 10 6.33301 16 7h77v31c0 8 3 15 9 21s13.333 9 22 9h32
v-61h105v-15c-0.666992 -6 -0.666992 -11.333 0 -16c0 -8 -3 -15 -9 -21c-1.33301 -1.33301 -2.66602 -2.33301 -3.99902 -3c-5.33301 -4 -11.666 -6.33301 -18.999 -7h-73v-607zM390.998 69.0029v150c0 2 -0.333008 4 -1 6v3c-4 39.333 -20.667 72.333 -50 99
c-28.667 27.333 -63.334 41 -104.001 41c-42.667 0 -79.334 -15.333 -110.001 -46c-29.333 -30 -44 -66 -44 -108v-3c0.666992 -42.667 16.334 -78.667 47.001 -108s67.334 -44 110.001 -44h142c2.66699 0 5 1 7 3s3 4.33301 3 7z" />
    <glyph glyph-name="Ecaron" unicode="&#x11a;" horiz-adv-x="472" 
d="M439 0h-403c-3.33301 -0 -6 1.33301 -8 4c-2.66699 2 -4 4.66699 -4 8v715c0 3.33301 1.33301 6.33301 4 9c2 2 4.66699 3 8 3h403c3.33301 0 6.33301 -1.33301 9 -4c2 -2.66699 3 -5.66699 3 -9v-34c0 -3.33301 -1 -6 -3 -8c-2.66699 -2.66699 -5.66699 -4 -9 -4h-344
c-3.33301 0 -6.33301 -1.33301 -9 -4c-2 -2 -3 -5 -3 -9v-221c0 -3.33301 1 -6.33301 3 -9c2.66699 -2 5.66699 -3 9 -3h248c3.33301 0 6 -1.33301 8 -4c2.66699 -2.66699 4 -5.66699 4 -9v-34c0 -3.33301 -1.33301 -6 -4 -8c-2 -2.66699 -4.66699 -4 -8 -4h-248
c-3.33301 0 -6.33301 -1.33301 -9 -4c-2 -2 -3 -5 -3 -9v-306h356c3.33301 0 6.33301 -1 9 -3c2 -2.66699 3 -5.66699 3 -9v-32c0 -3.33301 -1 -6 -3 -8c-2.66699 -2.66699 -5.66699 -4 -9 -4zM328 853v-0.999023c0 -4 -1 -7.33301 -3 -10l-78 -78
c-2.66699 -2.66699 -5.66699 -4 -9 -4c-2.66699 0 -5.33398 1.33301 -8.00098 4l-81 80c-2 2 -3 4.66699 -3 8s1.66699 6.66602 5 9.99902s7 5 11 5c4 0.666992 7.66699 -0.333008 11 -3l57 -57c2 -2 4.66699 -3 8 -3c2.66699 0 5.33398 1 8.00098 3l58 59
c2 2 4.66699 3 8 3s6.83301 -1.66699 10.5 -5s5.5 -7 5.5 -11z" />
    <glyph glyph-name="ecaron" unicode="&#x11b;" horiz-adv-x="430" 
d="M395 358c1.33301 -2 1.99902 -4.33105 1.99902 -6.99805v-1c0 -2 -0.666992 -3.66699 -2 -5l-252 -252c26.667 -20.667 57 -31.334 91 -32.001c33.333 -0.666992 63.666 8.66602 90.999 27.999c2 1.33301 4 2 6 2s4 -1 6 -3l33 -28c2 -1.33301 3 -3.66602 3 -6.99902
s-1.33301 -6 -4 -8c-39.333 -30 -83.666 -45 -132.999 -45h-6c-52.667 1.33301 -98.667 19.666 -138 54.999c-43.333 38 -67.333 86.333 -72 145v18c0 50.667 16.333 96 49 136c36 44 81.667 69.667 137 77c10.667 1.33301 21 2 31 2c43.333 0 83.666 -12.667 120.999 -38
c8.66699 -7.33301 15.334 -13.333 20.001 -18c4.66699 -4 10.334 -10.333 17.001 -19zM94.999 151.002c2 -2.66699 4.66699 -4.33105 8 -4.99805h2c2 0 4 1 6 3l192 192c2 2 3 4.33301 3 7v2c0 3.33301 -1.66699 5.66602 -5 6.99902c-20.667 9.33301 -41.667 14 -63 14
c-10.667 0 -21.667 -1 -33 -3c-33.333 -6.66699 -61.666 -23 -84.999 -49c-20.667 -24 -33 -51.333 -37 -82c-0.666992 -7.33301 -1 -14.333 -1 -21c-0.666992 -22.667 3.66602 -44.334 12.999 -65.001zM299.999 564.005l-0.000976562 -1.00098
c0 -3.33301 -1 -6.33301 -3 -9l-78 -79c-2.66699 -2 -5.33398 -3 -8.00098 -3c-3.33301 0 -6.33301 1 -9 3l-81 81c-2 2 -3 4.33301 -3 7c0 3.33301 1 6 3 8l3 3c2.66699 2.66699 6.33398 4.33398 11.001 5.00098c4 0 7.33301 -1.33301 10 -4l57 -56
c2.66699 -2.66699 5.33398 -4 8.00098 -4c3.33301 0 6 1.33301 8 4l59 58c2 2 4.33301 3 7 3c3.33301 0 6 -1 8 -3l3 -3c3.33301 -2.66699 5 -6 5 -10z" />
    <glyph glyph-name="dotlessi" unicode="&#x131;" horiz-adv-x="144" 
d="M83 490h-42v42c0 12 4 22 12 30s18 12 30 12c11.333 0 21.333 -4 30 -12c8 -8.66699 12 -18.667 12 -30s-4 -21 -12 -29c-8 -8.66699 -18 -13 -30 -13zM53 3c-2.66699 0 -5 0.666992 -7 2c-1.33301 2 -2 4.33301 -2 7v413c0 2.66699 1 5 3 7s4.33301 3 7 3h41
c2.66699 0 5 -1 7 -3s3 -4.33301 3 -7v-413c0 -2.66699 -1 -5 -3 -7c-1.33301 -1.33301 -3.33301 -2 -6 -2h-43z" />
    <glyph glyph-name="Lslash" unicode="&#x141;" horiz-adv-x="423" 
d="M72 248l-18.002 17.999c-8.66699 8.66699 -13 16.667 -13 24c0 2 0.333008 3.66699 1 5c0 6.66699 2 12.334 6 17.001l67 67v352h31c8.66699 0 16.334 -3.33301 23.001 -10c5.33301 -5.33301 8.33301 -11.666 9 -18.999v-260l43 43l11 -11
c3.33301 -4.66699 7 -8.33398 11 -11.001c6 -6 9 -13 9 -21c0 -2 -0.333008 -3.66699 -1 -5c-1.33301 -6.66699 -4.33301 -13 -9 -19l-64 -64v-164c0 -2 1 -9.66699 3 -23c2.66699 -13.333 7.66699 -27.666 15 -42.999c9.33301 -20 21.666 -35 36.999 -45s34 -15.333 56 -16
h77c7.33301 -0.666992 15 -3.33398 23 -8.00098c8.66699 -5.33301 13.334 -12 14.001 -20v-34h-116c-34 1.33301 -63.333 10.333 -88 27c-25.333 16 -45.666 39.667 -60.999 71c-10 22 -16.333 42.333 -19 61c-2.66699 18 -4 27.333 -4 28v103z" />
    <glyph glyph-name="lslash" unicode="&#x142;" horiz-adv-x="342" 
d="M58 248l-18 18.001c-8.66699 8.66699 -13 16.667 -13 24c0 2 0.333008 3.66699 1 5c0 6.66699 2 12.334 6 17.001l69 69v352h30c8.66699 0 16 -3 22 -9s9 -13.333 9 -22v-260l43 43l11 -11c3.33301 -4.66699 7 -8.33398 11 -11.001c6 -6 9 -13 9 -21
c0 -2 -0.333008 -3.66699 -1 -5c-1.33301 -6.66699 -4.33301 -13 -9 -19l-64 -64v-144c0.666992 -40.667 15.667 -75.334 45 -104.001c29.333 -29.333 64.333 -44.333 105 -45c8.66699 0 15.667 -3 21 -9c6 -6 9 -13 9 -21v-21c0 -2.66699 -0.666992 -5 -2 -7
c-2 -2 -4.66699 -3 -8 -3h-20c-58 0.666992 -107.333 21.334 -148 62.001c-41.333 41.333 -62.333 90.666 -63 147.999v83z" />
    <glyph glyph-name="Nacute" unicode="&#x143;" horiz-adv-x="657" 
d="M623 -5l-37.002 -0.00390625c-3.33301 0 -6 1.33301 -8 4c-2.66699 2 -4 4.66699 -4 8v401l-1 34c-1.33301 22 -6.66602 47.333 -15.999 76c-5.33301 15.333 -12.333 31 -21 47c-8.66699 15.333 -19.334 29.666 -32.001 42.999c-20 20.667 -44 36.334 -72 47.001
s-59.667 16 -95 16c-34.667 -0.666992 -66 -6 -94 -16c-27.333 -10.667 -51 -26 -71 -46c-13.333 -13.333 -24.666 -28 -33.999 -44c-8.66699 -15.333 -16 -30.666 -22 -45.999c-10.667 -28.667 -16.667 -54 -18 -76l-3 -33v-401c0 -3.33301 -1.33301 -6 -4 -8
c-2 -2.66699 -4.66699 -4 -8 -4h-37c-3.33301 0 -6.33301 1.33301 -9 4c-2 2 -3 4.66699 -3 8v401c0 2 1 16 3 42c2 26.667 9.66699 57.334 23 92.001c6.66699 18 15.667 36.333 27 55s25 36.334 41 53.001c26.667 26.667 57.334 46.334 92.001 59.001
c34.667 13.333 73.667 20 117 20c44 0 83.667 -6.66699 119 -20c35.333 -14 66 -34.333 92 -61c16 -16 29.333 -33.333 40 -52c10 -18.667 18.333 -37 25 -55c12 -33.333 18.667 -63.333 20 -90c1.33301 -24 2 -39 2 -45v-400c0 -4 -1 -7 -3 -9
c-2.66699 -2.66699 -5.66699 -4 -9 -4zM339.998 860.996l45 -0.000976562v-40c0 -10.667 -3.66699 -20 -11 -28c-8 -8 -17.667 -12 -29 -12h-43v40c0 11.333 3.66699 21 11 29c7.33301 6.66699 16.333 10.334 27 11.001z" />
    <glyph glyph-name="nacute" unicode="&#x144;" 
d="M408 215v-204c0 -3.33301 -0.666992 -6 -2 -8c-2 -1.33301 -4.33301 -2 -7 -2c-8 -0.666992 -20 -1 -36 -1c-2.66699 0 -5 1 -7 3s-3 4.33301 -3 7v204c0 42 -13.333 78 -40 108s-59 45 -97 45s-70.333 -15 -97 -45s-40 -66 -40 -108v-207
c-1.33301 -2 -2.66602 -3.66699 -3.99902 -5c-1.33301 -0.666992 -3 -1 -5 -1h-36c-2.66699 0 -5 0.666992 -7 2c-2 2 -3 4.66699 -3 8v204c0 58.667 18.667 108.667 56 150c37.333 42 82.666 63 135.999 63c52.667 0 97.667 -21 135 -63c38 -41.333 57 -91.333 57 -150z
M182 494v41c0 11.333 4 21 12 29s17.667 12 29 12h45v-41c0 -11.333 -4 -21 -12 -29s-17.667 -12 -29 -12h-45z" />
    <glyph glyph-name="Ncaron" unicode="&#x147;" horiz-adv-x="657" 
d="M623 -5l-37.002 -0.00390625c-3.33301 0 -6 1.33301 -8 4c-2.66699 2 -4 4.66699 -4 8v401l-1 34c-1.33301 22 -6.66602 47.333 -15.999 76c-5.33301 15.333 -12.333 31 -21 47c-8.66699 15.333 -19.334 29.666 -32.001 42.999c-20 20.667 -44 36.334 -72 47.001
s-59.667 16 -95 16c-34.667 -0.666992 -66 -6 -94 -16c-27.333 -10.667 -51 -26 -71 -46c-13.333 -13.333 -24.666 -28 -33.999 -44c-8.66699 -15.333 -16 -30.666 -22 -45.999c-10.667 -28.667 -16.667 -54 -18 -76l-3 -33v-401c0 -3.33301 -1.33301 -6 -4 -8
c-2 -2.66699 -4.66699 -4 -8 -4h-37c-3.33301 0 -6.33301 1.33301 -9 4c-2 2 -3 4.66699 -3 8v401c0 2 1 16 3 42c2 26.667 9.66699 57.334 23 92.001c6.66699 18 15.667 36.333 27 55s25 36.334 41 53.001c26.667 26.667 57.334 46.334 92.001 59.001
c34.667 13.333 73.667 20 117 20c44 0 83.667 -6.66699 119 -20c35.333 -14 66 -34.333 92 -61c16 -16 29.333 -33.333 40 -52c10 -18.667 18.333 -37 25 -55c12 -33.333 18.667 -63.333 20 -90c1.33301 -24 2 -39 2 -45v-400c0 -4 -1 -7 -3 -9
c-2.66699 -2.66699 -5.66699 -4 -9 -4zM425.998 852.996v-0.999023c0 -4 -1 -7.33301 -3 -10l-78 -78c-2.66699 -2.66699 -5.66699 -4 -9 -4c-2.66699 0 -5.33398 1.33301 -8.00098 4l-81 80c-2 2 -3 4.66699 -3 8s1.66699 6.66602 5 9.99902s7 5 11 5
c4 0.666992 7.66699 -0.333008 11 -3l57 -57c2 -2 4.66699 -3 8 -3c2.66699 0 5.33398 1 8.00098 3l58 59c2 2 4.66699 3 8 3s6.83301 -1.66699 10.5 -5s5.5 -7 5.5 -11z" />
    <glyph glyph-name="ncaron" unicode="&#x148;" 
d="M408 215v-204c0 -3.33301 -0.666992 -6 -2 -8c-2 -1.33301 -4.33301 -2 -7 -2c-8 -0.666992 -20 -1 -36 -1c-2.66699 0 -5 1 -7 3s-3 4.33301 -3 7v204c0 42 -13.333 78 -40 108s-59 45 -97 45s-70.333 -15 -97 -45s-40 -66 -40 -108v-207
c-1.33301 -2 -2.66602 -3.66699 -3.99902 -5c-1.33301 -0.666992 -3 -1 -5 -1h-36c-2.66699 0 -5 0.666992 -7 2c-2 2 -3 4.66699 -3 8v204c0 58.667 18.667 108.667 56 150c37.333 42 82.666 63 135.999 63c52.667 0 97.667 -21 135 -63c38 -41.333 57 -91.333 57 -150z
M307 564l-0.000976562 -1.00098c0 -3.33301 -1 -6.33301 -3 -9l-78 -79c-2.66699 -2 -5.33398 -3 -8.00098 -3c-3.33301 0 -6.33301 1 -9 3l-81 81c-2 2 -3 4.33301 -3 7c0 3.33301 1 6 3 8l3 3c2.66699 2.66699 6.33398 4.33398 11.001 5.00098c4 0 7.33301 -1.33301 10 -4
l57 -56c2.66699 -2.66699 5.33398 -4 8.00098 -4c3.33301 0 6 1.33301 8 4l59 58c2 2 4.33301 3 7 3c3.33301 0 6 -1 8 -3l3 -3c3.33301 -2.66699 5 -6 5 -10z" />
    <glyph glyph-name="OE" unicode="&#x152;" horiz-adv-x="838" 
d="M802 0h-382c-10 -0.666992 -20 -1 -30 -1c-34.667 0 -68 5 -100 15c-32 9.33301 -62 22.333 -90 39c-50.667 32 -91.667 75 -123 129c-31.333 53.333 -47 112.333 -47 177c0 34.667 4.66699 68 14 100c10 32 23.333 61.667 40 89c32 50.667 75 91.667 129 123
c53.333 31.333 112.333 47 177 47v8c0 3.33301 1.33301 6.33301 4 9c2 2 4.66699 3 8 3h402c3.33301 0 6.33301 -1.33301 9 -4s4 -5.66699 4 -9v-34c0 -3.33301 -1.33301 -6 -4 -8c-2.66699 -2.66699 -5.66699 -4 -9 -4h-343c-3.33301 0 -6.33301 -1.33301 -9 -4
c-2 -2 -3 -5 -3 -9v-220c0 -4 1 -7 3 -9c2.66699 -2.66699 5.66699 -4 9 -4h247c3.33301 0 6.33301 -1.33301 9 -4c2.66699 -2 4 -4.66699 4 -8v-34c0 -3.33301 -1.33301 -6.33301 -4 -9s-5.66699 -4 -9 -4h-247c-3.33301 0 -6.33301 -1 -9 -3
c-2 -2.66699 -3 -5.66699 -3 -9v-306h353c4 0 7 -1.33301 9 -4c2.66699 -2 4 -5 4 -9v-31c0 -3.33301 -1.33301 -6 -4 -8c-2 -2.66699 -5 -4 -9 -4zM310 644c-26.667 -8 -51.333 -18.998 -74 -32.998c-42.667 -26 -76.667 -61.333 -102 -106
c-26 -44.667 -39 -93.667 -39 -147c0 -28.667 4 -56.334 12 -83.001c7.33301 -26.667 18 -51.334 32 -74.001c26.667 -42.667 62.334 -76.667 107.001 -102c43.333 -26 91.333 -39 144 -39v596c-28.667 -0.666992 -55.334 -4.66699 -80.001 -12z" />
    <glyph glyph-name="oe" unicode="&#x153;" horiz-adv-x="801" 
d="M766 358c1.33301 -2 1.99805 -4.3291 1.99805 -6.99609v-1c0 -2 -0.666992 -3.66699 -2 -5l-252 -252c26.667 -20.667 57 -31.334 91 -32.001c33.333 -0.666992 63.666 8.66602 90.999 27.999c2 1.33301 4 2 6 2s4 -1 6 -3l2 -2c6 -4.66699 11.333 -9 16 -13l15 -13
c2 -1.33301 3 -3.66602 3 -6.99902s-1.33301 -6 -4 -8c-39.333 -30 -83.666 -45 -132.999 -45h-6c-52.667 1.33301 -98.667 19.666 -138 54.999c-17.333 14.667 -31.666 31 -42.999 49c-8.66699 -14 -19.334 -27.333 -32.001 -40c-41.333 -42 -91.666 -63 -150.999 -63
c-58.667 0 -109 21 -151 63c-41.333 42 -62 92.333 -62 151c0 59.333 20.667 109.666 62 150.999c42 42 92.333 63 151 63s109 -21 151 -63c12.667 -12.667 23.334 -26 32.001 -40c6 9.33301 12.667 18.666 20 27.999c36 44 81.667 69.667 137 77c10.667 1.33301 21 2 31 2
c43.333 0 83.666 -12.667 120.999 -38l6 -5c4.66699 -4 9.33398 -8.33301 14.001 -13c4.66699 -4 8.66699 -8 12 -12zM236.998 369.004c-42.667 0 -79 -15 -109 -45s-45 -66.333 -45 -109c0 -42 15.333 -78.333 46 -109c30 -30 66 -45 108 -45c42.667 0 79 15 109 45
c28 28.667 43 62.667 45 102v7c0 42.667 -15 79 -45 109s-66.333 45 -109 45zM465.998 151.004c2 -2.66699 4.66699 -4.33203 8 -4.99902h2c2 0 4 1 6 3l192 192c2 2 3 4.33301 3 7c0.666992 0.666992 0.666992 1.33398 0 2.00098c0 3.33301 -1.66699 5.66602 -5 6.99902
c-20.667 9.33301 -41.667 14 -63 14c-10.667 0 -21.667 -1 -33 -3c-33.333 -6.66699 -61.666 -23 -84.999 -49c-20.667 -24 -33 -51.333 -37 -82c-0.666992 -7.33301 -1 -14.333 -1 -21c-0.666992 -22.667 3.66602 -44.334 12.999 -65.001z" />
    <glyph glyph-name="Rcaron" unicode="&#x158;" horiz-adv-x="513" 
d="M476 -6l-46.999 -0.00195312c-2 0 -4 0.666992 -6 2c-2.66699 1.33301 -4.33398 3 -5.00098 5l-144 294h-180c-2.66699 0 -5 -1 -7 -3s-3 -4.33301 -3 -7v-262c0 -8.66699 -2.66699 -16 -8 -22c-6 -6 -13 -9.33301 -21 -10h-34v523c0 60.667 21.333 113 64 157
s94.334 66.333 155.001 67h6c60.667 -0.666992 112.334 -22.667 155.001 -66c42.667 -44 63.334 -96.667 62.001 -158c-0.666992 -25.333 -5.33398 -49.666 -14.001 -72.999s-20.334 -44.333 -35.001 -63c-5.33301 -5.33301 -9.5 -9.66602 -12.5 -12.999
s-12.5 -12 -28.5 -26l-1 -1c-5.33301 -4.66699 -11 -8.66699 -17 -12s-12 -6.33301 -18 -9l150 -304c1.33301 -2 2 -4 2 -6c0 -2.66699 -0.666992 -5 -2 -7c-2.66699 -4 -6.33398 -6 -11.001 -6zM401.001 517.998c0 44 -15.668 81.667 -47.001 113
c-31.333 30.667 -68.666 46 -111.999 46h-2c-43.333 -0.666992 -80 -16.667 -110 -48c-30.667 -32 -46 -70 -46 -114v-146c0 -2.66699 1 -5 3 -7s4.33301 -3 7 -3h149c43.333 0 80.333 15.667 111 47c31.333 30.667 47 68 47 112zM346 852.998v-0.999023
c0 -4 -1 -7.33301 -3 -10l-78 -78c-2.66699 -2.66699 -5.66699 -4 -9 -4c-2.66699 0 -5.33398 1.33301 -8.00098 4l-81 80c-2 2 -3 4.66699 -3 8s1.66699 6.66602 5 9.99902s7 5 11 5c4 0.666992 7.66699 -0.333008 11 -3l57 -57c2 -2 4.66699 -3 8 -3
c2.66699 0 5.33398 1 8.00098 3l58 59c2 2 4.66699 3 8 3s6.83301 -1.66699 10.5 -5s5.5 -7 5.5 -11z" />
    <glyph glyph-name="rcaron" unicode="&#x159;" horiz-adv-x="266" 
d="M98 63v-50.999c0 -2.66699 -1 -5 -3 -7s-4.33301 -3 -7 -3h-42c-2.66699 0 -5 1 -7 3s-3 4.33301 -3 7v205c0 55.333 18.333 103 55 143c37.333 40.667 82.666 63.667 135.999 69h2c2 0 4 -0.666992 6 -2c2 -2 3 -4.33301 3 -7v-42c0 -2 -0.666992 -4 -2 -6
c-2 -2 -4.33301 -3 -7 -3c-37.333 -5.33301 -68.666 -22.333 -93.999 -51s-38 -62.334 -38 -101.001v-154h1zM228 564.001l-0.000976562 -1.00098c0 -3.33301 -1 -6.33301 -3 -9l-78 -79c-2.66699 -2 -5.33398 -3 -8.00098 -3c-3.33301 0 -6.33301 1 -9 3l-81 81
c-2 2 -3 4.33301 -3 7c0 3.33301 1 6 3 8l3 3c2.66699 2.66699 6.33398 4.33398 11.001 5.00098c4 0 7.33301 -1.33301 10 -4l57 -56c2.66699 -2.66699 5.33398 -4 8.00098 -4c3.33301 0 6 1.33301 8 4l59 58c2 2 4.33301 3 7 3c3.33301 0 6 -1 8 -3l3 -3
c3.33301 -2.66699 5 -6 5 -10z" />
    <glyph glyph-name="Sacute" unicode="&#x15a;" horiz-adv-x="492" 
d="M232 -2l-14.999 0.00683594c-4.66699 0 -9.33398 0.333008 -14.001 1c-30.667 2.66699 -61.334 9.33398 -92.001 20.001c-30.667 11.333 -61.667 26.333 -93 45c-2.66699 2 -4.33398 4.66699 -5.00098 8v3c0 2 0.666992 4 2 6c4 7.33301 10.667 18 20 32
c2 2.66699 4.66699 4.66699 8 6c3.33301 0.666992 6.33301 0 9 -2c65.333 -39.333 122 -58.333 170 -57c48 2 87.333 8.66699 118 20c18 6.66699 35 23.667 51 51c16.667 27.333 15.334 68.333 -3.99902 123c-4.66699 14 -17.334 28.333 -38.001 43
c-20 14 -42.667 27.667 -68 41l-41 21l-41 19l-60 29c-19.333 9.33301 -35.333 18.666 -48 27.999c-20.667 14 -36 31.333 -46 52c-10.667 21.333 -15.667 45.666 -15 72.999c0 18 1.66699 33.333 5 46c3.33301 13.333 5.33301 21 6 23s2.33398 6 5.00098 12
s7.33398 13.333 14.001 22c10.667 14.667 28 30.667 52 48c24.667 16.667 58.667 26.667 102 30c10.667 0.666992 21 1 31 1c40 0 75 -7 105 -21c37.333 -17.333 63 -31 77 -41c2.66699 -2 4 -5 4 -9c0.666992 -3.33301 -0.333008 -6.33301 -3 -9
c-2.66699 -3.33301 -6.66699 -8 -12 -14c-2.66699 -3.33301 -7 -8.33301 -13 -15c-2 -2.66699 -4.66699 -4.33398 -8 -5.00098c-2.66699 0 -5.33398 1 -8.00098 3c-11.333 8 -31.666 18.667 -60.999 32c-30 14 -65.667 19.333 -107 16
c-30 -2.66699 -53.333 -9.33398 -70 -20.001c-17.333 -10.667 -29.666 -21 -36.999 -31c-4 -4.66699 -7 -9 -9 -13c-1.33301 -4 -2.33301 -6.33301 -3 -7l-1 -1c0 -1.33301 -1.66699 -9 -5 -23c-4 -14.667 -4.33301 -30.667 -1 -48c2 -8.66699 5.33301 -17.334 10 -26.001
c5.33301 -8.66699 12.666 -16.334 21.999 -23.001c11.333 -8 26 -16.333 44 -25l56 -27c48.667 -22.667 94.667 -46.334 138 -71.001c42.667 -25.333 70 -55 82 -89c9.33301 -24.667 14.666 -49.667 15.999 -75c0.666992 -6 1 -12 1 -18c0 -18 -2 -35 -6 -51
c-6 -26.667 -17.333 -49.334 -34 -68.001s-37.334 -32.667 -62.001 -42c-21.333 -7.33301 -42.666 -13 -63.999 -17s-42.666 -6 -63.999 -6zM243.001 861.007l45 -0.000976562v-40c0 -10.667 -3.66699 -20 -11 -28c-8 -8 -17.667 -12 -29 -12h-43v40
c0 11.333 3.66699 21 11 29c7.33301 6.66699 16.333 10.334 27 11.001z" />
    <glyph glyph-name="sacute" unicode="&#x15b;" horiz-adv-x="287" 
d="M139 0c-20 0 -39.998 2.99902 -59.998 8.99902s-39.667 14.667 -59 26c-3.33301 2 -5.66602 4.66699 -6.99902 8c-0.666992 2 -0.833984 3.5 -0.500977 4.5s1.16602 2.83301 2.49902 5.5l18 28c2 2.66699 4.66699 4.33398 8 5.00098
c2.66699 0.666992 5.66699 0.333984 9 -0.999023c32 -18.667 59.667 -27.667 83 -27c24 0.666992 44.333 4.33398 61 11.001c16.667 6 25.334 18 26.001 36c0 18 -2 33 -6 45c-3.33301 10 -16.333 20.667 -39 32c-22.667 12 -42.334 22 -59.001 30
c-12 5.33301 -23.333 10.666 -34 15.999c-11.333 5.33301 -20.666 10.666 -27.999 15.999c-12.667 8.66699 -22.334 19.667 -29.001 33s-10 28.333 -10 45c0 10.667 1 19.667 3 27c2 8 3.33301 13 4 15c4 11.333 14.333 25 31 41s41.667 25.333 75 28c6 0.666992 12 1 18 1
c21.333 0 40.333 -3.33301 57 -10c20.667 -8.66699 36 -16.334 46 -23.001c3.33301 -2 5 -5 5 -9c0.666992 -3.33301 0 -6.33301 -2 -9c-2.66699 -2.66699 -6.33398 -6.66699 -11.001 -12c-2.66699 -3.33301 -6.66699 -8 -12 -14c-1.33301 -2 -3.66602 -3.33301 -6.99902 -4
c-2.66699 0 -5.33398 0.666992 -8.00098 2c-7.33301 4 -18 9 -32 15c-14 5.33301 -30.333 7.33301 -49 6c-21.333 -2 -35.666 -7.33301 -42.999 -16c-8 -8 -13.667 -20.667 -17 -38c-2 -13.333 2.66699 -24 14 -32c6 -4 13.667 -8.33301 23 -13l31 -14
c28 -13.333 54.333 -27.333 79 -42c25.333 -14.667 41.666 -32.667 48.999 -54c6.66699 -19.333 10 -37.666 10 -54.999c0 -14 -2.33301 -27.667 -7 -41c-10 -28.667 -29 -48 -57 -58c-13.333 -4 -26.333 -7.33301 -39 -10c-12.667 -2 -25 -3 -37 -3zM112.002 493.999v41
c0 11.333 4 21 12 29s17.667 12 29 12h45v-41c0 -11.333 -4 -21 -12 -29s-17.667 -12 -29 -12h-45z" />
    <glyph glyph-name="Scedilla" unicode="&#x15e;" horiz-adv-x="492" 
d="M203 -1c-30.667 2.66699 -61.3301 9.34082 -91.9971 20.0078c-30.667 11.333 -61.667 26.333 -93 45c-2.66699 2 -4.33398 4.66699 -5.00098 8v3c0 2 0.666992 4 2 6c4 7.33301 10.667 18 20 32c2 2.66699 4.66699 4.66699 8 6c3.33301 0.666992 6.33301 0 9 -2
c65.333 -39.333 122 -58.333 170 -57c48 2 87.333 8.66699 118 20c18 6.66699 35 23.667 51 51c16.667 27.333 15.334 68.333 -3.99902 123c-4.66699 14 -17.334 28.333 -38.001 43c-20 14 -42.667 27.667 -68 41l-41 21l-41 19l-60 29
c-19.333 9.33301 -35.333 18.666 -48 27.999c-20.667 14 -36 31.333 -46 52c-10.667 21.333 -15.667 45.666 -15 72.999c0 18 1.66699 33.333 5 46c3.33301 13.333 5.33301 21 6 23s2.33398 6 5.00098 12s7.33398 13.333 14.001 22c10.667 14.667 28 30.667 52 48
c24.667 16.667 58.667 26.667 102 30c10.667 0.666992 21 1 31 1c40 0 75 -7 105 -21c37.333 -17.333 63 -31 77 -41c2.66699 -2 4 -5 4 -9c0.666992 -3.33301 -0.333008 -6.33301 -3 -9c-2.66699 -3.33301 -6.66699 -8 -12 -14c-2.66699 -3.33301 -7 -8.33301 -13 -15
c-2 -2.66699 -4.66699 -4.33398 -8 -5.00098c-2.66699 0 -5.33398 1 -8.00098 3c-11.333 8 -31.666 18.667 -60.999 32c-30 14 -65.667 19.333 -107 16c-30 -2.66699 -53.333 -9.33398 -70 -20.001c-17.333 -10.667 -29.666 -21 -36.999 -31c-4 -4.66699 -7 -9 -9 -13
c-1.33301 -4 -2.33301 -6.33301 -3 -7l-1 -1c0 -1.33301 -1.66699 -9 -5 -23c-4 -14.667 -4.33301 -30.667 -1 -48c2 -8.66699 5.33301 -17.334 10 -26.001c5.33301 -8.66699 12.666 -16.334 21.999 -23.001c11.333 -8 26 -16.333 44 -25l56 -27
c48.667 -22.667 94.667 -46.334 138 -71.001c42.667 -25.333 70 -55 82 -89c9.33301 -24.667 14.666 -49.667 15.999 -75c0.666992 -6 1 -12 1 -18c0 -18 -2 -35 -6 -51c-6 -26.667 -17.333 -49.334 -34 -68.001s-37.334 -32.667 -62.001 -42
c-18.667 -6.66699 -37.334 -12 -56.001 -16c17.333 -2 32.666 -9.33301 45.999 -22c15.333 -15.333 23 -34 23 -56v-80h-84c-22 0 -40.667 7.66699 -56 23c-16 16 -24 35 -24 57v71z" />
    <glyph glyph-name="scedilla" unicode="&#x15f;" horiz-adv-x="287" 
d="M79 9c-20 6 -39.6641 14.665 -58.9971 25.998c-3.33301 2 -5.66602 4.66699 -6.99902 8c-0.666992 2 -0.833984 3.5 -0.500977 4.5s1.16602 2.83301 2.49902 5.5l18 28c2 2.66699 4.66699 4.33398 8 5.00098c2.66699 0.666992 5.66699 0.333984 9 -0.999023
c32 -18.667 59.667 -27.667 83 -27c24 0.666992 44.333 4.33398 61 11.001c16.667 6 25.334 18 26.001 36c0 18 -2 33 -6 45c-3.33301 10 -16.333 20.667 -39 32c-22.667 12 -42.334 22 -59.001 30c-12 5.33301 -23.333 10.666 -34 15.999
c-11.333 5.33301 -20.666 10.666 -27.999 15.999c-12.667 8.66699 -22.334 19.667 -29.001 33s-10 28.333 -10 45c0 10.667 1 19.667 3 27c2 8 3.33301 13 4 15c4 11.333 14.333 25 31 41s41.667 25.333 75 28c6 0.666992 12 1 18 1c21.333 0 40.333 -3.33301 57 -10
c20.667 -8.66699 36 -16.334 46 -23.001c3.33301 -2 5 -5 5 -9c0.666992 -3.33301 0 -6.33301 -2 -9c-2.66699 -2.66699 -6.33398 -6.66699 -11.001 -12c-2.66699 -3.33301 -6.66699 -8 -12 -14c-1.33301 -2 -3.66602 -3.33301 -6.99902 -4
c-2.66699 0 -5.33398 0.666992 -8.00098 2c-7.33301 4 -18 9 -32 15c-14 5.33301 -30.333 7.33301 -49 6c-21.333 -2 -35.666 -7.33301 -42.999 -16c-8 -8 -13.667 -20.667 -17 -38c-2 -13.333 2.66699 -24 14 -32c6 -4 13.667 -8.33301 23 -13l31 -14
c28 -13.333 54.333 -27.333 79 -42c25.333 -14.667 41.666 -32.667 48.999 -54c6.66699 -19.333 10 -37.666 10 -54.999c0 -14 -2.33301 -27.667 -7 -41c-10 -28.667 -29 -48 -57 -58c-10.667 -3.33301 -21 -6.33301 -31 -9c12 -1.33301 22.333 -6.33301 31 -15
c10 -10 15 -22.667 15 -38v-54h-58c-14.667 0 -27.334 5.33301 -38.001 16s-16 23.334 -16 38.001v50c-13.333 1.33301 -26.333 4 -39 8z" />
    <glyph glyph-name="Scaron" unicode="&#x160;" horiz-adv-x="492" 
d="M232 -2l-14.999 0.00683594c-4.66699 0.666992 -9.33398 1 -14.001 1c-30.667 2.66699 -61.334 9.33398 -92.001 20.001c-30.667 11.333 -61.667 26.333 -93 45c-2.66699 2 -4.33398 4.66699 -5.00098 8v3c0 2 0.666992 4 2 6c4 7.33301 10.667 18 20 32
c2 2.66699 4.66699 4.66699 8 6c3.33301 0.666992 6.33301 0 9 -2c65.333 -39.333 122 -58.333 170 -57c48 2 87.333 8.66699 118 20c18 6.66699 35 23.667 51 51c16.667 27.333 15.334 68.333 -3.99902 123c-4.66699 14 -17.334 28.333 -38.001 43
c-20 14 -42.667 27.667 -68 41l-41 21l-41 19l-60 29c-19.333 9.33301 -35.333 18.666 -48 27.999c-20.667 14 -36 31.333 -46 52c-10.667 21.333 -15.667 45.666 -15 72.999c0 18 1.66699 33.333 5 46c3.33301 13.333 5.33301 21 6 23s2.33398 6 5.00098 12
s7.33398 13.333 14.001 22c10.667 14.667 28 30.667 52 48c24.667 16.667 58.667 26.667 102 30c10.667 0.666992 21 1 31 1c40 0 75 -7 105 -21c37.333 -17.333 63 -31 77 -41c2.66699 -2 4 -5 4 -9c0.666992 -3.33301 -0.333008 -6.33301 -3 -9
c-2.66699 -3.33301 -6.66699 -8 -12 -14c-2.66699 -3.33301 -7 -8.33301 -13 -15c-2 -2.66699 -4.66699 -4.33398 -8 -5.00098c-2.66699 0 -5.33398 1 -8.00098 3c-11.333 8 -31.666 18.667 -60.999 32c-30 14 -65.667 19.333 -107 16
c-30 -2.66699 -53.333 -9.33398 -70 -20.001c-17.333 -10.667 -29.666 -21 -36.999 -31c-4 -4.66699 -7 -9 -9 -13c-1.33301 -4 -2.33301 -6.33301 -3 -7l-1 -1c0 -1.33301 -1.66699 -9 -5 -23c-4 -14.667 -4.33301 -30.667 -1 -48c2 -8.66699 5.33301 -17.334 10 -26.001
c5.33301 -8.66699 12.666 -16.334 21.999 -23.001c11.333 -8 26 -16.333 44 -25l56 -27c48.667 -22.667 94.667 -46.334 138 -71.001c42.667 -25.333 70 -55 82 -89c9.33301 -24.667 14.666 -49.667 15.999 -75c0.666992 -6 1 -12 1 -18c0 -18 -2 -35 -6 -51
c-6 -26.667 -17.333 -49.334 -34 -68.001s-37.334 -32.667 -62.001 -42c-21.333 -7.33301 -42.666 -13 -63.999 -17s-42.666 -6 -63.999 -6zM329.001 853.007v-0.999023c0 -4 -1 -7.33301 -3 -10l-78 -78c-2.66699 -2.66699 -5.66699 -4 -9 -4
c-2.66699 0 -5.33398 1.33301 -8.00098 4l-81 80c-2 2 -3 4.66699 -3 8s1.66699 6.66602 5 9.99902s7 5 11 5c4 0.666992 7.66699 -0.333008 11 -3l57 -57c2 -2 4.66699 -3 8 -3c2.66699 0 5.33398 1 8.00098 3l58 59c2 2 4.66699 3 8 3s6.83301 -1.66699 10.5 -5
s5.5 -7 5.5 -11z" />
    <glyph glyph-name="scaron" unicode="&#x161;" horiz-adv-x="287" 
d="M139 0c-20 0 -39.998 2.99902 -59.998 8.99902s-39.667 14.667 -59 26c-3.33301 2 -5.66602 4.66699 -6.99902 8c-0.666992 2 -0.833984 3.5 -0.500977 4.5s1.16602 2.83301 2.49902 5.5l18 28c2 2.66699 4.66699 4.33398 8 5.00098
c2.66699 0.666992 5.66699 0.333984 9 -0.999023c32 -18.667 59.667 -27.667 83 -27c24 0.666992 44.333 4.33398 61 11.001c16.667 6 25.334 18 26.001 36c0 18 -2 33 -6 45c-3.33301 10 -16.333 20.667 -39 32c-22.667 12 -42.334 22 -59.001 30
c-12 5.33301 -23.333 10.666 -34 15.999c-11.333 5.33301 -20.666 10.666 -27.999 15.999c-12.667 8.66699 -22.334 19.667 -29.001 33s-10 28.333 -10 45c0 10.667 1 19.667 3 27c2 8 3.33301 13 4 15c4 11.333 14.333 25 31 41s41.667 25.333 75 28c6 0.666992 12 1 18 1
c21.333 0 40.333 -3.33301 57 -10c20.667 -8.66699 36 -16.334 46 -23.001c3.33301 -2 5 -5 5 -9c0.666992 -3.33301 0 -6.33301 -2 -9c-2.66699 -2.66699 -6.33398 -6.66699 -11.001 -12c-2.66699 -3.33301 -6.66699 -8 -12 -14c-1.33301 -2 -3.66602 -3.33301 -6.99902 -4
c-2.66699 0 -5.33398 0.666992 -8.00098 2c-7.33301 4 -18 9 -32 15c-14 5.33301 -30.333 7.33301 -49 6c-21.333 -2 -35.666 -7.33301 -42.999 -16c-8 -8 -13.667 -20.667 -17 -38c-2 -13.333 2.66699 -24 14 -32c6 -4 13.667 -8.33301 23 -13l31 -14
c28 -13.333 54.333 -27.333 79 -42c25.333 -14.667 41.666 -32.667 48.999 -54c6.66699 -19.333 10 -37.666 10 -54.999c0 -14 -2.33301 -27.667 -7 -41c-10 -28.667 -29 -48 -57 -58c-13.333 -4 -26.333 -7.33301 -39 -10c-12.667 -2 -25 -3 -37 -3zM237.002 563.999
l-0.000976562 -1.00098c0 -3.33301 -1 -6.33301 -3 -9l-78 -79c-2.66699 -2 -5.33398 -3 -8.00098 -3c-3.33301 0 -6.33301 1 -9 3l-81 81c-2 2 -3 4.33301 -3 7c0 3.33301 1 6 3 8l3 3c2.66699 2.66699 6.33398 4.33398 11.001 5.00098c4 0 7.33301 -1.33301 10 -4l57 -56
c2.66699 -2.66699 5.33398 -4 8.00098 -4c3.33301 0 6 1.33301 8 4l59 58c2 2 4.33301 3 7 3c3.33301 0 6 -1 8 -3l3 -3c3.33301 -2.66699 5 -6 5 -10z" />
    <glyph glyph-name="uni0162" unicode="&#x162;" horiz-adv-x="452" 
d="M281 6c22 0 40.999 -7.66699 56.999 -23c15.333 -15.333 23 -34 23 -56v-80h-84c-22 0 -40.667 7.66699 -56 23c-16 16 -24 35 -24 57v73c-2 2 -3 5 -3 9v654c0 4 -1.33301 7 -4 9c-2.66699 2.66699 -5.66699 4 -9 4h-144c-4 0 -7 1.33301 -9 4c-2.66699 2 -4 5 -4 9v39
c0 3.33301 1.33301 6.33301 4 9c2 2.66699 5 4 9 4h377c4 0 7 -1.33301 9 -4c2.66699 -2.66699 4.33398 -5.66699 5.00098 -9v-39c0 -4 -1.33301 -7 -4 -9c-2.66699 -2.66699 -5.66699 -4 -9 -4h-144c-3.33301 0 -6.33301 -1.33301 -9 -4c-2.66699 -2 -4 -5 -4 -9v-654
c0 -1.33301 -0.333008 -2.33301 -1 -3h24z" />
    <glyph glyph-name="uni0163" unicode="&#x163;" horiz-adv-x="349" 
d="M166 710l0.00292969 -212.002h115v-33c0 -9.33301 -3 -17 -9 -23c-6.66699 -6.66699 -14.334 -10 -23.001 -10h-83v-219c1.33301 -41.333 16.666 -76.666 45.999 -105.999s64.666 -44 105.999 -44c8.66699 -0.666992 16 -4 22 -10s9 -13.333 9 -22v-21
c0 -2.66699 -1 -5 -3 -7s-4.33301 -3 -7 -3h-21c-58 0.666992 -107.667 21.667 -149 63s-62.666 91 -63.999 149v220h-106v31c0 6.66699 1.66699 13 5 19c4 6.66699 9 11.334 15 14.001c3.33301 1.33301 6.66602 2 9.99902 2h76v243h30c8.66699 0 16 -3 22 -9
s9 -13.333 9 -22zM205.003 4.99805c15.333 0 28.334 -5.33398 39.001 -16.001c10 -10 15 -22.667 15 -38v-54h-58c-14.667 0 -27.334 5.33301 -38.001 16s-16 23.334 -16 38.001v54h58z" />
    <glyph glyph-name="Tcaron" unicode="&#x164;" horiz-adv-x="452" 
d="M428 728l-0.000976562 -39c0 -4 -1.33301 -7 -4 -9c-2.66699 -2.66699 -5.66699 -4 -9 -4h-144c-3.33301 0 -6.33301 -1.33301 -9 -4c-2.66699 -2 -4 -5 -4 -9v-654c0 -4 -1.33301 -7 -4 -9c-2 -2.66699 -5 -4 -9 -4h-39c-3.33301 0 -6.33301 1.33301 -9 4
c-2 2 -3 5 -3 9v654c0 4 -1.33301 7 -4 9c-2.66699 2.66699 -5.66699 4 -9 4h-144c-4 0 -7 1.33301 -9 4c-2.66699 2 -4 5 -4 9v39c0 3.33301 1.33301 6.33301 4 9c2 2.66699 5 4 9 4h377c4 0 7 -1.33301 9 -4c2.66699 -2.66699 4.33398 -5.66699 5.00098 -9zM316.999 853
v-0.999023c0 -4 -1 -7.33301 -3 -10l-78 -78c-2.66699 -2.66699 -5.66699 -4 -9 -4c-2.66699 0 -5.33398 1.33301 -8.00098 4l-81 80c-2 2 -3 4.66699 -3 8s1.66699 6.66602 5 9.99902s7 5 11 5c4 0.666992 7.66699 -0.333008 11 -3l57 -57c2 -2 4.66699 -3 8 -3
c2.66699 0 5.33398 1 8.00098 3l58 59c2 2 4.66699 3 8 3s6.83301 -1.66699 10.5 -5s5.5 -7 5.5 -11z" />
    <glyph glyph-name="tcaron" unicode="&#x165;" horiz-adv-x="349" 
d="M166 710l0.00292969 -212.002h115v-33c0 -9.33301 -3 -17 -9 -23c-6.66699 -6.66699 -14.334 -10 -23.001 -10h-83v-219c1.33301 -41.333 16.666 -76.666 45.999 -105.999s64.666 -44 105.999 -44c8.66699 -0.666992 16 -4 22 -10s9 -13.333 9 -22v-21
c0 -2.66699 -1 -5 -3 -7s-4.33301 -3 -7 -3h-21c-58 0.666992 -107.667 21.667 -149 63s-62.666 91 -63.999 149v220h-106v31c0 6.66699 1.66699 13 5 19c4 6.66699 9 11.334 15 14.001c3.33301 1.33301 6.66602 2 9.99902 2h76v243h30c8.66699 0 16 -3 22 -9
s9 -13.333 9 -22zM187.003 657.998v80h33c8.66699 0 16 -2.66699 22 -8c6.66699 -6 10.667 -13 12 -21v-84h-34c-9.33301 0 -17.333 3 -24 9c-6 6.66699 -9 14.667 -9 24z" />
    <glyph glyph-name="Uring" unicode="&#x16e;" horiz-adv-x="677" 
d="M42 740h38.0029c3.33301 0 6.33301 -1.33301 9 -4c2 -2.66699 3 -5.66699 3 -9v-407c0 -0.666992 0.666992 -12.334 2 -35.001c1.33301 -22 6.66602 -47.667 15.999 -77c5.33301 -16 12.333 -32 21 -48s19.667 -30.667 33 -44c20 -21.333 44.333 -37.333 73 -48
s61 -16 97 -16c35.333 0 67 5.33301 95 16c28 10 52.333 25.333 73 46c13.333 14 24.666 28.667 33.999 44c9.33301 16 16.666 32 21.999 48c11.333 28.667 17.666 54.334 18.999 77.001l3 34v408c0 3.33301 1.33301 6.33301 4 9c2 2 4.66699 3 8 3h38
c3.33301 0 6.33301 -1 9 -3c2 -2.66699 3 -5.66699 3 -9v-407c0 -2 -1 -16.333 -3 -43c-2 -27.333 -9.66699 -58.333 -23 -93c-7.33301 -18.667 -16.666 -37.667 -27.999 -57c-11.333 -18.667 -25.333 -36.334 -42 -53.001c-26.667 -26.667 -57.667 -46.667 -93 -60
c-35.333 -14 -75 -21 -119 -21c-45.333 0 -86 7 -122 21s-67 34.667 -93 62c-30 30.667 -51 64.334 -63 101.001s-19.667 68 -23 94c-1.33301 14 -2.33301 25.667 -3 35v423c0 3.33301 1.33301 6.33301 4 9c2 2.66699 4.66699 4 8 4zM346.003 754
c-3.33301 -0.666992 -6.66602 -1 -9.99902 -1c-14 0 -26.667 4.33301 -38 13c-14 10.667 -22.333 24.667 -25 42c-0.666992 3.33301 -1 6.66602 -1 9.99902c0 14 4.33301 26.667 13 38c10.667 14 24.667 22.333 42 25c4 0.666992 7.66699 1 11 1
c13.333 0 25.666 -4.33301 36.999 -13c14.667 -10 23 -24 25 -42c0.666992 -3.33301 1 -6.66602 1 -9.99902c0 -14 -4.33301 -26.667 -13 -38c-10.667 -14 -24.667 -22.333 -42 -25zM323.003 828c-2 -3.33301 -3.00098 -6.66699 -3.00098 -10v-3
c0.666992 -4.66699 3 -8.33398 7 -11.001c2.66699 -2 5.16699 -3.16699 7.5 -3.5s4.83301 -0.166016 7.5 0.500977s5.66699 2.66699 9 6c2 3.33301 3 6.66602 3 9.99902v3c-0.666992 4.66699 -3 8.33398 -7 11.001c-3.33301 2 -6.66602 3.33301 -9.99902 4
c-0.666992 0 -2.5 -0.333008 -5.5 -1s-5.83301 -2.66699 -8.5 -6z" />
    <glyph glyph-name="uring" unicode="&#x16f;" 
d="M21 215l0.000976562 205c0 2.66699 0.666992 5 2 7c2 2 4.66699 3 8 3c7.33301 0 19 0.333008 35 1c2.66699 0 5 -1 7 -3s3 -4.33301 3 -7v-206c0 -42 13.333 -78.333 40 -109c27.333 -30 60 -45 98 -45s70.333 15.333 97 46c27.333 30 40.666 66.333 39.999 109v208
c0.666992 2 2 3.33301 4 4c1.33301 1.33301 3 2 5 2h36c2.66699 0 5 -1 7 -3s3 -4.33301 3 -7v-205c0 -59.333 -18.667 -110 -56 -152c-38 -42 -83.667 -63 -137 -63c-52.667 0 -98 21 -136 63c-37.333 42 -56 92.667 -56 152zM213.001 452c-4 -0.666992 -7.66699 -1 -11 -1
c-13.333 0 -25.666 4.33301 -36.999 13c-14.667 10.667 -23 24.667 -25 42c-0.666992 3.33301 -1 7 -1 11c0 13.333 4 25.666 12 36.999c10.667 14 25 22.333 43 25c3.33301 0.666992 6.66602 1 9.99902 1c14 0 26.667 -4.33301 38 -13c14 -10 22.333 -24 25 -42
c0.666992 -3.33301 1 -6.66602 1 -9.99902c0 -14 -4.33301 -26.667 -13 -38c-10.667 -14 -24.667 -22.333 -42 -25zM201.001 533c-4.66699 -0.666992 -8.66699 -3 -12 -7c-2 -2.66699 -3 -6 -3 -10v-3c0.666992 -4.66699 3 -8.33398 7 -11.001
c2.66699 -2 5.16699 -3.16699 7.5 -3.5s5 -0.166016 8 0.500977s5.83301 2.66699 8.5 6c2 3.33301 3 6.66602 3 9.99902v3c-0.666992 4.66699 -3 8.33398 -7 11.001c-2.66699 2.66699 -5.66699 4 -9 4h-3z" />
    <glyph glyph-name="Ydieresis" unicode="&#x178;" horiz-adv-x="677" 
d="M356 0l-39 0.000976562c-3.33301 0 -6.33301 1.33301 -9 4c-2 2 -3 5 -3 9v130c-34.667 2.66699 -66.667 9.66699 -96 21c-37.333 14 -69.666 35 -96.999 63c-16.667 17.333 -30.334 36 -41.001 56c-10.667 19.333 -19.334 38.333 -26.001 57c-12.667 36 -20 68 -22 96
c-1.33301 28 -2 44 -2 48v245c0 3.33301 1 6.33301 3 9c2.66699 2 5.66699 3 9 3h39c4 0 7 -1 9 -3c2.66699 -2.66699 4 -5.66699 4 -9v-247l2 -35c0.666992 -23.333 6.33398 -50 17.001 -80c5.33301 -16.667 12.333 -33.334 21 -50.001c8.66699 -16 20 -31 34 -45
c20.667 -22 45.667 -38.667 75 -50c30 -10.667 63.667 -16 101 -16c36 0 68.667 5.33301 98 16s54.666 26.667 75.999 48c14 14 25.667 29.333 35 46s17 33 23 49c11.333 30 18 56.667 20 80c2 22.667 3 34.334 3 35.001v246c0 3.33301 1 6.33301 3 9
c2.66699 2.66699 5.66699 4 9 4h39c4 0 7 -1.33301 9 -4c2.66699 -2.66699 4 -5.66699 4 -9v-245c0 -2.66699 -1.33301 -18 -4 -46c-2 -28 -10 -59.667 -24 -95c-7.33301 -20 -16.666 -39.667 -27.999 -59c-12 -20 -26.667 -38.667 -44 -56
c-27.333 -27.333 -59.333 -48 -96 -62c-27.333 -10.667 -57 -17.334 -89 -20.001v-130c0 -4 -1.33301 -7 -4 -9c-2 -2.66699 -5 -4 -9 -4zM407 781.001h-45v42c0 12 4 22 12 30c8.66699 8 18.667 12 30 12h45v-42c0 -11.333 -4 -21.333 -12 -30
c-8.66699 -8 -18.667 -12 -30 -12zM301 853.001c8 -8 11.999 -18 11.999 -30v-42h-45c-12 0 -22 4 -30 12c-8 8.66699 -12 18.667 -12 30v42h46c10.667 -0.666992 20.334 -4.66699 29.001 -12z" />
    <glyph glyph-name="Zacute" unicode="&#x179;" horiz-adv-x="595" 
d="M539 0h-519.001c-5.33301 0 -9.33301 2 -12 6c-1.33301 2 -2 4 -2 6s1 4 3 6l451 646c2.66699 3.33301 3 7 1 11s-5.33301 6 -10 6h-338c-3.33301 0 -6 1.33301 -8 4c-2.66699 2 -4 4.66699 -4 8v36c0 3.33301 1.33301 6 4 8c2 2.66699 4.66699 4 8 4h448
c4.66699 0 8 -2 10 -6c1.33301 -2 2 -4 2 -6c-0.666992 -2 -1.66699 -4 -3 -6l-446 -646c-3.33301 -3.33301 -3.66602 -7.33301 -0.999023 -12c2 -4 5.33301 -6 10 -6h404c3.33301 0 6.33301 -1 9 -3c2 -2 3 -4.66699 3 -8v-36c0 -3.33301 -1 -6.33301 -3 -9
c-2 -2 -4.33301 -3 -7 -3zM295.999 861l45 -0.000976562v-40c0 -10.667 -3.66699 -20 -11 -28c-8 -8 -17.667 -12 -29 -12h-43v40c0 11.333 3.66699 21 11 29c7.33301 6.66699 16.333 10.334 27 11.001z" />
    <glyph glyph-name="zacute" unicode="&#x17a;" horiz-adv-x="379" 
d="M333 0h-315.999c-3.33301 0 -6 1.66699 -8 5c-0.666992 0.666992 -1 1.66699 -1 3c0 2 0.666992 3.66699 2 5l245 353c2 2.66699 2.33301 5.66699 1 9c-2 2.66699 -4.66699 4 -8 4h-158c-2.66699 0 -5 1 -7 3c-1.33301 1.33301 -2 3.33301 -2 6v34c0 2 0.666992 4 2 6
c2 2 4.33301 3 7 3h257c3.33301 0 5.66602 -1.66699 6.99902 -5c0.666992 -1.33301 1 -2.33301 1 -3c0.666992 -2 0.333984 -4 -0.999023 -6l-246 -352c-2 -2.66699 -2 -5.66699 0 -9c1.33301 -2.66699 3.66602 -4 6.99902 -4h217c2 0 4 -1 6 -3s3 -4 3 -6v-35
c0 -2 -0.666992 -4 -2 -6c-2 -1.33301 -4 -2 -6 -2zM148.001 494v41c0 11.333 4 21 12 29s17.667 12 29 12h45v-41c0 -11.333 -4 -21 -12 -29s-17.667 -12 -29 -12h-45z" />
    <glyph glyph-name="Zdotaccent" unicode="&#x17b;" horiz-adv-x="595" 
d="M539 0h-519.001c-5.33301 0 -9.33301 2 -12 6c-1.33301 2 -2 4 -2 6s1 4 3 6l451 646c2.66699 3.33301 3 7 1 11s-5.33301 6 -10 6h-338c-3.33301 0 -6 1.33301 -8 4c-2.66699 2 -4 4.66699 -4 8v36c0 3.33301 1.33301 6 4 8c2 2.66699 4.66699 4 8 4h448
c4.66699 0 8 -2 10 -6c1.33301 -2 2 -4 2 -6c-0.666992 -2 -1.66699 -4 -3 -6l-446 -646c-3.33301 -3.33301 -3.66602 -7.33301 -0.999023 -12c2 -4 5.33301 -6 10 -6h404c3.33301 0 6.33301 -1 9 -3c2 -2 3 -4.66699 3 -8v-36c0 -3.33301 -1 -6.33301 -3 -9
c-2 -2 -4.33301 -3 -7 -3zM331.999 824c0 -12 -4 -22.333 -12 -31c-8.66699 -8 -19 -12 -31 -12s-22 4.33301 -30 13c-8 8 -12 18 -12 30v43h42c12 0 22 -4.33301 30 -13c8.66699 -8 13 -18 13 -30z" />
    <glyph glyph-name="zdotaccent" unicode="&#x17c;" horiz-adv-x="379" 
d="M333 0h-315.999c-3.33301 0 -6 1.66699 -8 5c-0.666992 0.666992 -1 1.66699 -1 3c0 2 0.666992 3.66699 2 5l245 353c2 2.66699 2.33301 5.66699 1 9c-2 2.66699 -4.66699 4 -8 4h-158c-2.66699 0 -5 1 -7 3c-1.33301 1.33301 -2 3.33301 -2 6v34c0 2 0.666992 4 2 6
c2 2 4.33301 3 7 3h257c3.33301 0 5.66602 -1.66699 6.99902 -5c0.666992 -1.33301 1 -2.33301 1 -3c0.666992 -2 0.333984 -4 -0.999023 -6l-246 -352c-2 -2.66699 -2 -5.66699 0 -9c1.33301 -2.66699 3.66602 -4 6.99902 -4h217c2 0 4 -1 6 -3s3 -4 3 -6v-35
c0 -2 -0.666992 -4 -2 -6c-2 -1.33301 -4 -2 -6 -2zM224.001 537c0 -12 -4 -22.333 -12 -31c-8.66699 -8 -19 -12 -31 -12s-22 4.33301 -30 13c-8 8 -12 18 -12 30v43h42c12 0 22 -4.33301 30 -13c8.66699 -8 13 -18 13 -30z" />
    <glyph glyph-name="Zcaron" unicode="&#x17d;" horiz-adv-x="595" 
d="M539 0h-519.001c-5.33301 0 -9.33301 2 -12 6c-1.33301 2 -2 4 -2 6s1 4 3 6l451 646c2.66699 3.33301 3 7 1 11s-5.33301 6 -10 6h-338c-3.33301 0 -6 1.33301 -8 4c-2.66699 2 -4 4.66699 -4 8v36c0 3.33301 1.33301 6 4 8c2 2.66699 4.66699 4 8 4h448
c4.66699 0 8 -2 10 -6c1.33301 -2 2 -4 2 -6c-0.666992 -2 -1.66699 -4 -3 -6l-446 -646c-3.33301 -3.33301 -3.66602 -7.33301 -0.999023 -12c2 -4 5.33301 -6 10 -6h404c3.33301 0 6.33301 -1 9 -3c2 -2 3 -4.66699 3 -8v-36c0 -3.33301 -1 -6.33301 -3 -9
c-2 -2 -4.33301 -3 -7 -3zM380.999 853v-0.999023c0 -4 -1 -7.33301 -3 -10l-78 -78c-2.66699 -2.66699 -5.66699 -4 -9 -4c-2.66699 0 -5.33398 1.33301 -8.00098 4l-81 80c-2 2 -3 4.66699 -3 8s1.66699 6.66602 5 9.99902s7 5 11 5c4 0.666992 7.66699 -0.333008 11 -3
l57 -57c2 -2 4.66699 -3 8 -3c2.66699 0 5.33398 1 8.00098 3l58 59c2 2 4.66699 3 8 3s6.83301 -1.66699 10.5 -5s5.5 -7 5.5 -11z" />
    </font>
</defs>
</svg>
